<svg width="48" height="48" viewBox="0 0 48 48" fill="none" xmlns="http://www.w3.org/2000/svg">
<mask id="path-1-inside-1_2190_16488" fill="white">
<path fill-rule="evenodd" clip-rule="evenodd" d="M40 27.4173V43H8V27.4173V26.5H8.02726C8.51476 18.3205 15.4796 11.834 24 11.834C32.5204 11.834 39.4852 18.3205 39.9727 26.5H40V27.4173Z"/>
</mask>
<path d="M40 43V46H43V43H40ZM8 43H5V46H8V43ZM8 26.5V23.5H5V26.5H8ZM8.02726 26.5V29.5H10.8538L11.0219 26.6785L8.02726 26.5ZM39.9727 26.5L36.9781 26.6785L37.1462 29.5H39.9727V26.5ZM40 26.5H43V23.5H40V26.5ZM37 27.4173V43H43V27.4173H37ZM40 40H8V46H40V40ZM11 43V27.4173H5V43H11ZM11 27.4173V26.5H5V27.4173H11ZM8 29.5H8.02726V23.5H8V29.5ZM11.0219 26.6785C11.4115 20.1421 17.008 14.834 24 14.834V8.83398C13.9512 8.83398 5.618 16.499 5.03258 26.3215L11.0219 26.6785ZM24 14.834C30.992 14.834 36.5885 20.1421 36.9781 26.6785L42.9674 26.3215C42.382 16.499 34.0488 8.83398 24 8.83398V14.834ZM39.9727 29.5H40V23.5H39.9727V29.5ZM37 26.5V27.4173H43V26.5H37Z" fill="#333333" mask="url(#path-1-inside-1_2190_16488)"/>
<path d="M40 27C39 27.4785 38 27.4785 37 27V33C38 32.625 39 32.625 40 33V27Z" fill="#F9FAFC"/>
<rect x="4" y="40" width="40" height="3" rx="1.5" fill="#333333"/>
<rect x="21" y="4" width="4" height="6" rx="2" fill="#333333"/>
<rect x="4" y="10.8281" width="4" height="6" rx="2" transform="rotate(-45 4 10.8281)" fill="#333333"/>
<rect width="4" height="6" rx="2" transform="matrix(-0.707107 -0.707107 -0.707107 0.707107 43.0713 10.8281)" fill="#333333"/>
<path d="M16 25.5C16 23.8333 17 20.4 21 20" stroke="#11957D" stroke-width="3" stroke-linecap="round"/>
</svg>
