<svg width="18" height="19" viewBox="0 0 18 19" fill="none" xmlns="http://www.w3.org/2000/svg">
<path d="M12 14.8438L6 14.8437" stroke="#333333" stroke-width="1.5" stroke-miterlimit="10" stroke-linecap="round" stroke-linejoin="round"/>
<path d="M9.0045 1.80755C9.37369 1.80755 9.72486 1.93323 9.995 2.16782L10.031 2.20134L10.067 2.23485L16.2351 6.85976C16.5053 7.10273 16.6583 7.44625 16.6583 7.78976V16.3944C16.6583 17.1234 16.01 17.7182 15.2176 17.7182H2.8004C2.008 17.7182 1.35968 17.1234 1.35968 16.3944V7.79814C1.35968 7.44625 1.51276 7.11111 1.78289 6.86813L7.95098 2.24323L7.98699 2.20971L8.02301 2.1762C8.28414 1.93323 8.63532 1.80755 9.0045 1.80755ZM9.0045 0.550781C8.31116 0.550781 7.62681 0.785378 7.08654 1.25457L0.873437 5.91299C0.324162 6.40732 0 7.08597 0 7.79814V16.4028C0 17.8271 1.25163 18.9834 2.7914 18.9834H15.2086C16.7484 18.9834 18 17.8271 18 16.4028V7.79814C18 7.08597 17.6848 6.40732 17.1266 5.92137L10.9135 1.26295C10.3912 0.785378 9.69785 0.550781 9.0045 0.550781Z" fill="#333333"/>
</svg>
