<svg width="48" height="48" viewBox="0 0 48 48" fill="none" xmlns="http://www.w3.org/2000/svg">
<path d="M6.5752 14C6.5752 10.4101 9.48534 7.5 13.0752 7.5H27.0752C30.665 7.5 33.5752 10.4101 33.5752 14V34.5714C33.5752 37.2934 31.3686 39.5 28.6466 39.5H13.0752C9.48535 39.5 6.5752 36.5898 6.5752 33V14Z" stroke="#333333" stroke-width="3"/>
<rect x="13" y="16" width="13" height="3" rx="1.5" fill="#11957D"/>
<rect x="13" y="22" width="13" height="3" rx="1.5" fill="#11957D"/>
<path d="M42 13.875C42 13.0466 41.3284 12.375 40.5 12.375C39.6716 12.375 39 13.0466 39 13.875H42ZM35 36.6251V15.4033H32V36.6251H35ZM39 13.875V36.6251H42V13.875H39ZM37 38.6251C35.8954 38.6251 35 37.7297 35 36.6251H32C32 39.3865 34.2386 41.6251 37 41.6251V38.6251ZM37 41.6251C39.7614 41.6251 42 39.3865 42 36.6251H39C39 37.7297 38.1046 38.6251 37 38.6251V41.6251Z" fill="#333333"/>
<path d="M29.8877 39.25C29.5377 38.55 28.4375 38 28 38C29.4 38 30.3252 37.0625 30.7627 36.625C32.5127 37.0625 32.9502 39.25 32.9502 39.6875C32.2502 40.7375 29.8877 40.8542 29.0127 41C29.8877 40.5625 30.3252 39.6875 29.8877 39.25Z" fill="#F9FAFC"/>
</svg>
