<svg width="96" height="96" viewBox="0 0 96 96" fill="none" xmlns="http://www.w3.org/2000/svg">
<rect x="10" y="10" width="76" height="76" rx="12" fill="#11957D"/>
<path d="M22 37H74V66C74 70.4183 70.4183 74 66 74H30C25.5817 74 22 70.4183 22 66V37Z" fill="#FFF564"/>
<rect x="37" y="23" width="22" height="4" rx="2" fill="white"/>
<path d="M44.0409 47.554C45.0489 47.554 45.9429 47.74 46.7229 48.112C47.5029 48.484 48.1089 49.006 48.5409 49.678C48.9729 50.338 49.1889 51.1 49.1889 51.964C49.1889 52.504 49.0689 53.002 48.8289 53.458C48.6009 53.914 48.2949 54.286 47.9109 54.574C47.5389 54.862 47.1429 55.042 46.7229 55.114C47.1909 55.186 47.6409 55.366 48.0729 55.654C48.5169 55.942 48.8769 56.32 49.1529 56.788C49.4409 57.256 49.5849 57.79 49.5849 58.39C49.5849 59.314 49.3449 60.124 48.8649 60.82C48.3849 61.504 47.7309 62.032 46.9029 62.404C46.0869 62.788 45.1689 62.98 44.1489 62.98C42.5529 62.98 41.2749 62.566 40.3149 61.738C39.3549 60.91 38.8149 59.782 38.6949 58.354H41.9169C41.9769 58.954 42.1929 59.416 42.5649 59.74C42.9489 60.064 43.4769 60.226 44.1489 60.226C44.8209 60.226 45.3609 60.058 45.7689 59.722C46.1889 59.386 46.3989 58.948 46.3989 58.408C46.3989 57.808 46.1649 57.346 45.6969 57.022C45.2409 56.698 44.6229 56.536 43.8429 56.536H42.3849V53.872H43.8429C44.5029 53.872 45.0189 53.71 45.3909 53.386C45.7749 53.05 45.9669 52.6 45.9669 52.036C45.9669 51.496 45.7929 51.07 45.4449 50.758C45.1089 50.446 44.6349 50.29 44.0229 50.29C43.4229 50.29 42.9609 50.494 42.6369 50.902C42.3129 51.31 42.1509 51.796 42.1509 52.36H38.9289C38.9289 51.436 39.1449 50.614 39.5769 49.894C40.0089 49.162 40.6149 48.592 41.3949 48.184C42.1749 47.764 43.0569 47.554 44.0409 47.554ZM56.6742 62.62H53.4162V50.794H50.8242V47.95H56.6742V62.62Z" fill="#11957D"/>
<circle cx="25" cy="25" r="3" fill="white"/>
<circle cx="71" cy="25" r="3" fill="white"/>
</svg>
