<svg width="48" height="48" viewBox="0 0 48 48" fill="none" xmlns="http://www.w3.org/2000/svg">
<mask id="path-1-inside-1_2190_16648" fill="white">
<path d="M4 12C4 7.58172 7.58172 4 12 4H36C40.4183 4 44 7.58172 44 12V18.7368V22.9474V27.1579V36C44 40.4183 40.4183 44 36 44H12C7.58172 44 4 40.4183 4 36V12Z"/>
</mask>
<path d="M12 7H36V1H12V7ZM36 41H12V47H36V41ZM7 36V12H1V36H7ZM41 12V18.7368H47V12H41ZM41 27.1579V36H47V27.1579H41ZM41 18.7368V22.9474H47V18.7368H41ZM41 22.9474V27.1579H47V22.9474H41ZM12 41C9.23858 41 7 38.7614 7 36H1C1 42.0751 5.92487 47 12 47V41ZM36 47C42.0751 47 47 42.0751 47 36H41C41 38.7614 38.7614 41 36 41V47ZM36 7C38.7614 7 41 9.23858 41 12H47C47 5.92487 42.0751 1 36 1V7ZM12 1C5.92487 1 1 5.92487 1 12H7C7 9.23858 9.23858 7 12 7V1Z" fill="#333333" mask="url(#path-1-inside-1_2190_16648)"/>
<path d="M44 17C43 18.1165 42 18.1165 41 17V31C42 30.125 43 30.125 44 31V17Z" fill="#F9FAFC"/>
<path d="M7 17C6 18.1165 5 18.1165 4 17V31C5 30.125 6 30.125 7 31V17Z" fill="#F9FAFC"/>
<path d="M31 7C29.8835 6 29.8835 5 31 4L17 4C17.875 5 17.875 6 17 7L31 7Z" fill="#F9FAFC"/>
<path d="M31 44C29.8835 43 29.8835 42 31 41L17 41C17.875 42 17.875 43 17 44L31 44Z" fill="#F9FAFC"/>
<rect x="4" y="23" width="40" height="3" rx="1.5" fill="#11957D"/>
</svg>
