<svg width="48" height="48" viewBox="0 0 48 48" fill="none" xmlns="http://www.w3.org/2000/svg">
<path fill-rule="evenodd" clip-rule="evenodd" d="M32.7594 32.6875C33.4339 32.4285 33.6195 31.5616 33.1103 31.0491L16.5298 14.3629C16.0206 13.8504 15.1526 14.0305 14.8893 14.7033L4.27153 41.8345C3.95483 42.6438 4.75 43.444 5.56127 43.1325L32.7594 32.6875ZM8.71706 38.7069L28.8193 30.987L16.5647 18.6542L8.71706 38.7069Z" fill="#333333"/>
<path d="M22.5 22.5C22.3333 24.3333 22.9 29.9 26.5 33.5" stroke="#333333" stroke-width="3"/>
<path d="M10.5 30C10.4999 31.5 12.5 38 13.5 39" stroke="#333333" stroke-width="3"/>
<path d="M15.4998 18C15.3332 19.8333 15.9 32.4 19.5 36" stroke="#333333" stroke-width="3"/>
<path d="M23 14.5C26 12.5 27 10 26.5 6" stroke="#11957D" stroke-width="2.5" stroke-linecap="round"/>
<circle cx="21.5" cy="9.5" r="1.5" fill="#333333"/>
<circle cx="32.5" cy="7.5" r="1.5" fill="#333333"/>
<circle cx="40.5" cy="15.5" r="1.5" fill="#333333"/>
<circle cx="38.5" cy="27.5" r="1.5" fill="#333333"/>
<path d="M32 24.9997C33.3333 22.833 36.1 20.0014 42.5 22.0014" stroke="#11957D" stroke-width="2.5" stroke-linecap="round"/>
<path d="M27.5 18.9995C28 18.6662 28.2 18.5995 29 18.9995C30 19.4995 31.5 19.9986 31.5 17.9986C31.5 15.9986 31.5 14.4986 33 14.9986C34.5 15.4986 35 14.9994 35 13.9994C35 12.9994 34.5 10.4994 36.5 10.9994C38.5 11.4994 39 11.5004 39 10.0004C39 8.50042 38.5 7.00042 40.5 7.50042C42.5 8.00042 42.5 7.5 42.5 6" stroke="#11957D" stroke-width="2.5" stroke-linecap="round"/>
<path d="M17 19.5V14.5L23 20L20.5 23.5L17 19.5Z" fill="#F9FAFC"/>
</svg>
