<svg width="96" height="96" viewBox="0 0 96 96" fill="none" xmlns="http://www.w3.org/2000/svg">
<path d="M64.1718 17C57.9799 17 52.1073 19.619 48.0206 24.1855C43.8927 19.619 38.0201 17 31.8282 17C19.8006 17 10 26.7676 10 38.8369C10 43.6402 10 56.4246 36.1539 73.3385L48.0206 81L59.8461 73.3385C86 56.4246 86 43.6402 86 38.8369C86 26.7676 76.2363 17 64.1718 17Z" fill="#11957D"/>
<path d="M22 47H24" stroke="white" stroke-width="3" stroke-linecap="round"/>
<path d="M71 44H75" stroke="#FFF564" stroke-width="3" stroke-linecap="round"/>
<path d="M29 47.0645H30.2231C30.7328 47.0645 31.8744 47.4383 32.3636 48.9334C32.9752 50.8022 33.281 57.0318 36.9504 57.9662C38.1736 58.2777 39.7025 56.4088 40.314 52.9826C40.9256 49.5563 41.0038 40.854 43.5 36.9993C44.2107 35.9018 45.5 35.5001 47 35.9989C49 36.8851 49.2871 39.5992 49.4876 40.212C50.9146 44.5728 50.7107 50.4909 54.6859 52.3597C56.2149 52.6712 56.8264 51.7368 57.438 50.4909C58.0496 49.245 58.3554 43.9498 62.9422 43.9498H66" stroke="#FFF564" stroke-width="3" stroke-linecap="round"/>
</svg>
