<svg width="96" height="96" viewBox="0 0 96 96" fill="none" xmlns="http://www.w3.org/2000/svg">
<path fill-rule="evenodd" clip-rule="evenodd" d="M29 12C26.7909 12 25 13.7909 25 16V17.1138C24.7915 17.0401 24.5671 17 24.3333 17H14C12.8954 17 12 17.8925 12 18.9971V35.0015C12 37.0588 12.5333 40.1448 13.6 42.7164C16.4422 48.4724 21.7695 51.3531 26.271 52.7774C28.9952 59.694 35.253 64.9481 42.9336 66.5159V71.386C34.367 72.8617 28 78.397 28 85H48.5541H67C67 78.7976 61.3821 73.5372 53.6003 71.6987V66.2721C60.7655 64.4596 66.5578 59.4062 69.1679 52.8465C74.009 51.4236 79.9715 48.4596 82.4372 42.7164C83.4791 40.1448 84 37.0588 84 35.0015V18.9971C84 17.8925 83.1046 17 82 17H71.0233C71.0155 17 71.0077 17 71 17.0001V16C71 13.7909 69.2091 12 67 12H29ZM71 22.1432V46H70.6438C70.6187 46.5431 70.5731 47.0811 70.5077 47.6133C77.1316 44.8201 79.1538 39.5518 79.3116 37.0588V24.1433C79.3116 23.0387 78.4162 22.1433 77.3116 22.1433H71.0233C71.0155 22.1433 71.0077 22.1432 71 22.1432ZM24.3333 22.1433C24.5671 22.1433 24.7915 22.1032 25 22.0295V42.0949C24.868 43.0496 24.7998 44.0235 24.7998 45.0128C24.7998 45.7562 24.8383 46.4911 24.9135 47.2155C18.8468 44.3446 16.9542 39.4379 16.8 37.0588V24.1433C16.8 23.0387 17.6954 22.1433 18.8 22.1433H24.3333Z" fill="#11957D"/>
<path d="M46.2718 27.6089L43.8524 31.8546L38.3222 32.8344C37.6309 32.9433 36.4558 33.4876 37.2853 34.7939C38.1148 35.5778 40.6264 37.7332 41.7785 38.713L40.7416 43.9384C40.5111 44.8093 40.4651 46.4205 42.1241 45.898C43.7832 45.3754 46.7326 43.7207 47.9999 42.9587L52.4932 45.5714C53.2996 46.0068 55.0509 46.4205 55.6039 44.5916V44.0938L55.5 43.5L55.3187 42.6085L54.2214 38.3864C55.3735 37.5155 57.8852 35.5778 58.7147 34.7939C59.5442 33.4876 58.3691 32.7256 57.6778 32.5078L51.802 32.1812C51.1107 30.6571 49.659 27.4783 49.3825 26.9557C48.0603 24.9727 46.7327 26.5203 46.2718 27.6089Z" fill="#FFF564"/>
</svg>
