<svg width="96" height="96" viewBox="0 0 96 96" fill="none" xmlns="http://www.w3.org/2000/svg">
<path fill-rule="evenodd" clip-rule="evenodd" d="M27.2073 23.6135C27.4852 24.333 27.8277 25.0207 28.2004 25.6641C25.1448 26.9523 23 29.9756 23 33.4999C23 36.1019 24.1691 38.4308 26.0108 39.99C19.9324 44.5505 16 51.816 16 59.9999C16 73.807 27.1929 84.9999 41 84.9999H54C67.8071 84.9999 79 73.807 79 59.9999C79 51.816 75.0676 44.5505 68.9892 39.99C70.8309 38.4308 72 36.1019 72 33.4999C72 29.6924 69.4966 26.4697 66.046 25.3878C67.9511 21.2487 67.9461 17.4002 66.2745 14.7134C65.1961 12.98 63.4726 11.8537 61.3891 11.5868C59.3315 11.3233 57.046 11.9084 54.7594 13.3304C50.8034 15.7907 48.3265 16.136 46.477 15.8294C45.5179 15.6704 44.6328 15.3214 43.6961 14.8554C43.2245 14.6209 42.7564 14.3653 42.2542 14.091L42.2539 14.0909C41.76 13.8212 41.2339 13.5339 40.6865 13.2616C38.5787 12.2129 36.2489 11.314 33.9284 11.5332C31.4624 11.7661 29.3429 13.2138 27.6125 16.0836C26.0507 18.6737 26.3443 21.3793 27.2073 23.6135ZM28.9291 41.6042C29.7402 41.8612 30.6039 41.9999 31.5 41.9999H63.5C64.3961 41.9999 65.2598 41.8612 66.0709 41.6042C72.0516 45.5366 76 52.3071 76 59.9999C76 72.1502 66.1503 81.9999 54 81.9999H41C28.8497 81.9999 19 72.1502 19 59.9999C19 52.3071 22.9484 45.5366 28.9291 41.6042Z" fill="#11957D"/>
<ellipse cx="46.999" cy="59.5" rx="30" ry="24.5" fill="#11957D"/>
<path d="M39.0869 52.3789L43.3346 65.2759" stroke="#FFF564" stroke-width="3" stroke-linecap="round"/>
<path d="M48.2012 52.2168L52.4489 65.1138" stroke="#FFF564" stroke-width="3" stroke-linecap="round"/>
<path d="M56.4414 52.0742L52.6483 65.1137" stroke="#FFF564" stroke-width="3" stroke-linecap="round"/>
<path d="M47.334 52.2344L43.5409 65.2738" stroke="#FFF564" stroke-width="3" stroke-linecap="round"/>
<path d="M36.4355 57.957L40.0774 57.8925" stroke="#FFF564" stroke-width="3" stroke-linecap="round"/>
<path d="M55.3906 57.957L59.0325 57.8925" stroke="#FFF564" stroke-width="3" stroke-linecap="round"/>
</svg>
