<svg width="48" height="48" viewBox="0 0 48 48" fill="none" xmlns="http://www.w3.org/2000/svg">
<mask id="path-1-inside-1_2190_16464" fill="white">
<path fill-rule="evenodd" clip-rule="evenodd" d="M12 4C7.58172 4 4 7.58172 4 12V34C4 38.4183 7.58172 42 12 42H36C36.568 42 37.1221 41.9408 37.6566 41.8283L40 43C41.1667 43.5 43.6 44.1 44 42.5V34V30V26V22V18V12C44 7.58172 40.4183 4 36 4H12Z"/>
</mask>
<path d="M37.6566 41.8283L38.9982 39.145L38.0623 38.6771L37.0384 38.8926L37.6566 41.8283ZM40 43L38.6584 45.6833L38.7372 45.7227L38.8182 45.7574L40 43ZM44 42.5L46.9104 43.2276L47 42.8693V42.5H44ZM7 12C7 9.23858 9.23858 7 12 7V1C5.92487 1 1 5.92487 1 12H7ZM7 34V12H1V34H7ZM12 39C9.23858 39 7 36.7614 7 34H1C1 40.0751 5.92487 45 12 45V39ZM36 39H12V45H36V39ZM37.0384 38.8926C36.706 38.9626 36.359 39 36 39V45C36.7769 45 37.5382 44.919 38.2747 44.7639L37.0384 38.8926ZM41.3416 40.3167L38.9982 39.145L36.3149 44.5116L38.6584 45.6833L41.3416 40.3167ZM41.0896 41.7724C41.1341 41.5944 41.2292 41.3671 41.4059 41.1432C41.5816 40.9205 41.7841 40.7692 41.9616 40.6747C42.2759 40.5076 42.4636 40.5399 42.3341 40.5379C42.235 40.5363 42.0512 40.5143 41.8019 40.4508C41.5614 40.3895 41.3377 40.3094 41.1818 40.2426L38.8182 45.7574C39.5984 46.0918 40.9017 46.5163 42.2409 46.5371C42.9156 46.5476 43.8595 46.4612 44.779 45.9721C45.8142 45.4216 46.5997 44.4707 46.9104 43.2276L41.0896 41.7724ZM41 34V42.5H47V34H41ZM41 30V34H47V30H41ZM41 26V30H47V26H41ZM41 22V26H47V22H41ZM41 18V22H47V18H41ZM41 12V18H47V12H41ZM36 7C38.7614 7 41 9.23858 41 12H47C47 5.92487 42.0751 1 36 1V7ZM12 7H36V1H12V7Z" fill="#333333" mask="url(#path-1-inside-1_2190_16464)"/>
<rect x="17" y="15" width="4" height="8" rx="2" fill="#11957D"/>
<rect x="28" y="15" width="4" height="8" rx="2" fill="#11957D"/>
<path d="M44 23C43 23.4785 42 23.4785 41 23V29C42 28.625 43 28.625 44 29V23Z" fill="#F9FAFC"/>
</svg>
