<svg width="48" height="48" viewBox="0 0 48 48" fill="none" xmlns="http://www.w3.org/2000/svg">
<rect x="9.5" y="20.5" width="30" height="19" rx="4.5" stroke="#333333" stroke-width="3"/>
<path d="M21 41C20.4417 40 20.4417 39 21 38L14 38C14.4375 39 14.4375 40 14 41L21 41Z" fill="#F9FAFC"/>
<path d="M42 18H6L6.5 23.5L9 25.5L14.5 24.5L17.5 21L18.5 22.5L22 25C23.3333 25 26.2 24.9 27 24.5C27.8 24.1 29.3333 22 30 21L31 22C32.1667 23 34.8 25.1 36 25.5C37.5 26 41.5 24.5 42 23.5C42.4 22.7 42.1667 19.5 42 18Z" fill="#11957D"/>
<mask id="path-4-inside-1_2190_16399" fill="white">
<path fill-rule="evenodd" clip-rule="evenodd" d="M8.44965 9.7965C9.0877 8.34298 10.5249 7.4043 12.1123 7.4043H35.5977C37.076 7.4043 38.4338 8.21969 39.1285 9.52464L42.2255 15.3423C43.3292 16.5796 44 18.2115 44 20C44 23.866 40.866 27 37 27C34.0539 27 31.5329 25.18 30.5 22.6031C29.467 25.18 26.9461 27 24 27C21.0539 27 18.5329 25.18 17.5 22.6031C16.467 25.18 13.9461 27 11 27C7.13401 27 4 23.866 4 20C4 17.9859 4.85065 16.1704 6.21229 14.8933L8.44965 9.7965ZM29.1815 31.9241C29.6919 31.2716 29.5766 30.3288 28.9241 29.8185C28.2716 29.3081 27.3288 29.4234 26.8185 30.0759C25.7522 31.4392 24.8195 31.5751 24.1574 31.4736C23.3471 31.3493 22.5706 30.7999 22.122 30.2943C21.5722 29.6746 20.6241 29.618 20.0045 30.1678C19.3848 30.7176 19.3282 31.6657 19.878 32.2853C20.6294 33.1322 21.9929 34.1767 23.7026 34.4389C25.5605 34.7238 27.5278 34.0386 29.1815 31.9241Z"/>
</mask>
<path d="M8.44965 9.7965L5.70266 8.59065L5.70266 8.59065L8.44965 9.7965ZM39.1285 9.52464L36.4804 10.9344V10.9344L39.1285 9.52464ZM42.2255 15.3423L39.5774 16.752L39.7468 17.0702L39.9867 17.3392L42.2255 15.3423ZM30.5 22.6031L33.2846 21.4869L30.5 14.5399L27.7154 21.4869L30.5 22.6031ZM17.5 22.6031L20.2846 21.4869L17.5 14.54L14.7154 21.4869L17.5 22.6031ZM6.21229 14.8933L8.26459 17.0815L8.71246 16.6614L8.95927 16.0992L6.21229 14.8933ZM28.9241 29.8185L27.0759 32.1815L27.0759 32.1815L28.9241 29.8185ZM29.1815 31.9241L26.8185 30.0759L26.8185 30.0759L29.1815 31.9241ZM26.8185 30.0759L29.1815 31.9241L26.8185 30.0759ZM24.1574 31.4736L23.7026 34.4389L23.7027 34.4389L24.1574 31.4736ZM22.122 30.2943L24.366 28.3032L24.366 28.3032L22.122 30.2943ZM20.0045 30.1678L21.9955 32.4118L21.9955 32.4118L20.0045 30.1678ZM19.878 32.2853L17.634 34.2764L17.634 34.2764L19.878 32.2853ZM23.7026 34.4389L24.1574 31.4736L23.7026 34.4389ZM12.1123 4.4043C9.33435 4.4043 6.81926 6.04699 5.70266 8.59065L11.1966 11.0023C11.3561 10.639 11.7154 10.4043 12.1123 10.4043V4.4043ZM35.5977 4.4043H12.1123V10.4043H35.5977V4.4043ZM41.7767 8.1149C40.5609 5.83123 38.1848 4.4043 35.5977 4.4043V10.4043C35.9673 10.4043 36.3067 10.6081 36.4804 10.9344L41.7767 8.1149ZM44.8737 13.9325L41.7767 8.1149L36.4804 10.9344L39.5774 16.752L44.8737 13.9325ZM47 20C47 17.4469 46.0393 15.111 44.4644 13.3453L39.9867 17.3392C40.6192 18.0482 41 18.976 41 20H47ZM37 30C42.5228 30 47 25.5228 47 20H41C41 22.2091 39.2091 24 37 24V30ZM27.7154 23.7193C29.1888 27.3952 32.7866 30 37 30V24C35.3213 24 33.877 22.9649 33.2846 21.4869L27.7154 23.7193ZM24 30C28.2134 30 31.8111 27.3952 33.2846 23.7193L27.7154 21.4869C27.1229 22.9649 25.6787 24 24 24V30ZM14.7154 23.7193C16.1888 27.3952 19.7866 30 24 30V24C22.3213 24 20.877 22.9649 20.2846 21.4869L14.7154 23.7193ZM11 30C15.2134 30 18.8111 27.3952 20.2846 23.7193L14.7154 21.4869C14.1229 22.9649 12.6787 24 11 24V30ZM1 20C1 25.5228 5.47715 30 11 30V24C8.79086 24 7 22.2091 7 20H1ZM4.15998 12.7052C2.21895 14.5257 1 17.1229 1 20H7C7 18.8489 7.48235 17.8152 8.26459 17.0815L4.15998 12.7052ZM5.70266 8.59065L3.4653 13.6875L8.95927 16.0992L11.1966 11.0023L5.70266 8.59065ZM27.0759 32.1815C26.4234 31.6712 26.3081 30.7284 26.8185 30.0759L31.5446 33.7723C33.0757 31.8147 32.7299 28.9865 30.7723 27.4554L27.0759 32.1815ZM29.1815 31.9241C28.6712 32.5766 27.7284 32.6919 27.0759 32.1815L30.7723 27.4554C28.8147 25.9243 25.9865 26.2701 24.4554 28.2277L29.1815 31.9241ZM23.7027 34.4389C24.476 34.5575 25.4565 34.5345 26.5139 34.0833C27.5394 33.6457 28.42 32.8978 29.1815 31.9241L24.4554 28.2277C24.1507 28.6173 24.0318 28.619 24.1589 28.5648C24.2207 28.5384 24.3055 28.5145 24.4034 28.5047C24.4978 28.4952 24.5719 28.5021 24.6121 28.5082L23.7027 34.4389ZM19.878 32.2853C20.6318 33.135 21.9956 34.1771 23.7026 34.4389L24.6121 28.5082C24.6636 28.5161 24.6821 28.5255 24.6671 28.5195C24.6526 28.5138 24.6206 28.4991 24.5753 28.4713C24.5305 28.4437 24.4846 28.4106 24.4429 28.3756C24.4004 28.3399 24.3746 28.3129 24.366 28.3032L19.878 32.2853ZM21.9955 32.4118C21.3759 32.9616 20.4278 32.905 19.878 32.2853L24.366 28.3032C22.7166 26.4442 19.8724 26.2743 18.0134 27.9238L21.9955 32.4118ZM22.122 30.2943C22.6718 30.914 22.6152 31.862 21.9955 32.4118L18.0134 27.9238C16.1544 29.5732 15.9845 32.4174 17.634 34.2764L22.122 30.2943ZM24.1574 31.4736C23.3486 31.3496 22.572 30.8014 22.122 30.2943L17.634 34.2764C18.6868 35.463 20.6371 37.0039 23.2479 37.4042L24.1574 31.4736ZM26.8185 30.0759C25.7498 31.4423 24.8159 31.5746 24.1574 31.4736L23.2479 37.4042C26.305 37.873 29.3058 36.6349 31.5446 33.7723L26.8185 30.0759Z" fill="#333333" mask="url(#path-4-inside-1_2190_16399)"/>
</svg>
