<svg width="48" height="48" viewBox="0 0 48 48" fill="none" xmlns="http://www.w3.org/2000/svg">
<mask id="path-1-inside-1_2190_16616" fill="white">
<path d="M4 12C4 7.58172 7.58172 4 12 4H36C40.4183 4 44 7.58172 44 12V16.8947V20.5789V24.2632V31C44 35.4183 40.4183 39 36 39H12C7.58172 39 4 35.4183 4 31V12Z"/>
</mask>
<path d="M12 7H36V1H12V7ZM36 36H12V42H36V36ZM7 31V12H1V31H7ZM41 12V16.8947H47V12H41ZM41 24.2632V31H47V24.2632H41ZM41 16.8947V20.5789H47V16.8947H41ZM41 20.5789V24.2632H47V20.5789H41ZM12 36C9.23858 36 7 33.7614 7 31H1C1 37.0751 5.92487 42 12 42V36ZM36 42C42.0751 42 47 37.0751 47 31H41C41 33.7614 38.7614 36 36 36V42ZM36 7C38.7614 7 41 9.23858 41 12H47C47 5.92487 42.0751 1 36 1V7ZM12 1C5.92487 1 1 5.92487 1 12H7C7 9.23858 9.23858 7 12 7V1Z" fill="#333333" mask="url(#path-1-inside-1_2190_16616)"/>
<rect x="13" y="41" width="22" height="3" rx="1.5" fill="#333333"/>
<path d="M29.75 20.201C30.75 20.7783 30.75 22.2217 29.75 22.799L23 26.6962C22 27.2735 20.75 26.5518 20.75 25.3971L20.75 17.6029C20.75 16.4482 22 15.7265 23 16.3038L29.75 20.201Z" fill="#11957D"/>
</svg>
