<svg width="96" height="96" viewBox="0 0 96 96" fill="none" xmlns="http://www.w3.org/2000/svg">
<ellipse cx="58.5" cy="38" rx="27.5" ry="28" fill="#FFF564"/>
<ellipse cx="41" cy="54.5" rx="31" ry="31.5" fill="#11957D"/>
<path d="M35.594 51.668H32.149V60.17H29.783V51.668H26.338V49.575H35.594V51.668ZM41.8146 58.116H37.7066L36.9656 60.17H34.5216L38.6296 49.575H41.0866L45.1946 60.17H42.5556L41.8146 58.116ZM41.0866 56.062L39.7606 52.37L38.4346 56.062H41.0866ZM49.0762 54.827L45.6832 49.575H48.4912L50.6232 53.033L52.8202 49.575H55.5112L52.1052 54.749L55.6282 60.17H52.8592L50.5842 56.517L48.2572 60.17H45.5662L49.0762 54.827Z" fill="white"/>
</svg>
