<svg width="96" height="96" viewBox="0 0 96 96" fill="none" xmlns="http://www.w3.org/2000/svg">
<path d="M52.1235 13.5704L60.3052 30.2109C60.9759 31.574 62.2675 32.5142 63.7642 32.7312L82.0622 35.4017C85.8316 35.9525 87.3338 40.598 84.6066 43.2685L71.3639 56.226C70.283 57.2831 69.7896 58.8131 70.0446 60.3041L73.171 78.597C73.814 82.3635 69.8783 85.2343 66.508 83.4596L50.139 74.825C48.8031 74.1184 47.2011 74.1184 45.8652 74.825L29.4962 83.4596C26.1259 85.2399 22.1847 82.3635 22.8332 78.597L25.9596 60.3041C26.2146 58.8075 25.7213 57.2831 24.6403 56.226L11.3921 43.2685C8.66485 40.6036 10.1726 35.9525 13.9364 35.4017L32.2345 32.7312C33.7312 32.5142 35.0227 31.5684 35.6934 30.2109L43.8752 13.5704C45.5603 10.1432 50.4273 10.1432 52.1124 13.5704H52.1235Z" fill="#11957D"/>
<path d="M39 52C41.88 55.0185 49.512 59.2444 57 52" stroke="#FFF564" stroke-width="3" stroke-linecap="round"/>
</svg>
