<svg width="48" height="48" viewBox="0 0 48 48" fill="none" xmlns="http://www.w3.org/2000/svg">
<path d="M22.8792 11.9141L24.0166 13.2214L25.1474 11.9085C27.0182 9.73639 29.6966 8.5 32.5115 8.5C37.9786 8.5 42.5 13.1148 42.5 18.942V18.9591C42.5 20.1748 42.5001 22.2855 40.9553 25.1876C39.3823 28.1426 36.1417 32.0337 29.3982 36.5651L29.3972 36.5658L24.0094 40.1928L18.6018 36.5651C18.6015 36.5649 18.6012 36.5647 18.6008 36.5645C11.858 32.0333 8.61759 28.1424 7.04474 25.1876C5.49991 22.2855 5.49997 20.1748 5.5 18.9591L5.5 18.942C5.5 13.1165 10.0392 8.5 15.4885 8.5C18.3022 8.5 20.984 9.73571 22.8792 11.9141Z" stroke="#333333" stroke-width="3"/>
<path d="M26.5 13L24 10C25.2 8.4 27.6667 7.33333 28.5 7L30 10.5C28 11.7 26.8333 12.5 26.5 13Z" fill="#F9FAFC"/>
<path d="M18.0396 22.6718C19.9116 24.376 24.7167 26.6888 28.9601 22.3066" stroke="#11957D" stroke-width="3" stroke-linecap="round"/>
</svg>
