<svg width="48" height="48" viewBox="0 0 48 48" fill="none" xmlns="http://www.w3.org/2000/svg">
<path d="M31 34L17 34" stroke="#11957D" stroke-width="3" stroke-miterlimit="10" stroke-linecap="round" stroke-linejoin="round"/>
<path d="M24.01 5.79545C24.8304 5.79545 25.6108 6.075 26.2111 6.59682L26.2911 6.67136L26.3712 6.74591L40.078 17.0332C40.6783 17.5736 41.0185 18.3377 41.0185 19.1018V38.2414C41.0185 39.8627 39.5778 41.1859 37.8169 41.1859H10.2231C8.46223 41.1859 7.02151 39.8627 7.02151 38.2414V19.1205C7.02151 18.3377 7.36168 17.5923 7.96198 17.0518L21.6688 6.76455L21.7489 6.69L21.8289 6.61545C22.4092 6.075 23.1896 5.79545 24.01 5.79545ZM24.01 3C22.4692 3 20.9485 3.52182 19.7479 4.56545L5.94097 14.9273C4.72036 16.0268 4 17.5364 4 19.1205V38.26C4 41.4282 6.78139 44 10.2031 44H37.7969C41.2186 44 44 41.4282 44 38.26V19.1205C44 17.5364 43.2996 16.0268 42.059 14.9459L28.2521 4.58409C27.0915 3.52182 25.5508 3 24.01 3Z" fill="#333333"/>
</svg>
