<svg width="164" height="32" viewBox="0 0 164 32" fill="none" xmlns="http://www.w3.org/2000/svg">
<g clip-path="url(#clip0_2190_26818)">
<path d="M55.4846 10.4805V22.1819C55.4846 25.3011 57.3802 27.0479 60.3525 27.5291C61.5094 27.7163 65.2827 27.8232 66.7867 27.4489V23.9198C64.8378 24.3297 62.1324 24.1871 60.9755 23.8485C60.0766 23.5811 59.4804 22.8325 59.4804 21.8611V10.4805H55.4846Z" fill="#004EA2"/>
<path d="M73.7637 13.5996C69.4297 13.5996 66.4485 16.799 66.4485 20.747C66.4485 24.695 68.9937 27.8944 73.7637 27.8944C78.5337 27.8944 81.0789 24.695 81.0789 20.747C81.0789 16.799 78.0976 13.5996 73.7637 13.5996ZM73.7637 24.3564C71.6635 24.3564 70.5066 22.7433 70.5066 20.747C70.5066 18.7507 71.708 17.1377 73.7637 17.1377C75.8194 17.1377 77.0119 18.7597 77.0119 20.747C77.0119 22.7344 75.855 24.3564 73.7637 24.3564Z" fill="#00A0D2"/>
<path d="M106.273 13.5996C101.939 13.5996 98.9575 16.799 98.9575 20.747C98.9575 24.695 101.503 27.8944 106.273 27.8944C111.043 27.8944 113.588 24.695 113.588 20.747C113.588 16.799 110.607 13.5996 106.273 13.5996ZM106.273 24.3564C104.181 24.3564 103.024 22.7433 103.024 20.747C103.024 18.7507 104.226 17.1377 106.273 17.1377C108.32 17.1377 109.521 18.7597 109.521 20.747C109.521 22.7344 108.364 24.3564 106.273 24.3564Z" fill="#8FC31F"/>
<path d="M97.3111 24.4625C96.6081 24.4269 95.8961 24.3467 95.8961 23.7585V17.2438H99.3846V13.7414H95.816V10.4707H91.8914V13.7414H86.9701V10.4707H83.0456V13.7414H80.5894V17.2438H83.0456V24.5784C83.0456 27.0381 85.484 27.5193 86.7477 27.653C87.9758 27.7867 89.9959 27.5817 90.8591 27.4124V24.1417C90.2451 24.3378 88.8924 24.4714 88.4563 24.4625C87.7533 24.4269 87.0413 24.3467 87.0413 23.7585V17.2438H91.8914V24.5784C91.8914 27.0381 94.3298 27.5193 95.5846 27.653C96.8216 27.7867 98.6104 27.6174 99.3935 27.4391V24.1684C98.8685 24.3645 97.7383 24.4714 97.3022 24.4536L97.3111 24.4625Z" fill="#004EA2"/>
<path d="M126.038 16.8164L121.224 28.001H122.719L127.542 16.8164H126.038Z" fill="#8FC31F"/>
<path d="M139.699 21.3074C139.049 20.6212 138.212 20.2736 137.198 20.2736C137.145 20.2736 137.073 20.2736 137.002 20.2736C136.931 20.2736 136.86 20.2825 136.78 20.2914L137.296 18.5625H140.517V17.0742H136.192L134.546 22.5907H135.071C135.587 21.9669 136.201 21.6639 136.904 21.6639C137.545 21.6639 138.07 21.8867 138.497 22.3234C138.924 22.7512 139.129 23.2948 139.129 23.9632C139.129 24.6316 138.915 25.1663 138.488 25.6297C138.061 26.0753 137.527 26.2981 136.895 26.2981C136.406 26.2981 135.997 26.1823 135.667 25.9595C135.329 25.7278 135 25.3356 134.671 24.7742L133.478 25.7902C134.279 27.0913 135.374 27.7419 136.762 27.7419C137.883 27.7419 138.818 27.3854 139.556 26.6724C140.304 25.9595 140.669 25.0505 140.669 23.9454C140.669 22.8403 140.339 22.0026 139.69 21.3163L139.699 21.3074Z" fill="#004EA2"/>
<path d="M120.672 21.9134C120.049 21.2629 119.319 20.9331 118.465 20.9331C118.411 20.9331 118.34 20.9331 118.242 20.9509C118.153 20.9509 118.029 20.9777 117.895 20.9866L120.823 17.0742H119.017L115.582 21.6817C114.896 22.6086 114.558 23.4909 114.558 24.3197C114.558 25.2465 114.905 26.0397 115.608 26.717C116.32 27.3854 117.157 27.7241 118.1 27.7241C119.043 27.7241 119.88 27.3854 120.565 26.6992C121.25 26.0129 121.597 25.1841 121.597 24.2306C121.597 23.3304 121.295 22.5551 120.681 21.9045L120.672 21.9134ZM119.471 25.7189C119.088 26.1021 118.625 26.2981 118.082 26.2981C117.539 26.2981 117.059 26.111 116.676 25.7189C116.293 25.3356 116.098 24.8722 116.098 24.3197C116.098 23.7671 116.293 23.3037 116.676 22.9205C117.059 22.5373 117.53 22.3412 118.082 22.3412C118.634 22.3412 119.097 22.5373 119.479 22.9205C119.862 23.3037 120.058 23.776 120.058 24.3286C120.058 24.8811 119.862 25.3178 119.479 25.7099L119.471 25.7189Z" fill="#004EA2"/>
<path d="M131.662 17.084H130.408L125.566 25.1761V26.0762H130.087V27.5645H131.662V26.0762H132.775V24.6414H131.662V17.084ZM130.087 24.6414H127.676L130.087 20.5329V24.6414Z" fill="#004EA2"/>
<path d="M37.1519 4.73045L36.1285 4.31159C35.995 4.25812 35.7814 4.25812 35.648 4.31159L34.6245 4.73045L33.6011 5.1404L33.3608 5.23844L34.0728 10.3985H37.7749L38.3978 5.23844L38.1575 5.1404L37.1341 4.72154L37.1519 4.73045Z" fill="url(#paint0_linear_2190_26818)"/>
<path d="M32.1061 4.73045L31.0827 4.31159C30.9492 4.25812 30.7356 4.25812 30.6021 4.31159L29.5787 4.73045L28.5553 5.14932C28.4218 5.20279 28.3684 5.35429 28.4307 5.47906L30.7356 10.4074H34.0817L33.3698 5.24735L33.1295 5.14932L32.1061 4.73936V4.73045Z" fill="url(#paint1_linear_2190_26818)"/>
<path d="M43.2125 5.15017L42.1891 4.74022L41.1746 4.32135C41.0411 4.26788 40.8275 4.26788 40.694 4.32135L39.6706 4.74022L38.6472 5.15017L38.4069 5.2482L37.7839 10.4082H41.1301L43.346 5.48883C43.4083 5.35515 43.346 5.21255 43.2125 5.15017Z" fill="url(#paint2_linear_2190_26818)"/>
<path d="M34.0819 10.5684H30.6556L24.1681 16.985C22.9133 18.2059 23.1535 19.8547 24.1681 20.9419L29.5966 27.3318C29.6856 27.4388 29.8191 27.5279 29.9615 27.5992L34.0819 10.7733V10.5684Z" fill="url(#paint3_linear_2190_26818)"/>
<path d="M47.6177 20.9517C48.6322 19.8555 48.8725 18.2068 47.6177 16.9948L41.1301 10.5781H37.8374L41.8332 27.6089C41.9756 27.5377 42.1091 27.4485 42.198 27.3416L47.6266 20.9517H47.6177Z" fill="url(#paint4_linear_2190_26818)"/>
<path d="M41.8242 27.6089L37.8284 10.5781H34.1352L29.9614 27.6089C30.1216 27.6892 30.2996 27.7337 30.4509 27.7337H41.3436C41.4949 27.7337 41.6729 27.6802 41.8331 27.6089H41.8242Z" fill="url(#paint5_linear_2190_26818)"/>
<path d="M45.0991 23.9102H26.6865L29.5966 27.3324C29.6856 27.4393 29.8191 27.5284 29.9615 27.5997C30.1216 27.6799 30.2996 27.7245 30.4509 27.7245H41.3436C41.4949 27.7245 41.6729 27.671 41.8331 27.5997C41.9755 27.5284 42.109 27.4393 42.198 27.3324L45.108 23.9102H45.0991Z" fill="url(#paint6_linear_2190_26818)"/>
<path d="M42.8299 9.69336H30.8604C30.4243 9.69336 30.0684 10.0498 30.0684 10.4865C30.0684 10.9232 30.4243 11.2797 30.8604 11.2797H42.8299" fill="white"/>
<path d="M42.8298 11.6452H30.8603C30.2195 11.6452 29.7034 11.1283 29.7034 10.4867C29.7034 9.84502 30.2195 9.32812 30.8603 9.32812H42.8298V10.0589H30.8603C30.62 10.0589 30.4331 10.2461 30.4331 10.4867C30.4331 10.7273 30.62 10.9145 30.8603 10.9145H42.8298V11.6452Z" fill="#005083"/>
<path d="M30.896 23.8027H26.5977L26.7845 24.0255H30.8337L30.896 23.8027Z" fill="url(#paint7_linear_2190_26818)"/>
<path d="M40.9878 24.0255H45.0014L45.1883 23.8027H40.9255L40.9878 24.0255Z" fill="url(#paint8_linear_2190_26818)"/>
<path d="M30.8959 23.8027L30.8425 24.0255H40.9877L40.9254 23.8027H30.8959Z" fill="url(#paint9_linear_2190_26818)"/>
<path d="M50.8658 7.17267C50.8658 8.91942 49.4508 10.3453 47.6977 10.3453C45.9445 10.3453 44.5295 8.92833 44.5295 7.17267C44.5295 5.41701 45.9445 4 47.6977 4C49.4508 4 50.8658 5.41701 50.8658 7.17267Z" fill="#005083"/>
<path d="M50.1626 7.16308C50.1626 8.53553 49.0591 9.64062 47.6886 9.64062C46.3181 9.64062 45.2146 8.53553 45.2146 7.16308C45.2146 5.79063 46.327 4.68555 47.6886 4.68555C49.0502 4.68555 50.1626 5.79063 50.1626 7.16308Z" fill="#009944"/>
<path d="M47.0479 6.56634C46.4339 7.32386 46.3004 7.47536 45.8287 7.54666C45.5173 7.59122 45.366 7.32386 45.366 6.94064C45.366 6.55743 45.5084 6.06727 45.7931 5.66623C46.1224 5.19389 46.6297 4.93544 47.0835 4.87306C47.5374 4.81068 47.9468 4.93544 48.0624 5.23845C48.2315 5.67514 47.4573 6.06727 47.0479 6.56634Z" fill="#009944"/>
<path d="M45.8022 5.67493C46.1226 5.21151 46.6298 4.95306 47.0837 4.89068C47.5375 4.8283 47.938 4.95306 48.0537 5.24716C48.2228 5.68385 47.4575 6.06706 47.057 6.55722C46.4518 7.30583 46.3183 7.45733 45.8556 7.51972C45.5441 7.56428 45.3928 7.29692 45.3928 6.92261C45.3928 6.54831 45.5352 6.05815 45.8111 5.66602L45.8022 5.67493Z" fill="#009A45"/>
<path d="M45.8111 5.67579C46.1315 5.22128 46.6298 4.96283 47.0748 4.90045C47.5198 4.83806 47.9202 4.96283 48.027 5.25692C48.1872 5.6847 47.4397 6.06792 47.0392 6.54916C46.4429 7.28886 46.3005 7.43145 45.8467 7.50275C45.5441 7.54731 45.3928 7.28886 45.3928 6.91456C45.3928 6.54025 45.5352 6.059 45.8022 5.67579H45.8111Z" fill="#009B46"/>
<path d="M45.8109 5.67473C46.1223 5.22022 46.6207 4.97068 47.0568 4.9083C47.4928 4.84592 47.8844 4.97068 48.0001 5.25587C48.1603 5.67473 47.4216 6.04904 47.0301 6.5392C46.4427 7.26107 46.3003 7.41257 45.8554 7.48387C45.5528 7.52843 45.4104 7.26998 45.4104 6.90459C45.4104 6.5392 45.5528 6.06686 45.8198 5.68364L45.8109 5.67473Z" fill="#009C47"/>
<path d="M45.8198 5.67429C46.1312 5.22869 46.6118 4.97915 47.0479 4.91677C47.4839 4.85438 47.8666 4.97024 47.9823 5.26433C48.1425 5.67429 47.4127 6.04859 47.0212 6.52984C46.4427 7.2428 46.3003 7.3943 45.8554 7.45668C45.5528 7.50124 45.4104 7.2428 45.4104 6.88632C45.4104 6.52984 45.5439 6.0575 45.8109 5.67429H45.8198Z" fill="#009C48"/>
<path d="M45.8288 5.67519C46.1314 5.2385 46.612 4.98896 47.048 4.92658C47.4841 4.8642 47.8579 4.98005 47.9646 5.26524C48.1248 5.66628 47.404 6.04058 47.0213 6.51291C46.4429 7.21696 46.3094 7.36847 45.8733 7.43085C45.5796 7.47541 45.4373 7.22587 45.4373 6.86939C45.4373 6.51292 45.5707 6.04949 45.8377 5.67519H45.8288Z" fill="#009D49"/>
<path d="M45.8376 5.67604C46.1402 5.23935 46.6119 4.99873 47.039 4.93635C47.4662 4.87396 47.84 4.98982 47.9468 5.275C48.098 5.67604 47.395 6.04143 47.0123 6.50486C46.4428 7.19999 46.3004 7.3515 45.8732 7.41388C45.5795 7.45844 45.4461 7.2089 45.4372 6.85242C45.4283 6.49594 45.5706 6.04143 45.8287 5.67604H45.8376Z" fill="#009E4A"/>
<path d="M45.8465 5.67499C46.1491 5.24721 46.6119 5.00659 47.0301 4.94421C47.4484 4.88182 47.8222 4.99768 47.929 5.27395C48.0803 5.66608 47.3861 6.03147 47.0123 6.48598C46.4517 7.16329 46.3093 7.3148 45.891 7.38609C45.6063 7.43065 45.4639 7.18112 45.4639 6.83355C45.4639 6.48598 45.5974 6.03147 45.8465 5.67499Z" fill="#009F4C"/>
<path d="M45.8553 5.67551C46.149 5.24773 46.6118 5.01602 47.0211 4.96255C47.4305 4.90907 47.7954 5.01602 47.9022 5.29229C48.0534 5.67551 47.3682 6.0409 46.9944 6.4865C46.4427 7.1549 46.3003 7.3064 45.8909 7.36878C45.6061 7.41334 45.4727 7.17272 45.4727 6.82515C45.4727 6.47758 45.6061 6.0409 45.8553 5.67551Z" fill="#00A04D"/>
<path d="M45.8643 5.67445C46.158 5.25558 46.6118 5.02387 47.0123 4.9704C47.4128 4.91693 47.7776 5.02387 47.8844 5.29123C48.0268 5.66553 47.3594 6.02201 46.9945 6.46761C46.4516 7.1271 46.3004 7.27861 45.8999 7.34099C45.624 7.38555 45.4905 7.14493 45.4816 6.80627C45.4727 6.46761 45.6062 6.03093 45.8554 5.67445H45.8643Z" fill="#00A14E"/>
<path d="M45.8732 5.6753C46.1579 5.26535 46.6118 5.03364 47.0123 4.98016C47.4127 4.92669 47.7687 5.03364 47.8755 5.301C48.0179 5.6753 47.3594 6.02287 46.9945 6.46847C46.4605 7.11904 46.3092 7.27055 45.9177 7.33293C45.6418 7.37749 45.5083 7.13687 45.5083 6.80712C45.5083 6.47738 45.6329 6.04069 45.8821 5.69312L45.8732 5.6753Z" fill="#00A250"/>
<path d="M45.8822 5.67424C46.167 5.26429 46.603 5.04149 47.0035 4.98802C47.404 4.93455 47.7511 5.04149 47.8489 5.29994C47.9913 5.66533 47.3417 6.0129 46.9857 6.44959C46.4607 7.08234 46.3094 7.24275 45.9178 7.29623C45.6419 7.34079 45.5173 7.10016 45.5173 6.77933C45.5173 6.4585 45.6419 6.02181 45.8822 5.67424Z" fill="#00A351"/>
<path d="M45.891 5.6751C46.1669 5.27406 46.6029 5.05126 46.9945 4.99778C47.3861 4.94431 47.7331 5.05126 47.831 5.3097C47.9645 5.66618 47.3327 6.01375 46.9767 6.44153C46.4605 7.06537 46.3093 7.22578 45.9266 7.27925C45.6596 7.3149 45.5261 7.0921 45.5261 6.76236C45.5261 6.43262 45.6507 6.01375 45.891 5.6751Z" fill="#00A452"/>
<path d="M45.8999 5.67599C46.1758 5.28386 46.603 5.06106 46.9856 5.00759C47.3683 4.95412 47.7154 5.06106 47.8133 5.3106C47.9467 5.65817 47.3238 6.00574 46.9767 6.4246C46.4695 7.03953 46.3093 7.19103 45.9355 7.25341C45.6685 7.28906 45.5439 7.06626 45.5439 6.74543C45.5439 6.4246 45.6685 6.01465 45.8999 5.67599Z" fill="#00A553"/>
<path d="M45.9088 5.67489C46.1758 5.28276 46.603 5.06888 46.9857 5.0154C47.3683 4.96193 47.6976 5.06888 47.7955 5.31841C47.929 5.65707 47.3149 5.99572 46.9679 6.41459C46.4695 7.0206 46.3093 7.17211 45.9444 7.22558C45.6864 7.26123 45.5618 7.03843 45.5618 6.72651C45.5618 6.41459 45.6775 6.00464 45.9088 5.67489Z" fill="#00A755"/>
<path d="M45.9088 5.67579C46.1758 5.29257 46.5941 5.07869 46.9679 5.02521C47.3416 4.97174 47.6709 5.07869 47.7688 5.31931C47.9023 5.65796 47.2971 5.98771 46.959 6.39766C46.4695 6.98585 46.3093 7.14627 45.9444 7.19974C45.6864 7.23539 45.5618 7.0215 45.5618 6.70958C45.5618 6.39766 45.6775 5.99662 45.9088 5.66688V5.67579Z" fill="#00A856"/>
<path d="M45.9178 5.67535C46.1847 5.30105 46.5941 5.08716 46.959 5.03369C47.3238 4.98021 47.6531 5.07825 47.751 5.32778C47.8756 5.65753 47.2882 5.98727 46.9501 6.39722C46.4606 6.9765 46.3004 7.13692 45.9534 7.19039C45.7042 7.22604 45.5796 7.01215 45.5796 6.70914C45.5796 6.40613 45.6953 6.00509 45.9178 5.68426V5.67535Z" fill="#00A958"/>
<path d="M45.9265 5.6743C46.1846 5.3 46.594 5.09502 46.9499 5.04155C47.3059 4.98808 47.6352 5.08611 47.7242 5.32673C47.8488 5.64756 47.2703 5.97731 46.941 6.37835C46.4605 6.94871 46.3003 7.10913 45.9621 7.15369C45.7129 7.18934 45.5972 6.97545 45.5883 6.67244C45.5794 6.36943 45.704 5.97731 45.9265 5.66539V5.6743Z" fill="#00AA59"/>
<path d="M45.9355 5.67515C46.1936 5.30976 46.5851 5.10479 46.95 5.05131C47.3149 4.99784 47.6263 5.09587 47.7153 5.3365C47.8399 5.64842 47.2704 5.97816 46.9411 6.37029C46.4694 6.93174 46.3092 7.09216 45.9711 7.13672C45.7219 7.17237 45.6062 6.96739 45.6062 6.66438C45.6062 6.36138 45.7219 5.98707 45.9355 5.67515Z" fill="#00AB5A"/>
<path d="M45.9445 5.67606C46.1937 5.31066 46.5853 5.1146 46.9412 5.06113C47.2972 5.00766 47.5998 5.10569 47.6977 5.3374C47.8134 5.64041 47.2705 5.97015 46.9412 6.35337C46.4785 6.897 46.3183 7.05742 45.989 7.11089C45.7487 7.14654 45.6331 6.94156 45.6331 6.64746C45.6331 6.35337 45.7398 5.97906 45.9623 5.66714L45.9445 5.67606Z" fill="#09AC5C"/>
<path d="M45.9533 5.67461C46.2025 5.31813 46.5851 5.12207 46.9322 5.07751C47.2793 5.03295 47.5819 5.12207 47.6708 5.35378C47.7865 5.65678 47.2526 5.9687 46.9233 6.35192C46.4694 6.88664 46.3004 7.04706 45.98 7.10053C45.7397 7.13618 45.6329 6.9312 45.624 6.64602C45.6151 6.36083 45.7308 5.98653 45.9444 5.68352L45.9533 5.67461Z" fill="#1FAE5D"/>
<path d="M45.9621 5.6755C46.2024 5.32794 46.5851 5.13187 46.9232 5.08731C47.2614 5.04275 47.564 5.13187 47.653 5.35467C47.7687 5.64877 47.2436 5.96069 46.9232 6.33499C46.4783 6.8608 46.3092 7.02121 45.9977 7.06577C45.7663 7.10142 45.6506 6.90536 45.6506 6.62017C45.6506 6.33499 45.7574 5.9696 45.9621 5.6755Z" fill="#2CAF5F"/>
<path d="M45.9711 5.6744C46.2114 5.32684 46.5852 5.13968 46.9145 5.09512C47.2437 5.05056 47.5463 5.13968 47.6353 5.36248C47.7421 5.64767 47.2348 5.95959 46.9145 6.33389C46.4784 6.85079 46.3093 7.0112 45.9978 7.05576C45.7665 7.09141 45.6597 6.89535 45.6597 6.61908C45.6597 6.3428 45.7665 5.97741 45.9711 5.69223V5.6744Z" fill="#34B060"/>
<path d="M45.9801 5.6753C46.2114 5.33664 46.5852 5.14949 46.9145 5.10493C47.2438 5.06037 47.5374 5.14949 47.6175 5.36338C47.7243 5.63965 47.226 5.95157 46.9145 6.31696C46.4873 6.81603 46.3093 6.98536 46.0157 7.02992C45.7932 7.06557 45.6775 6.86951 45.6775 6.59323C45.6775 6.31696 45.7843 5.9694 45.9801 5.6753Z" fill="#3CB162"/>
<path d="M45.9889 5.6742C46.2202 5.34446 46.5851 5.1573 46.9055 5.11274C47.2259 5.06818 47.5195 5.1573 47.5996 5.37119C47.7064 5.64746 47.217 5.95047 46.9055 6.30695C46.4872 6.79711 46.3092 6.95753 46.0156 7.00209C45.7931 7.03773 45.6863 6.84167 45.6863 6.57431C45.6863 6.30695 45.7842 5.95938 45.9889 5.6742Z" fill="#43B363"/>
<path d="M45.9979 5.6751C46.2293 5.34535 46.5764 5.16711 46.8967 5.12255C47.2171 5.07799 47.493 5.16711 47.582 5.37209C47.6799 5.63945 47.2082 5.94246 46.9056 6.29002C46.4963 6.77127 46.3183 6.93169 46.0335 6.97625C45.811 7.01189 45.7131 6.82474 45.7131 6.55738C45.7131 6.29002 45.811 5.95137 46.0068 5.6751H45.9979Z" fill="#4AB465"/>
<path d="M46.0067 5.67595C46.2292 5.35512 46.5762 5.17688 46.8877 5.13232C47.1992 5.08776 47.4751 5.17688 47.5552 5.38185C47.653 5.6403 47.1903 5.9344 46.8877 6.28196C46.4872 6.7543 46.3004 6.91472 46.0245 6.95928C45.8109 6.99492 45.7041 6.80777 45.7041 6.54932C45.7041 6.29088 45.802 5.95222 45.9889 5.67595H46.0067Z" fill="#50B567"/>
<path d="M46.0068 5.67489C46.2293 5.36297 46.5675 5.18473 46.879 5.14017C47.1904 5.09561 47.4574 5.18473 47.5375 5.3808C47.6354 5.63033 47.1815 5.92443 46.8879 6.26308C46.4874 6.7176 46.3094 6.88692 46.0424 6.92257C45.8288 6.95822 45.731 6.77107 45.731 6.52153C45.731 6.272 45.8288 5.93334 46.0157 5.66598L46.0068 5.67489Z" fill="#55B768"/>
<path d="M46.0157 5.67446C46.2292 5.36254 46.5674 5.19321 46.87 5.14865C47.1726 5.10409 47.4395 5.1843 47.5196 5.38928C47.6175 5.6299 47.1726 5.924 46.8789 6.25374C46.4873 6.69934 46.3093 6.86867 46.0512 6.90432C45.8466 6.93105 45.7487 6.76173 45.7398 6.51219C45.7309 6.26265 45.8377 5.93291 46.0157 5.67446Z" fill="#5BB86A"/>
<path d="M46.0244 5.67537C46.238 5.37236 46.5673 5.20303 46.8609 5.15847C47.1546 5.11391 47.4216 5.19412 47.4928 5.39018C47.5818 5.63081 47.1546 5.91599 46.8698 6.24573C46.4872 6.68242 46.3092 6.85175 46.0511 6.8874C45.8464 6.91413 45.7485 6.74481 45.7485 6.49527C45.7485 6.24573 45.8375 5.93381 46.0244 5.67537Z" fill="#60B96C"/>
<path d="M46.0333 5.67427C46.238 5.38017 46.5673 5.21084 46.8521 5.16628C47.1368 5.12172 47.4038 5.20193 47.475 5.398C47.564 5.62971 47.1457 5.91489 46.861 6.23572C46.4872 6.6635 46.3003 6.82391 46.06 6.85956C45.8642 6.8863 45.7664 6.71697 45.7664 6.47635C45.7664 6.23572 45.8554 5.9238 46.0333 5.66536V5.67427Z" fill="#65BA6D"/>
<path d="M46.0422 5.67517C46.2469 5.38108 46.5673 5.22066 46.852 5.1761C47.1368 5.13154 47.386 5.21175 47.4572 5.3989C47.5462 5.6217 47.1368 5.89797 46.8609 6.21881C46.4961 6.62876 46.3092 6.79808 46.0689 6.83373C45.8731 6.86047 45.7841 6.70005 45.7752 6.45943C45.7663 6.21881 45.8642 5.9158 46.0422 5.66626V5.67517Z" fill="#69BC6F"/>
<path d="M46.0513 5.67567C46.2471 5.39048 46.5586 5.23007 46.8433 5.19442C47.1281 5.15877 47.3684 5.23007 47.4396 5.41722C47.5197 5.63111 47.1281 5.90738 46.8522 6.2193C46.4963 6.62034 46.3094 6.78967 46.078 6.82531C45.8822 6.85205 45.7932 6.69163 45.7932 6.45992C45.7932 6.22821 45.8822 5.9252 46.0513 5.68458V5.67567Z" fill="#6DBD71"/>
<path d="M46.0602 5.67461C46.256 5.38942 46.5586 5.23792 46.8345 5.20227C47.1103 5.16662 47.3506 5.23792 47.4218 5.41616C47.5019 5.63005 47.1192 5.89741 46.8523 6.20041C46.5052 6.59254 46.3094 6.76187 46.0869 6.79752C45.9 6.82425 45.811 6.66384 45.811 6.44104C45.811 6.21824 45.9 5.91523 46.0602 5.68352V5.67461Z" fill="#72BE73"/>
<path d="M46.0691 5.67546C46.2649 5.39919 46.5586 5.24768 46.8256 5.21204C47.0925 5.17639 47.3328 5.24768 47.3951 5.42592C47.4752 5.6309 47.1014 5.89826 46.8345 6.19236C46.4963 6.57557 46.3005 6.7449 46.0869 6.77164C45.9 6.79837 45.811 6.63796 45.811 6.41516C45.811 6.19236 45.9 5.90717 46.0602 5.66655L46.0691 5.67546Z" fill="#76C075"/>
<path d="M46.0778 5.6744C46.2647 5.40704 46.5584 5.25554 46.8164 5.21989C47.0745 5.18424 47.3148 5.25554 47.3771 5.42487C47.4483 5.62093 47.0923 5.88829 46.8342 6.18239C46.505 6.54778 46.3092 6.71711 46.0956 6.75275C45.9176 6.77949 45.8286 6.62799 45.8286 6.40519C45.8286 6.18239 45.9087 5.90611 46.0689 5.6744H46.0778Z" fill="#7AC177"/>
<path d="M46.0868 5.67526C46.2737 5.4079 46.5585 5.2653 46.8166 5.22966C47.0747 5.19401 47.2972 5.2653 47.3683 5.43463C47.4395 5.62178 47.0925 5.88914 46.8344 6.17433C46.514 6.53081 46.3182 6.70014 46.1135 6.73578C45.9356 6.76252 45.8555 6.61102 45.8555 6.39713C45.8555 6.18324 45.9356 5.90697 46.0957 5.68417L46.0868 5.67526Z" fill="#7EC379"/>
<path d="M46.0956 5.6742C46.2736 5.41575 46.5584 5.27316 46.8076 5.23751C47.0568 5.20186 47.2792 5.27316 47.3415 5.43358C47.4127 5.61182 47.0746 5.87026 46.8254 6.15545C46.5139 6.50302 46.3092 6.67234 46.1223 6.69908C45.9532 6.72581 45.8643 6.57431 45.8643 6.36934C45.8643 6.16436 45.9444 5.88809 46.0956 5.6742Z" fill="#82C47B"/>
<path d="M46.1047 5.67505C46.2827 5.42552 46.5585 5.28293 46.7988 5.24728C47.0391 5.21163 47.2616 5.28293 47.3239 5.44334C47.3951 5.62158 47.0658 5.87112 46.8166 6.14739C46.514 6.48604 46.3094 6.65537 46.1225 6.68211C45.9534 6.70884 45.8733 6.56625 45.8733 6.36128C45.8733 6.1563 45.9534 5.88894 46.1047 5.67505Z" fill="#86C57C"/>
<path d="M46.1047 5.67595C46.2738 5.42641 46.5408 5.29273 46.781 5.25709C47.0213 5.22144 47.2349 5.29273 47.2972 5.44424C47.3595 5.61357 47.048 5.8631 46.8077 6.13046C46.5141 6.46021 46.3094 6.62953 46.1314 6.65627C45.9623 6.68301 45.8911 6.54041 45.8911 6.34435C45.8911 6.14829 45.9712 5.88984 46.1136 5.67595H46.1047Z" fill="#8AC77E"/>
<path d="M46.1136 5.67553C46.2827 5.43491 46.5408 5.30123 46.781 5.26558C47.0213 5.22993 47.226 5.29232 47.2794 5.45273C47.3417 5.61315 47.0391 5.86269 46.7988 6.12113C46.5052 6.43305 46.3005 6.61129 46.1314 6.62912C45.9712 6.65585 45.8911 6.51326 45.8911 6.3172C45.8911 6.12113 45.9623 5.8716 46.1047 5.66662L46.1136 5.67553Z" fill="#8EC881"/>
<path d="M46.1224 5.67449C46.2826 5.44278 46.5407 5.3091 46.7721 5.27345C47.0034 5.2378 47.2081 5.30018 47.2615 5.45169C47.3238 5.60319 47.0301 5.85273 46.7988 6.10226C46.514 6.40527 46.3093 6.5746 46.1491 6.60134C45.9889 6.62807 45.9177 6.49439 45.9177 6.29833C45.9177 6.10226 45.9889 5.86164 46.1313 5.66558L46.1224 5.67449Z" fill="#91CA83"/>
<path d="M46.1312 5.67534C46.2914 5.44363 46.5406 5.31886 46.7631 5.28321C46.9856 5.24757 47.1814 5.30995 47.2437 5.46145C47.2971 5.60405 47.0212 5.85358 46.7898 6.10312C46.5139 6.39721 46.3092 6.56654 46.149 6.59328C45.9889 6.62001 45.9266 6.48633 45.9177 6.29918C45.9088 6.11203 45.9889 5.87141 46.1223 5.67534H46.1312Z" fill="#95CB85"/>
<path d="M46.1402 5.6743C46.3004 5.4515 46.5407 5.32673 46.7543 5.29108C46.9679 5.25543 47.1636 5.31782 47.217 5.46041C47.2704 5.603 47.0035 5.83471 46.781 6.08425C46.514 6.36943 46.3093 6.53876 46.158 6.5655C46.0067 6.59223 45.9355 6.45855 45.9355 6.28031C45.9355 6.10207 46.0067 5.86145 46.1402 5.6743Z" fill="#99CD87"/>
<path d="M46.1492 5.67477C46.3004 5.45197 46.5407 5.33611 46.7543 5.30938C46.9679 5.28264 47.1548 5.33611 47.2082 5.47871C47.2616 5.61239 47.0035 5.8441 46.781 6.08472C46.5229 6.35208 46.3093 6.53032 46.167 6.54814C46.0246 6.56597 45.9534 6.4412 45.9534 6.27187C45.9534 6.10255 46.0246 5.87083 46.1492 5.68368V5.67477Z" fill="#9CCE89"/>
<path d="M46.1581 5.67566C46.3094 5.46178 46.5407 5.34592 46.7454 5.31918C46.9501 5.29245 47.137 5.34592 47.1904 5.4796C47.2349 5.60437 47.0035 5.83608 46.781 6.06779C46.5318 6.32624 46.3183 6.50448 46.1848 6.5223C46.0424 6.54013 45.9712 6.42427 45.9712 6.25494C45.9712 6.08562 46.0335 5.86282 46.1581 5.67566Z" fill="#A0CF8B"/>
<path d="M46.167 5.67456C46.3094 5.46959 46.5318 5.35373 46.7365 5.327C46.9412 5.30026 47.1192 5.35373 47.1637 5.48741C47.2082 5.60327 46.9857 5.83498 46.7632 6.05778C46.5229 6.30732 46.3094 6.48556 46.1759 6.50338C46.0335 6.5212 45.9712 6.40535 45.9712 6.23602C45.9712 6.06669 46.0335 5.8528 46.1581 5.67456H46.167Z" fill="#A3D18D"/>
<path d="M46.1758 5.67546C46.3182 5.47048 46.5318 5.36354 46.7275 5.3368C46.9233 5.31007 47.0924 5.36354 47.1458 5.48831C47.1903 5.60416 46.9767 5.82696 46.7631 6.04085C46.5318 6.28148 46.3093 6.4508 46.1936 6.46863C46.0601 6.48645 45.9978 6.3706 45.9978 6.21018C45.9978 6.04976 46.0601 5.83588 46.1758 5.66655V5.67546Z" fill="#A7D28F"/>
<path d="M46.1848 5.67436C46.3183 5.4783 46.5319 5.37135 46.7188 5.34462C46.9057 5.31788 47.0747 5.37135 47.1281 5.49612C47.1726 5.60306 46.968 5.82586 46.7544 6.03975C46.5319 6.26255 46.3094 6.44079 46.2026 6.45862C46.0691 6.47644 46.0068 6.3695 46.0068 6.20908C46.0068 6.04866 46.0691 5.84369 46.1848 5.68327V5.67436Z" fill="#AAD491"/>
<path d="M46.1935 5.67526C46.327 5.48811 46.5317 5.38116 46.7186 5.35443C46.9054 5.32769 47.0656 5.38116 47.1101 5.49702C47.1457 5.59505 46.9588 5.81785 46.7542 6.02282C46.5495 6.2278 46.3181 6.41495 46.2113 6.43278C46.0867 6.4506 46.0244 6.34366 46.0244 6.19215C46.0244 6.04065 46.0867 5.83567 46.1935 5.67526Z" fill="#ADD593"/>
<path d="M46.2024 5.67611C46.327 5.48896 46.5317 5.39093 46.7097 5.36419C46.8877 5.33745 47.0479 5.39093 47.0923 5.50678C47.1279 5.5959 46.95 5.80979 46.7453 6.01477C46.5406 6.21974 46.3181 6.39798 46.2202 6.40689C46.0956 6.42472 46.0422 6.31777 46.0422 6.17518C46.0422 6.03259 46.0956 5.83653 46.2113 5.67611H46.2024Z" fill="#B1D696"/>
<path d="M46.2202 6.37825C46.1045 6.39607 46.0422 6.29804 46.0422 6.14654C46.0422 5.99503 46.0956 5.81679 46.2024 5.66529C46.327 5.48705 46.5228 5.38902 46.6919 5.36228C46.861 5.33555 47.0212 5.38902 47.0657 5.49596C47.1012 5.57617 46.9322 5.79006 46.7364 5.98612C46.5406 6.18219 46.3092 6.36043 46.2202 6.36934V6.37825Z" fill="#B4D898"/>
<path d="M47.8222 11.7365C47.8222 14.009 45.98 15.8449 43.7196 15.8449C41.4592 15.8449 39.6082 14.0001 39.6082 11.7365C39.6082 9.47284 41.4503 7.61914 43.7196 7.61914C45.9889 7.61914 47.8222 9.46392 47.8222 11.7365Z" fill="#005083"/>
<path d="M47.0926 11.7362C47.0926 13.6077 45.5797 15.1138 43.7108 15.1138C41.842 15.1138 40.3291 13.5988 40.3291 11.7362C40.3291 9.87356 41.842 8.34961 43.7108 8.34961C45.5797 8.34961 47.0926 9.86465 47.0926 11.7362Z" fill="#E60012"/>
<path d="M42.8386 10.9153C42.0021 11.9491 41.8152 12.1541 41.1745 12.2521C40.7473 12.3145 40.5426 11.9491 40.5337 11.4322C40.5248 10.9153 40.7295 10.238 41.1122 9.69439C41.5571 9.05272 42.2513 8.69624 42.8831 8.60712C43.515 8.518 44.0578 8.68733 44.218 9.09728C44.4494 9.7033 43.3904 10.2291 42.8386 10.9153Z" fill="#E60012"/>
<path d="M41.1212 9.69414C41.5661 9.06139 42.2514 8.71382 42.8654 8.6247C43.4795 8.53558 44.0312 8.70491 44.1825 9.11486C44.4139 9.71197 43.3727 10.2378 42.8209 10.9062C41.9933 11.9311 41.8064 12.136 41.1746 12.2251C40.7474 12.2875 40.5427 11.9221 40.5427 11.4142C40.5427 10.9062 40.7385 10.2378 41.1123 9.69414H41.1212Z" fill="#E60813"/>
<path d="M41.1388 9.69504C41.5748 9.0712 42.2512 8.72364 42.8652 8.63452C43.4793 8.5454 44.0132 8.71472 44.1734 9.11576C44.3959 9.69504 43.3725 10.2209 42.8296 10.8892C42.0109 11.8963 41.824 12.1013 41.2011 12.1904C40.7828 12.2528 40.5781 11.8963 40.5781 11.3883C40.5781 10.8803 40.765 10.2298 41.1388 9.69504Z" fill="#E61114"/>
<path d="M41.1478 9.69484C41.575 9.07992 42.2513 8.74126 42.8476 8.65214C43.4438 8.56302 43.9778 8.73235 44.138 9.12448C44.3605 9.69484 43.3459 10.2117 42.812 10.8712C42.0021 11.8605 41.8153 12.0654 41.2012 12.1635C40.7918 12.2258 40.5872 11.8694 40.5872 11.3703C40.5872 10.8712 40.774 10.2207 41.1478 9.69484Z" fill="#E61815"/>
<path d="M41.1566 9.69374C41.5838 9.08773 42.2423 8.74907 42.8386 8.65995C43.4348 8.57083 43.9599 8.74016 44.1112 9.13229C44.3337 9.69374 43.3369 10.2106 42.803 10.8612C42.011 11.8326 41.8152 12.0465 41.2189 12.1356C40.8096 12.198 40.6138 11.8504 40.6138 11.3514C40.6138 10.8523 40.8007 10.2196 41.1655 9.70266L41.1566 9.69374Z" fill="#E71E17"/>
<path d="M41.1655 9.69431C41.5838 9.08829 42.2424 8.75855 42.8297 8.67834C43.4171 8.59813 43.9332 8.75855 44.0845 9.14176C44.2981 9.69431 43.3192 10.2023 42.7941 10.844C42.011 11.8064 41.8152 12.0114 41.2278 12.1005C40.8274 12.1629 40.6316 11.8154 40.6316 11.3252C40.6316 10.835 40.8185 10.2023 41.1744 9.69431H41.1655Z" fill="#E72418"/>
<path d="M41.1833 9.69445C41.6016 9.09734 42.2423 8.77651 42.8208 8.68739C43.3992 8.59827 43.9154 8.7676 44.0578 9.1419C44.2713 9.68554 43.3102 10.1846 42.7852 10.8263C42.0109 11.7709 41.8151 11.9759 41.2367 12.065C40.8362 12.1274 40.6493 11.7799 40.6404 11.2986C40.6315 10.8174 40.8184 10.1935 41.1744 9.68554L41.1833 9.69445Z" fill="#E7281A"/>
<path d="M41.1924 9.69365C41.6017 9.10546 42.2425 8.78462 42.812 8.70442C43.3816 8.62421 43.8888 8.77571 44.0401 9.15893C44.2448 9.69365 43.3015 10.1927 42.7853 10.8166C42.02 11.7434 41.8242 11.9573 41.2546 12.0375C40.8631 12.0999 40.6762 11.7612 40.6673 11.2889C40.6584 10.8166 40.8453 10.2016 41.1924 9.70256V9.69365Z" fill="#E72D1B"/>
<path d="M41.2011 9.69455C41.6016 9.11527 42.2335 8.79444 42.7941 8.71423C43.3548 8.63402 43.8531 8.78552 44.0044 9.15983C44.2091 9.68564 43.2747 10.1758 42.7674 10.7996C42.0199 11.7176 41.8152 11.9225 41.2545 12.0117C40.863 12.0741 40.685 11.7354 40.6761 11.272C40.6672 10.8085 40.8541 10.1936 41.2011 9.70346V9.69455Z" fill="#E7311D"/>
<path d="M41.21 9.69435C41.6105 9.12398 42.2245 8.81206 42.7852 8.73185C43.3458 8.65165 43.8353 8.80315 43.9777 9.16854C44.1735 9.68544 43.2657 10.1756 42.7585 10.7816C42.0198 11.6817 41.8152 11.8956 41.2634 11.9758C40.8807 12.0293 40.6938 11.7085 40.6938 11.245C40.6938 10.7816 40.8718 10.1845 41.21 9.69435Z" fill="#E8341E"/>
<path d="M41.2278 9.6952C41.6194 9.13375 42.2334 8.82183 42.7763 8.74162C43.3192 8.66141 43.8086 8.81292 43.951 9.17831C44.1468 9.68629 43.248 10.1675 42.7496 10.7736C42.0199 11.6558 41.8152 11.8697 41.2723 11.9499C40.8986 12.0034 40.7117 11.6826 40.7117 11.2281C40.7117 10.7736 40.8808 10.1854 41.2189 9.70411L41.2278 9.6952Z" fill="#E83820"/>
<path d="M41.2368 9.69382C41.6194 9.14127 42.2246 8.82935 42.7674 8.75806C43.3103 8.68676 43.7908 8.82935 43.9243 9.18583C44.1201 9.68491 43.2391 10.1572 42.7407 10.7543C42.0199 11.6277 41.8152 11.8327 41.2812 11.9129C40.9075 11.9664 40.7295 11.6545 40.7295 11.1999C40.7295 10.7454 40.8986 10.1662 41.2279 9.69382H41.2368Z" fill="#E83B21"/>
<path d="M41.2456 9.69395C41.6282 9.15032 42.2245 8.84731 42.7584 8.76711C43.2924 8.6869 43.7641 8.8384 43.8975 9.18597C44.0844 9.67613 43.2212 10.1485 42.7317 10.7367C42.0287 11.5922 41.8151 11.8061 41.299 11.8774C40.9341 11.9309 40.7561 11.6189 40.7561 11.1733C40.7561 10.7277 40.9252 10.1574 41.2545 9.68504L41.2456 9.69395Z" fill="#E83E23"/>
<path d="M41.2545 9.69447C41.6283 9.15084 42.2156 8.85674 42.7407 8.78544C43.2657 8.71415 43.7285 8.85674 43.8709 9.20431C44.0578 9.68556 43.2034 10.149 42.7229 10.7283C42.0287 11.566 41.8151 11.7799 41.3079 11.8601C40.943 11.9136 40.7739 11.6016 40.7739 11.1649C40.7739 10.7283 40.943 10.1579 41.2634 9.70338L41.2545 9.69447Z" fill="#E84125"/>
<path d="M41.2724 9.69536C41.6462 9.16064 42.2246 8.86655 42.7408 8.79525C43.2569 8.72396 43.7197 8.86655 43.8532 9.2052C44.0312 9.67754 43.2035 10.141 42.723 10.7113C42.0377 11.5312 41.8242 11.754 41.3258 11.8253C40.9698 11.8788 40.8007 11.5758 40.7918 11.1391C40.7829 10.7024 40.952 10.1499 41.2724 9.69536Z" fill="#E94426"/>
<path d="M41.2812 9.69516C41.6461 9.16935 42.2156 8.88417 42.7229 8.81287C43.2301 8.74158 43.684 8.88417 43.8175 9.21391C43.9955 9.67733 43.1767 10.1318 42.7051 10.6933C42.0287 11.5043 41.8151 11.7182 41.3257 11.7895C40.9786 11.8429 40.8095 11.5399 40.8006 11.1211C40.7917 10.7022 40.9608 10.1497 41.2723 9.70407L41.2812 9.69516Z" fill="#E94728"/>
<path d="M41.2901 9.69471C41.6461 9.17781 42.2067 8.89263 42.714 8.82133C43.2213 8.75004 43.6662 8.88372 43.7908 9.22237C43.9688 9.66797 43.1679 10.1225 42.6962 10.6839C42.0288 11.4771 41.8152 11.691 41.3346 11.7623C40.9875 11.8158 40.8273 11.5217 40.8184 11.1028C40.8096 10.6839 40.9786 10.1403 41.2812 9.70362L41.2901 9.69471Z" fill="#E9492A"/>
<path d="M41.2989 9.69493C41.6549 9.18694 42.2067 8.91067 42.705 8.83046C43.2034 8.75025 43.6395 8.89285 43.764 9.22259C43.9331 9.65928 43.15 10.1138 42.6872 10.6574C42.0376 11.4328 41.8151 11.6556 41.3434 11.7269C41.0053 11.7803 40.8362 11.4862 40.8362 11.0763C40.8362 10.6663 40.9875 10.1316 41.2989 9.69493Z" fill="#E94C2C"/>
<path d="M41.3169 9.69346C41.664 9.19439 42.2068 8.91811 42.6963 8.84682C43.1857 8.77552 43.6129 8.9092 43.7375 9.23003C43.9066 9.65781 43.1324 10.1034 42.6874 10.6381C42.0466 11.4046 41.8242 11.6184 41.3614 11.6897C41.0232 11.7432 40.863 11.4491 40.863 11.0481C40.863 10.647 41.0143 10.1212 41.3169 9.69346Z" fill="#EA4F2D"/>
<path d="M41.3257 9.69431C41.6728 9.20415 42.2067 8.92788 42.6873 8.85658C43.1679 8.78529 43.595 8.91897 43.7196 9.2398C43.8798 9.65866 43.1323 10.0954 42.6873 10.6301C42.0555 11.3787 41.833 11.6015 41.3791 11.6639C41.0498 11.7173 40.8896 11.4322 40.8896 11.0311C40.8896 10.6301 41.0409 10.1132 41.3346 9.69431H41.3257Z" fill="#EA512F"/>
<path d="M41.3347 9.6863C41.6729 9.20505 42.198 8.93769 42.6696 8.8664C43.1413 8.7951 43.5596 8.92878 43.6842 9.2407C43.8443 9.65065 43.1057 10.0873 42.6696 10.6042C42.0467 11.335 41.8242 11.5578 41.3792 11.6202C41.0589 11.6648 40.8987 11.3885 40.8987 10.9964C40.8987 10.6042 41.05 10.0963 41.3347 9.67739V9.6863Z" fill="#EA5431"/>
<path d="M41.3436 9.68525C41.6728 9.204 42.1979 8.94556 42.6607 8.87426C43.1234 8.80296 43.5328 8.93664 43.6574 9.23965C43.8087 9.64069 43.0967 10.0685 42.6607 10.5854C42.0555 11.2983 41.8241 11.5211 41.397 11.5835C41.0766 11.6281 40.9253 11.3607 40.9253 10.9686C40.9253 10.5765 41.0677 10.0774 41.3525 9.67634L41.3436 9.68525Z" fill="#EA5633"/>
<path d="M41.3614 9.68576C41.6906 9.21342 42.1979 8.95497 42.6518 8.89259C43.1056 8.83021 43.515 8.95497 43.6307 9.25798C43.782 9.65011 43.0789 10.0779 42.6518 10.577C42.0555 11.281 41.8241 11.5038 41.4059 11.5662C41.0944 11.6107 40.9431 11.3434 40.9342 10.9602C40.9253 10.577 41.0766 10.0868 41.3614 9.68576Z" fill="#EA5934"/>
<path d="M41.3703 9.68591C41.6907 9.22248 42.189 8.97295 42.6429 8.90165C43.0968 8.83036 43.4883 8.96404 43.604 9.25813C43.7553 9.64135 43.0612 10.0602 42.6429 10.5593C42.0555 11.2455 41.8242 11.4683 41.4148 11.5307C41.1033 11.5753 40.9609 11.3168 40.952 10.9425C40.9431 10.5682 41.0944 10.0869 41.3703 9.69482V9.68591Z" fill="#EB5B36"/>
<path d="M41.3791 9.68515C41.6995 9.23064 42.1889 8.9811 42.6339 8.91872C43.0789 8.85634 43.4704 8.97219 43.5772 9.26629C43.7196 9.64059 43.0522 10.0505 42.6339 10.5407C42.0554 11.2091 41.8241 11.4319 41.4236 11.4943C41.121 11.5388 40.9697 11.2804 40.9697 10.915C40.9697 10.5496 41.1121 10.0684 41.3791 9.68515Z" fill="#EB5D38"/>
<path d="M41.388 9.68605C41.6995 9.24045 42.1801 8.99092 42.6161 8.92853C43.0522 8.86615 43.4348 8.982 43.5505 9.26719C43.6929 9.63258 43.0344 10.0425 42.625 10.5238C42.0644 11.1833 41.8241 11.4061 41.4325 11.4595C41.1299 11.5041 40.9875 11.2457 40.9875 10.8892C40.9875 10.5327 41.121 10.0604 41.388 9.67714V9.68605Z" fill="#EB603A"/>
<path d="M41.406 9.68581C41.7085 9.24912 42.1891 9.0085 42.6163 8.94611C43.0434 8.88373 43.4172 8.99958 43.5329 9.28477C43.6664 9.64125 43.0345 10.0423 42.6252 10.5146C42.0734 11.1563 41.8242 11.3791 41.4505 11.4415C41.1568 11.486 41.0144 11.2365 41.0144 10.88C41.0144 10.5235 41.1479 10.069 41.406 9.69472V9.68581Z" fill="#EB623C"/>
<path d="M41.4148 9.68476C41.7173 9.25698 42.1801 9.01636 42.5984 8.95397C43.0166 8.89159 43.3904 9.00744 43.4972 9.28372C43.6307 9.63128 43.0077 10.0323 42.6073 10.4957C42.0644 11.1196 41.8152 11.3513 41.4504 11.4048C41.1656 11.4493 41.0232 11.1998 41.0232 10.8522C41.0232 10.5047 41.1567 10.0501 41.4148 9.68476Z" fill="#EC653E"/>
<path d="M41.4237 9.68531C41.7174 9.26645 42.1801 9.02582 42.5895 8.97235C42.9989 8.91888 43.3637 9.02582 43.4705 9.29318C43.604 9.63184 42.99 10.024 42.5984 10.4785C42.0644 11.0934 41.8153 11.3162 41.4593 11.3697C41.1745 11.4142 41.041 11.1736 41.041 10.826C41.041 10.4785 41.1745 10.0418 41.4237 9.6764V9.68531Z" fill="#EC6740"/>
<path d="M41.4326 9.68541C41.7174 9.27546 42.1712 9.04375 42.5717 8.98137C42.9722 8.91898 43.3371 9.03484 43.4349 9.3022C43.5595 9.62303 42.9722 10.0152 42.5806 10.4697C42.0645 11.0668 41.8064 11.2896 41.4682 11.343C41.1923 11.3876 41.0588 11.147 41.0588 10.8083C41.0588 10.4697 41.1834 10.033 41.4326 9.68541Z" fill="#EC6942"/>
<path d="M41.4504 9.68596C41.7351 9.27601 42.1712 9.05321 42.5717 8.99974C42.9721 8.94627 43.3192 9.05321 43.4171 9.31166C43.5417 9.62358 42.9632 10.0157 42.5806 10.4524C42.0733 11.0317 41.8152 11.2634 41.486 11.3079C41.2101 11.3525 41.0855 11.1119 41.0766 10.7821C41.0677 10.4524 41.2012 10.0246 41.4415 9.67705L41.4504 9.68596Z" fill="#EC6C44"/>
<path d="M41.4592 9.68612C41.7351 9.28508 42.1711 9.07119 42.5627 9.00881C42.9543 8.94643 43.2924 9.06228 43.3992 9.31182C43.5149 9.61483 42.9632 9.99804 42.5805 10.4347C42.0821 10.9962 41.824 11.2279 41.5037 11.2814C41.2367 11.3259 41.1121 11.0942 41.1032 10.7734C41.0943 10.4526 41.2278 10.0337 41.4681 9.68612H41.4592Z" fill="#ED6E46"/>
<path d="M41.468 9.68466C41.7439 9.29253 42.1622 9.07864 42.5448 9.02517C42.9275 8.9717 43.2657 9.07864 43.3636 9.32818C43.4793 9.62227 42.9364 10.0055 42.5626 10.4244C42.0732 10.9769 41.8151 11.2086 41.5036 11.2532C41.2456 11.2888 41.1121 11.066 41.1121 10.7541C41.1121 10.4422 41.2278 10.0233 41.468 9.69357V9.68466Z" fill="#ED7048"/>
<path d="M41.477 9.68621C41.7439 9.303 42.1622 9.08911 42.536 9.03564C42.9097 8.98217 43.239 9.0802 43.3369 9.32973C43.4437 9.61492 42.9275 9.98922 42.5538 10.4081C42.0821 10.9428 41.8151 11.1745 41.5126 11.2191C41.2545 11.2547 41.1299 11.0408 41.1299 10.7289C41.1299 10.417 41.2456 10.016 41.477 9.68621Z" fill="#ED724A"/>
<path d="M41.4948 9.68602C41.7529 9.31171 42.1622 9.10674 42.5271 9.05327C42.892 8.99979 43.2212 9.09783 43.3102 9.33845C43.417 9.61472 42.9098 9.98011 42.5449 10.3901C42.0821 10.907 41.8151 11.1387 41.5215 11.1832C41.2723 11.2189 41.1477 11.005 41.1477 10.702C41.1477 10.399 41.2634 10.0068 41.4859 9.68602H41.4948Z" fill="#ED754D"/>
<path d="M41.5037 9.68492C41.7618 9.31953 42.1622 9.11455 42.5182 9.06108C42.8742 9.00761 43.1946 9.10564 43.2836 9.34626C43.3903 9.61362 42.892 9.97901 42.536 10.3801C42.0822 10.888 41.8152 11.1197 41.5304 11.1554C41.2812 11.191 41.1655 10.9861 41.1655 10.6831C41.1655 10.3801 41.2812 9.99684 41.4948 9.68492H41.5037Z" fill="#EE774F"/>
<path d="M41.5128 9.68547C41.7619 9.32899 42.1535 9.12402 42.5095 9.07946C42.8654 9.0349 43.168 9.12402 43.2659 9.35573C43.3638 9.61418 42.8921 9.97066 42.5362 10.3628C42.1001 10.8529 41.8242 11.0847 41.5484 11.1292C41.3081 11.1649 41.1924 10.9599 41.1924 10.6658C41.1924 10.3717 41.2992 9.99739 41.5217 9.68547H41.5128Z" fill="#EE7951"/>
<path d="M41.5303 9.68563C41.7795 9.33806 42.1622 9.142 42.5004 9.08852C42.8385 9.03505 43.15 9.13308 43.239 9.35588C43.3369 9.60542 42.8741 9.9619 42.5271 10.3362C42.0999 10.8085 41.824 11.0492 41.557 11.0848C41.3257 11.1205 41.21 10.9155 41.21 10.6303C41.21 10.3451 41.3168 9.97081 41.5303 9.67671V9.68563Z" fill="#EE7B53"/>
<path d="M41.5392 9.68612C41.7795 9.33856 42.1533 9.1514 42.4915 9.10684C42.8296 9.06228 43.1233 9.1514 43.2123 9.3742C43.3013 9.61483 42.8652 9.96239 42.5182 10.3367C42.0999 10.8001 41.824 11.0318 41.5748 11.0675C41.3435 11.1031 41.2367 10.9071 41.2278 10.6219C41.2189 10.3367 41.3346 9.98022 41.5392 9.68612Z" fill="#EE7E55"/>
<path d="M41.5483 9.68507C41.7797 9.34641 42.1445 9.15926 42.4738 9.1147C42.8031 9.07014 43.0968 9.15926 43.1768 9.37315C43.2658 9.60486 42.8387 9.94351 42.5005 10.3089C42.0911 10.7545 41.8153 10.9862 41.575 11.0219C41.3525 11.0575 41.2457 10.8614 41.2368 10.5941C41.2279 10.3267 41.3436 9.97025 41.5394 9.67615L41.5483 9.68507Z" fill="#EF8058"/>
<path d="M41.5572 9.68486C41.7886 9.35512 42.1446 9.17688 42.4649 9.13232C42.7853 9.08776 43.0701 9.17688 43.1502 9.38185C43.2303 9.58683 42.8209 9.94331 42.4916 10.2998C42.1001 10.7276 41.8153 10.9682 41.5839 11.0038C41.3614 11.0395 41.2546 10.8523 41.2546 10.585C41.2546 10.3176 41.3525 9.97004 41.5483 9.69377L41.5572 9.68486Z" fill="#EF825A"/>
<path d="M41.575 9.68571C41.7975 9.36488 42.1446 9.18664 42.4561 9.14208C42.7675 9.09752 43.0434 9.18664 43.1235 9.39162C43.2036 9.5966 42.812 9.93525 42.4828 10.2828C42.1001 10.7017 41.8153 10.9334 41.5928 10.969C41.3793 11.0047 41.2725 10.8175 41.2725 10.5591C41.2725 10.3006 41.3704 9.96199 41.5661 9.68571H41.575Z" fill="#EF845C"/>
<path d="M41.5837 9.68499C41.8062 9.37307 42.1444 9.19483 42.447 9.15918C42.7495 9.12353 43.0254 9.19483 43.1055 9.39981C43.1856 9.60478 42.8029 9.93453 42.4915 10.2732C42.1177 10.6742 41.8329 10.9059 41.6193 10.9416C41.4058 10.9772 41.3079 10.7901 41.3079 10.5405C41.3079 10.291 41.4058 9.96126 41.5926 9.6939L41.5837 9.68499Z" fill="#F0865F"/>
<path d="M41.5927 9.68513C41.8062 9.38212 42.1355 9.2128 42.4381 9.16824C42.7407 9.12368 42.9987 9.20388 43.0788 9.39995C43.1589 9.59601 42.7941 9.91684 42.4826 10.2466C42.1177 10.6298 41.8329 10.8704 41.6283 10.8972C41.4236 10.9328 41.3257 10.7546 41.3257 10.505C41.3257 10.2555 41.4236 9.93467 41.6016 9.67622L41.5927 9.68513Z" fill="#F08961"/>
<path d="M41.6017 9.68599C41.8064 9.39189 42.1357 9.22256 42.4204 9.178C42.7052 9.13344 42.9722 9.21365 43.0434 9.40971C43.1146 9.58795 42.7675 9.90879 42.4649 10.2385C42.1179 10.6039 41.8242 10.8445 41.6284 10.8713C41.4326 10.898 41.3347 10.7287 41.3347 10.4881C41.3347 10.2474 41.4237 9.93552 41.6017 9.67707V9.68599Z" fill="#F08B64"/>
<path d="M41.6194 9.68579C41.8241 9.40061 42.1356 9.24019 42.4203 9.19563C42.7051 9.15107 42.9543 9.23128 43.0255 9.41843C43.0878 9.58776 42.7674 9.90859 42.4648 10.2205C42.1267 10.577 41.833 10.8176 41.6461 10.8444C41.4503 10.8711 41.3613 10.7107 41.3613 10.47C41.3613 10.2294 41.4503 9.92642 41.6283 9.68579H41.6194Z" fill="#F08D66"/>
<path d="M41.6283 9.68475C41.8241 9.39956 42.1266 9.24806 42.4025 9.2035C42.6784 9.15894 42.9187 9.23915 42.9899 9.41739C43.0522 9.5778 42.7407 9.88972 42.447 10.2016C42.1177 10.5403 41.8241 10.7809 41.655 10.8077C41.4681 10.8344 41.3791 10.674 41.3702 10.4423C41.3613 10.2106 41.4592 9.91646 41.6283 9.67583V9.68475Z" fill="#F18F68"/>
<path d="M41.6371 9.68523C41.824 9.40895 42.1266 9.25745 42.3936 9.2218C42.6605 9.18615 42.9008 9.25745 42.9631 9.43569C43.0254 9.58719 42.7228 9.89911 42.4381 10.1932C42.1266 10.514 41.824 10.7547 41.6638 10.7814C41.4769 10.8081 41.3879 10.6566 41.3879 10.4338C41.3879 10.211 41.468 9.92585 41.6371 9.68523Z" fill="#F1916B"/>
<path d="M41.6462 9.68541C41.8331 9.41805 42.1178 9.27546 42.3848 9.2309C42.6518 9.18634 42.8743 9.26654 42.9455 9.43587C42.9989 9.57846 42.723 9.88147 42.4382 10.1756C42.1356 10.4875 41.8331 10.7281 41.6818 10.7459C41.5038 10.7727 41.4148 10.6212 41.4148 10.4073C41.4148 10.1934 41.4949 9.90821 41.6551 9.68541H41.6462Z" fill="#F1946D"/>
<path d="M41.664 9.68592C41.842 9.42747 42.1268 9.28488 42.3759 9.24923C42.6251 9.21358 42.8565 9.28488 42.9188 9.44529C42.9722 9.57897 42.7052 9.87307 42.4293 10.1583C42.1535 10.4434 41.8331 10.693 41.6907 10.7197C41.5216 10.7464 41.4326 10.5949 41.4326 10.39C41.4326 10.185 41.5127 9.90872 41.664 9.68592Z" fill="#F19670"/>
<path d="M41.6729 9.68482C41.8509 9.43528 42.1179 9.29269 42.3671 9.25704C42.6162 9.2214 42.8298 9.29269 42.8921 9.45311C42.9366 9.57787 42.6963 9.87197 42.4205 10.1482C42.1357 10.4334 41.8331 10.6741 41.6996 10.6919C41.5305 10.7186 41.4504 10.576 41.4504 10.371C41.4504 10.1661 41.5305 9.90762 41.6818 9.69373L41.6729 9.68482Z" fill="#F29872"/>
<path d="M41.6995 10.6567C41.5393 10.6834 41.4592 10.5409 41.4592 10.3448C41.4592 10.1487 41.5304 9.89027 41.6817 9.6853C41.8508 9.44468 42.1178 9.311 42.3492 9.27535C42.5805 9.2397 42.7941 9.30208 42.8564 9.4625C42.9009 9.57836 42.6695 9.86354 42.4026 10.1309C42.1356 10.3983 41.8241 10.6389 41.6995 10.6567Z" fill="#F29A75"/>
<path d="M48.0804 6.80665C47.9113 6.62841 47.7066 6.53929 47.4663 6.53929C47.4485 6.53929 47.4307 6.53929 47.404 6.53929C47.3773 6.53929 47.3417 6.53929 47.3061 6.5482L48.116 5.46094H47.6176L46.6654 6.73535C46.4785 6.9938 46.3806 7.23442 46.3806 7.46614C46.3806 7.72458 46.4785 7.94738 46.6743 8.13454C46.8701 8.32169 47.1015 8.41081 47.3684 8.41081C47.6354 8.41081 47.8579 8.31278 48.0537 8.12562C48.2406 7.93847 48.3385 7.70676 48.3385 7.4394C48.3385 7.18986 48.2495 6.97598 48.0804 6.79774V6.80665ZM47.7422 7.85826C47.6354 7.96521 47.5108 8.01868 47.3595 8.01868C47.2082 8.01868 47.0748 7.96521 46.968 7.85826C46.8612 7.75132 46.8078 7.62655 46.8078 7.47505C46.8078 7.32354 46.8612 7.18986 46.968 7.08292C47.0748 6.97598 47.1993 6.9225 47.3595 6.9225C47.5197 6.9225 47.6354 6.97598 47.7511 7.08292C47.8579 7.18986 47.9113 7.31463 47.9113 7.47505C47.9113 7.63546 47.8579 7.75132 47.7511 7.85826H47.7422Z" fill="white"/>
<path d="M45.4016 11.1394C45.2058 10.9344 44.9566 10.8364 44.6629 10.8364C44.6451 10.8364 44.6273 10.8364 44.6007 10.8364C44.5829 10.8364 44.5562 10.8364 44.5384 10.8364L44.6896 10.3195H45.6508V9.88281H44.3693L43.8798 11.5137H44.0311C44.1824 11.3266 44.3693 11.2374 44.574 11.2374C44.7608 11.2374 44.921 11.2998 45.0456 11.4335C45.1702 11.5583 45.2325 11.7187 45.2325 11.9237C45.2325 12.1286 45.1702 12.2801 45.0367 12.4138C44.9121 12.5475 44.7519 12.6099 44.5651 12.6099C44.4227 12.6099 44.2981 12.5742 44.2002 12.5119C44.1023 12.4406 44.0044 12.3247 43.9065 12.1643L43.5505 12.4673C43.7908 12.8505 44.1112 13.0466 44.5295 13.0466C44.8587 13.0466 45.1346 12.9396 45.3571 12.7257C45.5707 12.5119 45.6864 12.2445 45.6864 11.9147C45.6864 11.585 45.5885 11.3355 45.3927 11.1394H45.4016Z" fill="white"/>
<path d="M43.0165 9.88196H42.6427L41.21 12.2793V12.5466H42.5538V12.9922H43.0254V12.5466H43.3547V12.1189H43.0254V9.87305L43.0165 9.88196ZM42.5449 12.1278H41.8329L42.5449 10.9068V12.1278Z" fill="white"/>
</g>
<defs>
<linearGradient id="paint0_linear_2190_26818" x1="33.4587" y1="7.06539" x2="38.238" y2="7.9008" gradientUnits="userSpaceOnUse">
<stop stop-color="#FCCE00"/>
<stop offset="0.23" stop-color="#F6A900"/>
<stop offset="0.43" stop-color="#F18E00"/>
<stop offset="0.61" stop-color="#EE7D00"/>
<stop offset="0.75" stop-color="#EE7800"/>
<stop offset="1" stop-color="#A84200"/>
</linearGradient>
<linearGradient id="paint1_linear_2190_26818" x1="28.5019" y1="8.21504" x2="33.6998" y2="7.05963" gradientUnits="userSpaceOnUse">
<stop stop-color="#AACE36"/>
<stop offset="0.8" stop-color="#00A33A"/>
<stop offset="1" stop-color="#306C30"/>
</linearGradient>
<linearGradient id="paint2_linear_2190_26818" x1="38.1577" y1="6.92366" x2="41.8875" y2="8.15035" gradientUnits="userSpaceOnUse">
<stop stop-color="#00A0E9"/>
<stop offset="0.03" stop-color="#0098E2"/>
<stop offset="0.19" stop-color="#0076C4"/>
<stop offset="0.31" stop-color="#0062B2"/>
<stop offset="0.4" stop-color="#005BAC"/>
</linearGradient>
<linearGradient id="paint3_linear_2190_26818" x1="24.1325" y1="17.4217" x2="32.0894" y2="19.1015" gradientUnits="userSpaceOnUse">
<stop stop-color="#AACE36"/>
<stop offset="0.8" stop-color="#00A33A"/>
<stop offset="1" stop-color="#306C30"/>
</linearGradient>
<linearGradient id="paint4_linear_2190_26818" x1="40.0177" y1="19.0356" x2="46.8626" y2="17.1691" gradientUnits="userSpaceOnUse">
<stop stop-color="#00A0E9"/>
<stop offset="0.08" stop-color="#008CD7"/>
<stop offset="0.2" stop-color="#0071BF"/>
<stop offset="0.31" stop-color="#0060B1"/>
<stop offset="0.4" stop-color="#005BAC"/>
</linearGradient>
<linearGradient id="paint5_linear_2190_26818" x1="31.3141" y1="19.9446" x2="39.9646" y2="18.8871" gradientUnits="userSpaceOnUse">
<stop stop-color="#FCCE00"/>
<stop offset="0.23" stop-color="#F6A900"/>
<stop offset="0.43" stop-color="#F18E00"/>
<stop offset="0.61" stop-color="#EE7D00"/>
<stop offset="0.75" stop-color="#EE7800"/>
<stop offset="1" stop-color="#A84200"/>
</linearGradient>
<linearGradient id="paint6_linear_2190_26818" x1="35.8884" y1="27.6175" x2="35.8884" y2="23.9369" gradientUnits="userSpaceOnUse">
<stop stop-color="white" stop-opacity="0.67"/>
<stop offset="1" stop-color="white" stop-opacity="0"/>
</linearGradient>
<linearGradient id="paint7_linear_2190_26818" x1="23.029" y1="22.6798" x2="30.986" y2="24.3596" gradientUnits="userSpaceOnUse">
<stop stop-color="#AACE36"/>
<stop offset="0.8" stop-color="#00A33A"/>
<stop offset="1" stop-color="#306C30"/>
</linearGradient>
<linearGradient id="paint8_linear_2190_26818" x1="41.4595" y1="24.3285" x2="48.3044" y2="22.462" gradientUnits="userSpaceOnUse">
<stop stop-color="#00A0E9"/>
<stop offset="0.08" stop-color="#008CD7"/>
<stop offset="0.2" stop-color="#0071BF"/>
<stop offset="0.31" stop-color="#0060B1"/>
<stop offset="0.4" stop-color="#005BAC"/>
</linearGradient>
<linearGradient id="paint9_linear_2190_26818" x1="31.8659" y1="24.4177" x2="40.5164" y2="23.3512" gradientUnits="userSpaceOnUse">
<stop stop-color="#FCCE00"/>
<stop offset="0.23" stop-color="#F6A900"/>
<stop offset="0.43" stop-color="#F18E00"/>
<stop offset="0.61" stop-color="#EE7D00"/>
<stop offset="0.75" stop-color="#EE7800"/>
<stop offset="1" stop-color="#A84200"/>
</linearGradient>
<clipPath id="clip0_2190_26818">
<rect width="117.373" height="24" fill="white" transform="translate(23.3137 4)"/>
</clipPath>
</defs>
</svg>
