<svg width="410" height="40" viewBox="0 0 410 40" fill="none" xmlns="http://www.w3.org/2000/svg">
<path fill-rule="evenodd" clip-rule="evenodd" d="M30 0C30 2.76142 27.7614 5 25 5C22.2386 5 20 2.76142 20 0H0V40H410V0H394C394 2.76142 391.761 5 389 5C386.239 5 384 2.76142 384 0H380C380 2.76142 377.761 5 375 5C372.239 5 370 2.76142 370 0H366C366 2.76142 363.761 5 361 5C358.239 5 356 2.76142 356 0H352C352 2.76142 349.761 5 347 5C344.239 5 342 2.76142 342 0H338C338 2.76142 335.761 5 333 5C330.239 5 328 2.76142 328 0H324C324 2.76142 321.761 5 319 5C316.239 5 314 2.76142 314 0H310C310 2.76142 307.761 5 305 5C302.239 5 300 2.76142 300 0H296C296 2.76142 293.761 5 291 5C288.239 5 286 2.76142 286 0H282C282 2.76142 279.761 5 277 5C274.239 5 272 2.76142 272 0H268C268 2.76142 265.761 5 263 5C260.239 5 258 2.76142 258 0H254C254 2.76142 251.761 5 249 5C246.239 5 244 2.76142 244 0H240C240 2.76142 237.761 5 235 5C232.239 5 230 2.76142 230 0H226C226 2.76142 223.761 5 221 5C218.239 5 216 2.76142 216 0H212C212 2.76142 209.761 5 207 5C204.239 5 202 2.76142 202 0H198C198 2.76142 195.761 5 193 5C190.239 5 188 2.76142 188 0H184C184 2.76142 181.761 5 179 5C176.239 5 174 2.76142 174 0H170C170 2.76142 167.761 5 165 5C162.239 5 160 2.76142 160 0H156C156 2.76142 153.761 5 151 5C148.239 5 146 2.76142 146 0H142C142 2.76142 139.761 5 137 5C134.239 5 132 2.76142 132 0H128C128 2.76142 125.761 5 123 5C120.239 5 118 2.76142 118 0H114C114 2.76142 111.761 5 109 5C106.239 5 104 2.76142 104 0H100C100 2.76142 97.7614 5 95 5C92.2386 5 90 2.76142 90 0H86C86 2.76142 83.7614 5 81 5C78.2386 5 76 2.76142 76 0H72C72 2.76142 69.7614 5 67 5C64.2386 5 62 2.76142 62 0H58C58 2.76142 55.7614 5 53 5C50.2386 5 48 2.76142 48 0H44C44 2.76142 41.7614 5 39 5C36.2386 5 34 2.76142 34 0H30Z" fill="white"/>
</svg>
