<svg width="410" height="40" viewBox="0 0 410 40" fill="none" xmlns="http://www.w3.org/2000/svg">
<path fill-rule="evenodd" clip-rule="evenodd" d="M30 40C30 37.2386 27.7614 35 25 35C22.2386 35 20 37.2386 20 40H0V0H410V40H394C394 37.2386 391.761 35 389 35C386.239 35 384 37.2386 384 40H380C380 37.2386 377.761 35 375 35C372.239 35 370 37.2386 370 40H366C366 37.2386 363.761 35 361 35C358.239 35 356 37.2386 356 40H352C352 37.2386 349.761 35 347 35C344.239 35 342 37.2386 342 40H338C338 37.2386 335.761 35 333 35C330.239 35 328 37.2386 328 40H324C324 37.2386 321.761 35 319 35C316.239 35 314 37.2386 314 40H310C310 37.2386 307.761 35 305 35C302.239 35 300 37.2386 300 40H296C296 37.2386 293.761 35 291 35C288.239 35 286 37.2386 286 40H282C282 37.2386 279.761 35 277 35C274.239 35 272 37.2386 272 40H268C268 37.2386 265.761 35 263 35C260.239 35 258 37.2386 258 40H254C254 37.2386 251.761 35 249 35C246.239 35 244 37.2386 244 40H240C240 37.2386 237.761 35 235 35C232.239 35 230 37.2386 230 40H226C226 37.2386 223.761 35 221 35C218.239 35 216 37.2386 216 40H212C212 37.2386 209.761 35 207 35C204.239 35 202 37.2386 202 40H198C198 37.2386 195.761 35 193 35C190.239 35 188 37.2386 188 40H184C184 37.2386 181.761 35 179 35C176.239 35 174 37.2386 174 40H170C170 37.2386 167.761 35 165 35C162.239 35 160 37.2386 160 40H156C156 37.2386 153.761 35 151 35C148.239 35 146 37.2386 146 40H142C142 37.2386 139.761 35 137 35C134.239 35 132 37.2386 132 40H128C128 37.2386 125.761 35 123 35C120.239 35 118 37.2386 118 40H114C114 37.2386 111.761 35 109 35C106.239 35 104 37.2386 104 40H100C100 37.2386 97.7614 35 95 35C92.2386 35 90 37.2386 90 40H86C86 37.2386 83.7614 35 81 35C78.2386 35 76 37.2386 76 40H72C72 37.2386 69.7614 35 67 35C64.2386 35 62 37.2386 62 40H58C58 37.2386 55.7614 35 53 35C50.2386 35 48 37.2386 48 40H44C44 37.2386 41.7614 35 39 35C36.2386 35 34 37.2386 34 40H30Z" fill="white"/>
</svg>
