<svg width="759" height="892" viewBox="0 0 759 892" fill="none" xmlns="http://www.w3.org/2000/svg">
<path d="M901.375 321.104C902.659 262.858 879.119 207.61 833.039 161.642C830.899 159.5 828.759 157.502 826.476 155.36C740.021 74.4155 634.307 64.5651 539.863 124.381C548.423 147.509 555.414 171.635 560.977 196.475C632.88 141.37 710.633 144.653 777.685 207.468C779.254 209.038 780.966 210.608 782.535 212.179C814.92 244.585 830.899 280.703 830.043 319.534C828.901 368.643 800.939 420.608 751.149 466.148C743.731 472.858 739.593 482.423 739.593 492.559C739.593 502.695 743.731 512.117 751.149 518.969C800.939 564.51 828.901 616.474 830.043 665.584C830.899 704.414 814.92 740.533 782.535 772.939C780.966 774.509 779.397 776.08 777.685 777.507C684.81 864.591 588.226 798.779 538.864 751.953C533.729 746.957 528.735 741.675 524.027 736.25C520.461 731.253 515.61 726.97 509.618 724.258C494.924 717.548 477.661 721.545 467.389 733.966C462.254 740.247 456.69 746.243 450.698 751.811C401.478 798.779 304.895 864.448 211.877 777.365C210.308 775.937 208.739 774.367 207.169 772.796C175.212 740.818 158.806 700.988 159.805 657.875C160.518 624.754 171.361 591.063 190.335 559.656C165.939 554.374 142.4 547.807 119.859 539.527C100.456 576.93 89.471 616.76 88.6151 656.304C87.1884 719.404 110.871 777.222 156.809 823.19C158.949 825.332 161.089 827.473 163.371 829.472C259.527 919.553 383.075 911.416 494.924 808.343C555.128 863.877 618.614 892.001 679.532 892.001C731.747 892.001 782.107 871.3 826.619 829.757C828.759 827.759 831.042 825.617 833.181 823.476C879.119 777.507 902.802 722.259 901.518 664.013C900.234 605.339 873.556 545.523 825.763 492.702C873.556 439.88 900.234 380.064 901.518 321.39L901.375 321.104Z" fill="white" fill-opacity="0.05"/>
<path d="M389.205 522.686C277.213 522.686 134.406 511.123 53.0873 430.606C-6.4038 371.932 -17.1036 287.418 27.1224 225.175C52.6593 189.2 102.021 158.506 167.647 169.213C156.234 103.687 186.479 53.8634 222.145 28.0239C283.919 -16.8027 368.376 -7.09501 427.867 51.722C527.59 150.512 524.879 341.381 523.167 455.304C523.024 468.723 522.739 481.286 522.739 492.421V520.688L494.491 520.973C483.934 520.973 471.808 521.402 458.54 521.687C437.711 522.258 414.171 522.829 389.348 522.829L389.205 522.686ZM141.825 224.319C110.296 224.319 87.0415 239.451 73.631 258.295C51.09 290.131 47.5234 344.95 93.1761 390.205C175.351 471.578 351.827 467.296 457.113 464.726C460.109 464.726 463.105 464.583 465.959 464.44C465.959 461.157 465.959 457.873 466.101 454.447C467.671 349.519 470.096 173.924 387.778 92.2658C342.126 47.0109 287.343 51.151 255.814 74.1353C228.993 93.5506 210.161 133.381 232.702 188.486C277.499 197.765 384.497 226.46 404.042 289.417C410.462 310.26 410.177 343.095 371.657 380.64C340.128 411.334 311.453 410.905 292.906 405.338C231.418 386.636 199.176 278.567 188.333 234.026C171.356 227.316 155.948 224.319 142.11 224.319H141.825ZM252.39 252.299C267.797 300.838 290.338 344.95 309.313 350.661C314.877 352.374 322.438 348.662 331.711 339.668C339.7 331.817 352.683 317.112 349.402 306.263C343.124 285.705 297.472 265.291 252.39 252.299Z" fill="white" fill-opacity="0.05"/>
</svg>
