<svg width="124" height="124" viewBox="0 0 124 124" fill="none" xmlns="http://www.w3.org/2000/svg">
<circle cx="62" cy="62" r="52" fill="#FFF564"/>
<path d="M42 37C44.6869 39.9237 49.2121 44.3092 56 37" stroke="#333333" stroke-width="3" stroke-linecap="round"/>
<path d="M56 48C58.303 50.1928 62.1818 53.4819 68 48" stroke="#333333" stroke-width="3" stroke-linecap="round"/>
<path d="M66 37C68.8788 39.9237 73.7273 44.3092 81 37" stroke="#333333" stroke-width="3" stroke-linecap="round"/>
<path d="M76.1252 59.43C67.9785 56.6607 63.2853 60.8723 61.957 63.3243C55.3157 53.3721 43.5275 59.4301 41.8008 64.8814C39.4486 72.3084 42.6865 78.7279 46.2285 82.6223C52.8351 88.6483 56.3746 91.249 58.3833 92.7249L58.4149 92.7482C61.3298 94.8899 64.1708 93.7578 65.0563 93.1809C66.5322 92.3155 71.1664 89.2 77.8963 83.6614C86.3086 76.7381 86.3086 62.8916 76.1252 59.43Z" fill="#FF7F1E"/>
<path d="M53 79.072C52.5439 82.4853 48.4386 91.8719 38.8596 86.24C34.7544 83.68 31.1053 80.608 27 76" stroke="#333333" stroke-width="2.6" stroke-linecap="round"/>
<path d="M70 79.072C70.4561 82.4853 74.5614 91.8719 84.1404 86.24C88.2456 83.68 91.8947 80.608 96 76" stroke="#333333" stroke-width="2.6" stroke-linecap="round"/>
<circle cx="8" cy="8" r="8" transform="matrix(-1 0 0 1 52 70)" fill="#FFF564"/>
<circle cx="78" cy="78" r="8" fill="#FFF564"/>
</svg>
