<svg width="28" height="28" viewBox="0 0 28 28" fill="none" xmlns="http://www.w3.org/2000/svg">
<circle cx="14" cy="14" r="14" fill="#5DB533"/>
<path d="M19.8651 7H8.13109C6.39996 7 5 8.38387 5 10.0868V16.0787C5 17.7816 6.39996 19.1655 8.13109 19.1655H12.5417L13.9981 21.9963L15.6465 19.1655H19.8651C21.5963 19.1655 22.9962 17.7816 22.9962 16.0787V10.0868C22.9962 8.38016 21.5925 7 19.8651 7Z" fill="white"/>
<path d="M8.88758 11.7934C8.5677 11.7934 8.2704 11.8787 8.01449 12.0308V10.48H6.84033V15.177H8.01449V14.9618C8.2704 15.1102 8.5677 15.1992 8.88758 15.1992C9.8397 15.1992 10.615 14.4387 10.615 13.4963C10.615 12.5539 9.84347 11.7934 8.88758 11.7934ZM8.75963 14.1864C8.37201 14.1864 8.05589 13.8747 8.05589 13.4926C8.05589 13.1105 8.37201 12.7988 8.75963 12.7988C9.14725 12.7988 9.46337 13.1105 9.46337 13.4926C9.46337 13.8747 9.15102 14.1864 8.75963 14.1864Z" fill="#F57F1F"/>
<path d="M12.4853 11.6116C12.3649 11.1367 12.0149 10.4615 10.98 10.4763V11.3853C10.98 11.3853 11.4165 11.3853 11.4165 12.0642V15.1956H12.5455V12.0568C12.5455 12.0234 12.5455 11.8379 12.4853 11.6079V11.6116Z" fill="#F57F1F"/>
<path d="M15.1006 11.7415C14.092 11.7415 13.2754 12.5466 13.2754 13.5409C13.2754 14.5352 14.092 15.3366 15.1006 15.3366C16.1092 15.3366 16.9258 14.5315 16.9258 13.5409C16.9258 12.5503 16.1092 11.7415 15.1006 11.7415ZM15.1006 14.2792C14.6866 14.2792 14.3517 13.949 14.3517 13.5409C14.3517 13.1327 14.6866 12.8025 15.1006 12.8025C15.5146 12.8025 15.8495 13.1327 15.8495 13.5409C15.8495 13.949 15.5146 14.2792 15.1006 14.2792Z" fill="#F57F1F"/>
<path d="M21.1523 15.4553V11.9603H20.0609V12.105C19.8125 11.9603 19.519 11.875 19.2104 11.875C18.2808 11.875 17.5244 12.6207 17.5244 13.5371C17.5244 14.4535 18.2808 15.1993 19.2104 15.1993C19.5227 15.1993 19.8125 15.1139 20.0609 14.9692V15.4516C20.0609 16.0229 19.0373 15.9042 19.0373 15.9042V16.8095C21.3894 16.8095 21.1523 15.4478 21.1523 15.4478V15.4553ZM19.2104 14.2235C18.8265 14.2235 18.5179 13.9156 18.5179 13.5408C18.5179 13.1661 18.8303 12.8582 19.2104 12.8582C19.5905 12.8582 19.9028 13.1661 19.9028 13.5408C19.9028 13.9156 19.5905 14.2235 19.2104 14.2235Z" fill="#F57F1F"/>
</svg>
