<svg width="124" height="124" viewBox="0 0 124 124" fill="none" xmlns="http://www.w3.org/2000/svg">
<circle cx="70.5" cy="70.5" r="43.5" fill="#FFF564"/>
<circle cx="34.2448" cy="63.0707" r="12.5934" transform="rotate(9.14539 34.2448 63.0707)" stroke="#333333" stroke-width="3"/>
<path d="M47.0444 66.8617C48.3737 65.77 52.4272 64.5945 54.634 68.0835" stroke="#333333" stroke-width="2.6" stroke-linecap="round"/>
<circle cx="67.9765" cy="68.5012" r="12.5934" transform="rotate(9.14539 67.9765 68.5012)" stroke="#333333" stroke-width="3"/>
<circle cx="38.2307" cy="59.6041" r="1.70829" transform="rotate(9.14539 38.2307 59.6041)" fill="#333333"/>
<circle cx="63.5296" cy="63.6771" r="1.70829" transform="rotate(9.14539 63.5296 63.6771)" fill="#333333"/>
<path d="M80.7761 72.292C83.4095 70.2647 89.5118 67.4693 92.8536 72.5061" stroke="#333333" stroke-width="2.6" stroke-linecap="round"/>
<path d="M50 88C50 88.9091 49.7224 89.6937 49.3213 90.2284C48.9205 90.7629 48.4431 91 48 91C47.5569 91 47.0795 90.7629 46.6787 90.2284C46.2776 89.6937 46 88.9091 46 88C46 87.0909 46.2776 86.3063 46.6787 85.7716C47.0795 85.2371 47.5569 85 48 85C48.4431 85 48.9205 85.2371 49.3213 85.7716C49.7224 86.3063 50 87.0909 50 88Z" stroke="#333333" stroke-width="2"/>
<ellipse cx="19.3056" cy="19.3094" rx="8.89174" ry="8.90486" transform="rotate(-32.9654 19.3056 19.3094)" fill="#F07385"/>
<path d="M26.5462 32.8084L15.3337 27.1921L28.1226 18.8979C28.2636 21.8389 28.5457 27.7209 28.6776 31.426C28.7586 33.6993 27.3629 33.2895 26.5462 32.8084Z" fill="#F07385"/>
<ellipse cx="31.0731" cy="37.4536" rx="3.81075" ry="3.81637" transform="rotate(-32.9654 31.0731 37.4536)" fill="#F07385"/>
<ellipse cx="44.7619" cy="20.2389" rx="4.75946" ry="4.76648" transform="rotate(18.8517 44.7619 20.2389)" fill="#FF801D"/>
<path d="M41.4782 27.7522L40.1311 21.1763L47.8525 23.8126C46.6618 24.8451 44.2803 26.9101 42.7651 28.1915C41.8354 28.9778 41.546 28.255 41.4782 27.7522Z" fill="#FF801D"/>
<ellipse cx="41.0218" cy="31.1939" rx="2.03977" ry="2.04278" transform="rotate(18.8517 41.0218 31.1939)" fill="#FF801D"/>
</svg>
