<svg width="28" height="28" viewBox="0 0 28 28" fill="none" xmlns="http://www.w3.org/2000/svg">
<circle cx="14" cy="14" r="14" fill="#5DB533"/>
<path d="M14.1428 9.47377H10.3333C10.3333 7.16359 12.4496 6.15824 13.5078 5.94434H16.9999C16.9999 8.51119 15.0951 9.36681 14.1428 9.47377Z" fill="white"/>
<path d="M7 11.2385H18.6666V15.1112C18.6666 18.3328 16.055 20.9445 12.8333 20.9445C9.61166 20.9445 7 18.3328 7 15.1112V11.2385Z" fill="white"/>
<ellipse cx="19.5" cy="13.8856" rx="2.49999" ry="2.64707" fill="white"/>
<rect x="15.333" y="11.2385" width="4.16665" height="5.29415" fill="white"/>
<path d="M19 12.6001H19.25C19.9404 12.6001 20.5 13.1597 20.5 13.8501C20.5 14.5405 19.9404 15.1001 19.25 15.1001H19V12.6001Z" fill="#5DB533"/>
</svg>
