<svg width="124" height="124" viewBox="0 0 124 124" fill="none" xmlns="http://www.w3.org/2000/svg">
<rect x="10" y="10" width="83" height="104" rx="4" fill="#007BC8"/>
<rect x="22" y="26" width="58" height="72" rx="2" fill="white"/>
<line opacity="0.3" x1="33.5" y1="39.5" x2="67.5" y2="39.5" stroke="#666666" stroke-width="3" stroke-linecap="round"/>
<line opacity="0.3" x1="33.5" y1="47.5" x2="54.5" y2="47.5" stroke="#666666" stroke-width="3" stroke-linecap="round"/>
<line opacity="0.3" x1="33.5" y1="57.5" x2="67.5" y2="57.5" stroke="#666666" stroke-width="3" stroke-linecap="round"/>
<circle cx="94" cy="39" r="21" fill="#FFF564"/>
<path d="M86 39.9583L92.1765 45L101 34" stroke="#333333" stroke-width="3" stroke-linecap="round"/>
<path d="M39.1989 105.376C39.5998 104.875 40.3559 104.875 40.7568 105.376L44.7311 110.35C45.2605 111.013 44.7944 112 43.9522 112H36.0035C35.1613 112 34.6951 111.013 35.2245 110.35L39.1989 105.376Z" fill="#007BC8"/>
<path d="M53.2211 105.376C53.6219 104.875 54.3781 104.875 54.7789 105.376L58.7533 110.35C59.2827 111.013 58.8165 112 57.9744 112H50.0256C49.1835 112 48.7173 111.013 49.2467 110.35L53.2211 105.376Z" fill="#007BC8"/>
<path d="M67.2432 105.376C67.6441 104.875 68.4002 104.875 68.8011 105.376L72.7755 110.35C73.3049 111.013 72.8387 112 71.9965 112H64.0478C63.2056 112 62.7395 111.013 63.2689 110.35L67.2432 105.376Z" fill="#007BC8"/>
</svg>
