<svg width="30" height="30" viewBox="0 0 30 30" fill="none" xmlns="http://www.w3.org/2000/svg">
<path d="M23.2895 22.5038L22.0364 17.4007C23.3521 16.3481 26.2206 14.006 27.1679 13.0586C28.1153 11.4797 26.7732 10.5586 25.9837 10.2955L19.2732 9.90074C18.4837 8.05859 16.8258 4.21641 16.51 3.58483C15 1.18804 13.4837 3.05851 12.9574 4.3743L10.1943 9.50588L3.87846 10.6902C3.08899 10.8218 1.74688 11.4797 2.69425 13.0586C3.64162 14.006 6.50997 16.6113 7.82572 17.7955L6.64151 24.1113C6.37835 25.1639 6.32572 27.1113 8.22046 26.4797C10.1152 25.8481 13.4836 23.8481 14.931 22.9271L20.0626 26.0849C20.9836 26.6113 22.9836 27.1113 23.6152 24.9007" stroke="#333333" stroke-width="2"/>
<path d="M11.0525 13.8125C12.2367 14.8651 15.3156 16.3388 18.1578 13.8125" stroke="#11957D" stroke-width="2"/>
</svg>
