<svg width="124" height="124" viewBox="0 0 124 124" fill="none" xmlns="http://www.w3.org/2000/svg">
<rect x="29" y="59" width="66" height="6" rx="3" fill="#333333"/>
<path d="M67.7511 14.5562L79.1625 37.5795C80.098 39.4654 81.8994 40.7662 83.9869 41.0664L109.508 44.7612C114.765 45.5233 116.86 51.9507 113.057 55.6455L94.5865 73.573C93.0789 75.0355 92.3908 77.1523 92.7464 79.2153L97.1069 104.525C98.0037 109.736 92.5145 113.708 87.8139 111.252L64.9834 99.3058C63.1201 98.3282 60.8858 98.3282 59.0225 99.3058L36.192 111.252C31.4914 113.715 25.9944 109.736 26.899 104.525L31.2595 79.2153C31.6151 77.1446 30.927 75.0355 29.4194 73.573L10.9416 55.6455C7.13782 51.9584 9.24073 45.5233 14.4903 44.7612L40.0113 41.0664C42.0987 40.7662 43.9001 39.4577 44.8356 37.5795L56.247 14.5562C58.5973 9.81458 65.3854 9.81458 67.7357 14.5562H67.7511Z" fill="#8BC24A"/>
<path d="M51 70C54.5048 74.5277 64.0114 80.8666 74 70" stroke="#084A3D" stroke-width="3" stroke-linecap="round"/>
<rect x="33" y="22" width="5" height="11" rx="2.5" fill="#084A3D"/>
<rect x="86" y="22" width="5" height="11" rx="2.5" fill="#084A3D"/>
</svg>
