<svg width="38" height="38" viewBox="0 0 38 38" fill="none" xmlns="http://www.w3.org/2000/svg">
<path d="M29.5 28.5004L27.9127 22.0366C29.5794 20.7032 33.2127 17.7366 34.4127 16.5366C35.6127 14.5366 33.9127 13.3699 32.9127 13.0366L24.4127 12.5366C23.4127 10.2032 21.3127 5.33642 20.9127 4.53642C19 1.50049 17.0794 3.86975 16.4127 5.53642L12.9127 12.0364L4.91273 13.5366C3.91273 13.7032 2.21273 14.5366 3.41273 16.5366C4.61273 17.7366 8.24598 21.0366 9.9126 22.5366L8.4126 30.5366C8.07926 31.8699 8.0126 34.3366 10.4126 33.5366C12.8126 32.7366 17.0793 30.2032 18.9126 29.0366L25.4126 33.0366C26.5793 33.7032 29.1126 34.3366 29.9126 31.5366" stroke="#111111" stroke-width="2"/>
<path d="M14 17.5C15.5 18.8333 19.4 20.7 23 17.5" stroke="#11957D" stroke-width="2"/>
</svg>
