<svg width="124" height="124" viewBox="0 0 124 124" fill="none" xmlns="http://www.w3.org/2000/svg">
<rect x="10" y="10" width="104" height="47" rx="10" fill="#589BFF"/>
<path d="M49.676 40.12C49.0893 40.12 48.5247 39.9733 47.982 39.68C47.4393 39.372 47.058 38.888 46.838 38.228H46.816C46.684 38.58 46.486 38.8733 46.222 39.108C45.958 39.3427 45.6647 39.5333 45.342 39.68C45.034 39.8267 44.7187 39.9293 44.396 39.988C44.0733 40.0467 43.78 40.076 43.516 40.076C42.108 40.076 41.0373 39.68 40.304 38.888C39.5707 38.096 39.204 37.0327 39.204 35.698V33.982C39.204 32.6327 39.556 31.5693 40.26 30.792C40.9787 30 41.954 29.604 43.186 29.604C44.0073 29.604 44.66 29.7287 45.144 29.978C45.628 30.2273 45.9727 30.528 46.178 30.88V29.736H48.246V36.666C48.246 37.282 48.3707 37.7367 48.62 38.03C48.8693 38.3087 49.2287 38.448 49.698 38.448C50.0647 38.448 50.3873 38.382 50.666 38.25C50.9447 38.1033 51.1793 37.876 51.37 37.568C51.5607 37.2453 51.7073 36.8347 51.81 36.336C51.9127 35.8227 51.964 35.1993 51.964 34.466V34.224C51.964 32.992 51.7807 31.892 51.414 30.924C51.062 29.956 50.534 29.1347 49.83 28.46C49.126 27.7707 48.2607 27.25 47.234 26.898C46.2073 26.5313 45.0267 26.348 43.692 26.348C42.548 26.348 41.4993 26.5313 40.546 26.898C39.5927 27.2647 38.7713 27.8 38.082 28.504C37.4073 29.1933 36.8793 30.044 36.498 31.056C36.1167 32.068 35.926 33.212 35.926 34.488V34.862C35.926 36.226 36.1093 37.436 36.476 38.492C36.8573 39.5333 37.4 40.406 38.104 41.11C38.808 41.8287 39.666 42.3713 40.678 42.738C41.7047 43.1193 42.856 43.31 44.132 43.31C45.232 43.31 46.3247 43.1853 47.41 42.936C48.4953 42.7013 49.4927 42.3493 50.402 41.88L51.018 43.42C50.094 43.9187 49.0527 44.3 47.894 44.564C46.75 44.8427 45.518 44.982 44.198 44.982C42.614 44.982 41.1987 44.7473 39.952 44.278C38.7053 43.8087 37.6493 43.134 36.784 42.254C35.9187 41.374 35.2513 40.3107 34.782 39.064C34.3273 37.8173 34.1 36.424 34.1 34.884V34.466C34.1 33.058 34.32 31.76 34.76 30.572C35.2147 29.3693 35.8527 28.3353 36.674 27.47C37.51 26.6047 38.5147 25.93 39.688 25.446C40.876 24.9473 42.2107 24.698 43.692 24.698C45.32 24.698 46.7573 24.9327 48.004 25.402C49.2507 25.8567 50.2993 26.502 51.15 27.338C52.0007 28.174 52.646 29.1713 53.086 30.33C53.526 31.4887 53.746 32.7647 53.746 34.158V34.444C53.746 35.0893 53.68 35.7493 53.548 36.424C53.4307 37.084 53.218 37.6927 52.91 38.25C52.602 38.7927 52.184 39.24 51.656 39.592C51.1427 39.944 50.4827 40.12 49.676 40.12ZM41.382 35.346C41.382 36.182 41.5653 36.8493 41.932 37.348C42.2987 37.832 42.878 38.074 43.67 38.074C43.978 38.074 44.2713 38.0373 44.55 37.964C44.8433 37.8907 45.1 37.766 45.32 37.59C45.5547 37.414 45.738 37.1793 45.87 36.886C46.002 36.5927 46.068 36.226 46.068 35.786V33.85C46.068 33.5567 46.024 33.278 45.936 33.014C45.8627 32.7353 45.7307 32.4933 45.54 32.288C45.3493 32.068 45.1 31.8993 44.792 31.782C44.484 31.65 44.11 31.584 43.67 31.584C42.9513 31.584 42.3867 31.782 41.976 32.178C41.58 32.574 41.382 33.2927 41.382 34.334V35.346Z" fill="#A6C8FE"/>
<rect x="10" y="57" width="104" height="47" rx="23.5" fill="#FFF564"/>
<path d="M88.693 56.738C86.2118 62.4148 89.9122 66.3563 92.0725 67.6175C92.1326 62.0657 96.034 57.5871 97.9771 56.0419L88.693 56.738Z" fill="#589BFF"/>
<path d="M46.8861 102.655C49.3673 108.332 45.6669 112.274 43.5066 113.535C43.4465 107.983 39.5452 103.505 37.602 101.959L46.8861 102.655Z" fill="#FFF564"/>
<path d="M77.0032 40.8791C76.3841 41.4297 76.3286 42.3778 76.8791 42.9968C77.4297 43.6159 78.3778 43.6714 78.9968 43.1209L77.0032 40.8791ZM85 25.9118C84.1716 25.9118 83.5 26.5833 83.5 27.4118C83.5 28.2402 84.1716 28.9118 85 28.9118V25.9118ZM92.5 35.4118C92.5 36.2402 93.1716 36.9118 94 36.9118C94.8284 36.9118 95.5 36.2402 95.5 35.4118H92.5ZM78.9968 43.1209L94.9688 28.9164L92.9751 26.6746L77.0032 40.8791L78.9968 43.1209ZM85 28.9118H95V25.9118H85V28.9118ZM95.5 35.4118V26H92.5V35.4118H95.5Z" fill="#A6C8FE"/>
<path d="M36 80.5H56M36.7143 79.7406L42.2553 75M36.7143 81.2594L42.2553 86" stroke="#333333" stroke-width="3" stroke-linecap="round"/>
<path d="M71.0147 80.5C71.0147 81.3284 70.116 82 69.0074 82C67.8987 82 67 81.3284 67 80.5C67 79.6716 67.8987 79 69.0074 79C70.116 79 71.0147 79.6716 71.0147 80.5Z" fill="#333333"/>
<path d="M79.5074 80.5C79.5074 81.3284 78.6086 82 77.5 82C76.3914 82 75.4926 81.3284 75.4926 80.5C75.4926 79.6716 76.3914 79 77.5 79C78.6086 79 79.5074 79.6716 79.5074 80.5Z" fill="#333333"/>
<path d="M88 80.5C88 81.3284 87.1013 82 85.9926 82C84.884 82 83.9853 81.3284 83.9853 80.5C83.9853 79.6716 84.884 79 85.9926 79C87.1013 79 88 79.6716 88 80.5Z" fill="#333333"/>
</svg>
