<svg width="204" height="40" viewBox="0 0 204 40" fill="none" xmlns="http://www.w3.org/2000/svg">
<g clip-path="url(#clip0_819_10564)">
<path d="M69.0176 13.0986V27.7254C69.0176 31.6244 71.3754 33.8079 75.0728 34.4094C76.5119 34.6434 81.2055 34.7771 83.0763 34.3092V29.8977C80.652 30.4102 77.2867 30.2319 75.8477 29.8086C74.7296 29.4744 73.9879 28.5387 73.9879 27.3244V13.0986H69.0176Z" fill="#004EA2"/>
<path d="M91.7552 16.9976C86.3642 16.9976 82.6558 20.9968 82.6558 25.9318C82.6558 30.8668 85.8217 34.8661 91.7552 34.8661C97.6886 34.8661 100.855 30.8668 100.855 25.9318C100.855 20.9968 97.1462 16.9976 91.7552 16.9976ZM91.7552 30.4435C89.1427 30.4435 87.7036 28.4272 87.7036 25.9318C87.7036 23.4365 89.198 21.4201 91.7552 21.4201C94.3123 21.4201 95.7956 23.4476 95.7956 25.9318C95.7956 28.416 94.3566 30.4435 91.7552 30.4435Z" fill="#00A0D2"/>
<path d="M132.193 16.9976C126.802 16.9976 123.094 20.9968 123.094 25.9318C123.094 30.8668 126.26 34.8661 132.193 34.8661C138.127 34.8661 141.293 30.8668 141.293 25.9318C141.293 20.9968 137.584 16.9976 132.193 16.9976ZM132.193 30.4435C129.592 30.4435 128.153 28.4272 128.153 25.9318C128.153 23.4365 129.647 21.4201 132.193 21.4201C134.739 21.4201 136.234 23.4476 136.234 25.9318C136.234 28.416 134.795 30.4435 132.193 30.4435Z" fill="#8FC31F"/>
<path d="M121.046 30.5772C120.171 30.5326 119.286 30.4324 119.286 29.6971V21.5538H123.625V17.1758H119.186V13.0874H114.304V17.1758H108.183V13.0874H103.301V17.1758H100.246V21.5538H103.301V30.722C103.301 33.7966 106.334 34.3982 107.906 34.5653C109.434 34.7324 111.946 34.4762 113.02 34.2645V30.1762C112.256 30.4212 110.574 30.5883 110.031 30.5772C109.157 30.5326 108.271 30.4324 108.271 29.6971V21.5538H114.304V30.722C114.304 33.7966 117.337 34.3982 118.898 34.5653C120.437 34.7324 122.662 34.5207 123.636 34.2979V30.2096C122.983 30.4546 121.577 30.5883 121.035 30.5661L121.046 30.5772Z" fill="#004EA2"/>
<path d="M156.779 21.019L150.791 34.9997H152.65L158.65 21.019H156.779Z" fill="#8FC31F"/>
<path d="M173.772 26.6338C172.963 25.776 171.923 25.3415 170.661 25.3415C170.594 25.3415 170.506 25.3415 170.417 25.3415C170.329 25.3415 170.24 25.3527 170.141 25.3638L170.783 23.2027H174.79V21.3423H169.41L167.362 28.2379H168.015C168.657 27.4581 169.421 27.0794 170.296 27.0794C171.093 27.0794 171.746 27.3579 172.277 27.9037C172.808 28.4385 173.063 29.118 173.063 29.9535C173.063 30.789 172.797 31.4574 172.266 32.0367C171.735 32.5937 171.07 32.8722 170.285 32.8722C169.676 32.8722 169.166 32.7274 168.757 32.4489C168.336 32.1592 167.927 31.6691 167.517 30.9672L166.034 32.2372C167.03 33.8636 168.392 34.6769 170.118 34.6769C171.513 34.6769 172.676 34.2313 173.594 33.3401C174.524 32.4489 174.978 31.3126 174.978 29.9312C174.978 28.5499 174.569 27.5027 173.76 26.6449L173.772 26.6338Z" fill="#004EA2"/>
<path d="M150.104 27.3913C149.329 26.5781 148.421 26.1659 147.359 26.1659C147.292 26.1659 147.204 26.1659 147.082 26.1882C146.971 26.1882 146.816 26.2216 146.65 26.2327L150.292 21.3423H148.045L143.772 27.1017C142.92 28.2602 142.499 29.3631 142.499 30.3991C142.499 31.5577 142.931 32.5491 143.805 33.3958C144.691 34.2313 145.731 34.6546 146.905 34.6546C148.078 34.6546 149.119 34.2313 149.971 33.3735C150.824 32.5157 151.255 31.4797 151.255 30.2877C151.255 29.1626 150.879 28.1934 150.115 27.3802L150.104 27.3913ZM148.61 32.1481C148.134 32.6271 147.558 32.8722 146.883 32.8722C146.207 32.8722 145.61 32.6382 145.134 32.1481C144.658 31.6691 144.414 31.0898 144.414 30.3991C144.414 29.7084 144.658 29.1291 145.134 28.6501C145.61 28.1711 146.196 27.926 146.883 27.926C147.569 27.926 148.145 28.1711 148.621 28.6501C149.097 29.1291 149.34 29.7196 149.34 30.4102C149.34 31.1009 149.097 31.6468 148.621 32.1369L148.61 32.1481Z" fill="#004EA2"/>
<path d="M163.775 21.353H162.214L156.192 31.4681V32.5933H161.816V34.4537H163.775V32.5933H165.159V30.7997H163.775V21.353ZM161.816 30.7997H158.816L161.816 25.6642V30.7997Z" fill="#004EA2"/>
<path d="M46.2138 5.91355L44.9408 5.38997C44.7747 5.32313 44.509 5.32313 44.343 5.38997L43.07 5.91355L41.7969 6.42599L41.498 6.54853L42.3836 12.9986H46.9887L47.7636 6.54853L47.4647 6.42599L46.1917 5.90241L46.2138 5.91355Z" fill="url(#paint0_linear_819_10564)"/>
<path d="M39.9371 5.91355L38.664 5.38997C38.498 5.32313 38.2323 5.32313 38.0663 5.38997L36.7932 5.91355L35.5202 6.43713C35.3542 6.50397 35.2877 6.69335 35.3652 6.84931L38.2323 13.0097H42.3946L41.509 6.55967L41.2101 6.43713L39.9371 5.92469V5.91355Z" fill="url(#paint1_linear_819_10564)"/>
<path d="M53.7521 6.43722L52.4791 5.92478L51.2171 5.4012C51.0511 5.33436 50.7854 5.33436 50.6193 5.4012L49.3463 5.92478L48.0733 6.43722L47.7744 6.55976L46.9995 13.0098H51.1618L53.9182 6.86054C53.9956 6.69344 53.9182 6.5152 53.7521 6.43722Z" fill="url(#paint2_linear_819_10564)"/>
<path d="M42.3948 13.2104H38.1329L30.063 21.2312C28.5021 22.7574 28.801 24.8183 30.063 26.1774L36.8156 34.1648C36.9263 34.2985 37.0923 34.4099 37.2694 34.499L42.3948 13.4667V13.2104Z" fill="url(#paint3_linear_819_10564)"/>
<path d="M59.2322 26.1886C60.4941 24.8184 60.793 22.7575 59.2322 21.2425L51.1622 13.2217H47.0664L52.0368 34.5102C52.2139 34.4211 52.3799 34.3097 52.4906 34.176L59.2432 26.1886H59.2322Z" fill="url(#paint4_linear_819_10564)"/>
<path d="M52.0256 34.5102L47.0553 13.2217H42.4613L37.2695 34.5102C37.4688 34.6105 37.6902 34.6662 37.8784 34.6662H51.4278C51.616 34.6662 51.8374 34.5993 52.0367 34.5102H52.0256Z" fill="url(#paint5_linear_819_10564)"/>
<path d="M56.0993 29.8872H33.1958L36.8156 34.165C36.9263 34.2986 37.0924 34.41 37.2695 34.4992C37.4688 34.5994 37.6902 34.6551 37.8783 34.6551H51.4278C51.616 34.6551 51.8374 34.5883 52.0367 34.4992C52.2138 34.41 52.3798 34.2986 52.4905 34.165L56.1104 29.8872H56.0993Z" fill="url(#paint6_linear_819_10564)"/>
<path d="M53.2765 12.1182H38.3876C37.8451 12.1182 37.4023 12.5638 37.4023 13.1096C37.4023 13.6555 37.8451 14.1011 38.3876 14.1011H53.2765" fill="white"/>
<path d="M53.2762 14.558H38.3873C37.5903 14.558 36.9482 13.9119 36.9482 13.1098C36.9482 12.3077 37.5903 11.6616 38.3873 11.6616H53.2762V12.5751H38.3873C38.0884 12.5751 37.856 12.809 37.856 13.1098C37.856 13.4106 38.0884 13.6445 38.3873 13.6445H53.2762V14.558Z" fill="#005083"/>
<path d="M38.4317 29.7529H33.085L33.3174 30.0314H38.3542L38.4317 29.7529Z" fill="url(#paint7_linear_819_10564)"/>
<path d="M50.9847 30.0314H55.9772L56.2097 29.7529H50.9072L50.9847 30.0314Z" fill="url(#paint8_linear_819_10564)"/>
<path d="M38.4317 29.7529L38.3652 30.0314H50.9848L50.9074 29.7529H38.4317Z" fill="url(#paint9_linear_819_10564)"/>
<path d="M63.2723 8.96584C63.2723 11.1493 61.5122 12.9317 59.3315 12.9317C57.1507 12.9317 55.3906 11.1604 55.3906 8.96584C55.3906 6.77126 57.1507 5 59.3315 5C61.5122 5 63.2723 6.77126 63.2723 8.96584Z" fill="#005083"/>
<path d="M62.398 8.95483C62.398 10.6704 61.0253 12.0517 59.3206 12.0517C57.6158 12.0517 56.2432 10.6704 56.2432 8.95483C56.2432 7.23927 57.6269 5.85791 59.3206 5.85791C61.0143 5.85791 62.398 7.23927 62.398 8.95483Z" fill="#009944"/>
<path d="M58.5233 8.20841C57.7595 9.15531 57.5935 9.34469 57.0068 9.43381C56.6193 9.48951 56.4312 9.15531 56.4312 8.67629C56.4312 8.19727 56.6083 7.58457 56.9625 7.08327C57.3721 6.49285 58.0031 6.16979 58.5676 6.09181C59.1322 6.01383 59.6414 6.16979 59.7853 6.54855C59.9956 7.09441 59.0326 7.58457 58.5233 8.20841Z" fill="#009944"/>
<path d="M56.9736 7.09465C57.3721 6.51537 58.0031 6.19231 58.5676 6.11433C59.1322 6.03635 59.6303 6.19231 59.7742 6.55993C59.9846 7.10579 59.0326 7.5848 58.5344 8.1975C57.7817 9.13326 57.6156 9.32264 57.04 9.40062C56.6525 9.45632 56.4644 9.12212 56.4644 8.65424C56.4644 8.18636 56.6415 7.57367 56.9846 7.08351L56.9736 7.09465Z" fill="#009A45"/>
<path d="M56.9846 7.09425C57.3832 6.52611 58.0031 6.20305 58.5566 6.12507C59.11 6.04709 59.6082 6.20305 59.741 6.57067C59.9403 7.10539 59.0104 7.58441 58.5123 8.18597C57.7706 9.11059 57.5935 9.28883 57.0289 9.37795C56.6525 9.43365 56.4644 9.11059 56.4644 8.64271C56.4644 8.17483 56.6415 7.57327 56.9736 7.09425H56.9846Z" fill="#009B46"/>
<path d="M56.9845 7.09439C57.3719 6.52625 57.9918 6.21433 58.5342 6.13635C59.0767 6.05837 59.5637 6.21433 59.7076 6.57081C59.9069 7.09439 58.9881 7.56227 58.501 8.17497C57.7704 9.07731 57.5933 9.26669 57.0398 9.35581C56.6634 9.41151 56.4863 9.08845 56.4863 8.63171C56.4863 8.17497 56.6634 7.58455 56.9955 7.10553L56.9845 7.09439Z" fill="#009C47"/>
<path d="M56.9955 7.09432C57.383 6.53732 57.9808 6.2254 58.5232 6.14742C59.0656 6.06944 59.5416 6.21426 59.6855 6.58188C59.8848 7.09432 58.977 7.5622 58.49 8.16376C57.7704 9.05496 57.5933 9.24434 57.0398 9.32232C56.6634 9.37802 56.4863 9.05496 56.4863 8.60936C56.4863 8.16376 56.6524 7.57334 56.9845 7.09432H56.9955Z" fill="#009C48"/>
<path d="M57.0066 7.09447C57.383 6.54861 57.9807 6.23669 58.5232 6.15871C59.0656 6.08073 59.5305 6.22555 59.6634 6.58203C59.8626 7.08333 58.966 7.55121 58.49 8.14163C57.7704 9.02169 57.6044 9.21107 57.062 9.28905C56.6966 9.34475 56.5195 9.03283 56.5195 8.58723C56.5195 8.14163 56.6856 7.56235 57.0177 7.09447H57.0066Z" fill="#009D49"/>
<path d="M57.0177 7.09456C57.394 6.5487 57.9807 6.24792 58.5121 6.16994C59.0435 6.09196 59.5084 6.23678 59.6412 6.59326C59.8294 7.09456 58.9549 7.5513 58.4789 8.13058C57.7704 8.9995 57.5933 9.18888 57.062 9.26686C56.6966 9.32256 56.5306 9.01064 56.5195 8.56504C56.5085 8.11944 56.6856 7.5513 57.0066 7.09456H57.0177Z" fill="#009E4A"/>
<path d="M57.0287 7.09423C57.4051 6.55951 57.9807 6.25873 58.501 6.18075C59.0213 6.10277 59.4862 6.24759 59.6191 6.59293C59.8073 7.08309 58.9438 7.53983 58.4789 8.10797C57.7815 8.95461 57.6044 9.14399 57.0841 9.2331C56.7299 9.28881 56.5527 8.97689 56.5527 8.54243C56.5527 8.10797 56.7188 7.53983 57.0287 7.09423Z" fill="#009F4C"/>
<path d="M57.04 7.09438C57.4053 6.55966 57.9809 6.27002 58.4901 6.20318C58.9993 6.13634 59.4532 6.27002 59.586 6.61536C59.7742 7.09438 58.9218 7.55112 58.4569 8.10812C57.7706 8.94362 57.5935 9.133 57.0842 9.21098C56.73 9.26668 56.564 8.9659 56.564 8.53144C56.564 8.09698 56.73 7.55112 57.04 7.09438Z" fill="#00A04D"/>
<path d="M57.0512 7.09452C57.4165 6.57094 57.9811 6.2813 58.4792 6.21446C58.9774 6.14762 59.4312 6.2813 59.5641 6.6155C59.7412 7.08338 58.911 7.52898 58.4571 8.08598C57.7818 8.91034 57.5937 9.09972 57.0955 9.1777C56.7523 9.2334 56.5863 8.93262 56.5752 8.5093C56.5642 8.08598 56.7302 7.54012 57.0402 7.09452H57.0512Z" fill="#00A14E"/>
<path d="M57.0623 7.09461C57.4165 6.58217 57.9811 6.29253 58.4792 6.22569C58.9773 6.15885 59.4201 6.29253 59.553 6.62673C59.7301 7.09461 58.9109 7.52907 58.4571 8.08607C57.7929 8.89929 57.6047 9.08867 57.1176 9.16665C56.7744 9.22235 56.6084 8.92157 56.6084 8.50939C56.6084 8.09721 56.7634 7.55135 57.0733 7.11689L57.0623 7.09461Z" fill="#00A250"/>
<path d="M57.073 7.09427C57.4272 6.58183 57.9697 6.30333 58.4678 6.23649C58.9659 6.16965 59.3977 6.30333 59.5194 6.62639C59.6966 7.08313 58.8885 7.51759 58.4457 8.06345C57.7925 8.85439 57.6044 9.05491 57.1173 9.12175C56.7741 9.17745 56.6191 8.87667 56.6191 8.47563C56.6191 8.07459 56.7741 7.52873 57.073 7.09427Z" fill="#00A351"/>
<path d="M57.0842 7.09436C57.4274 6.59306 57.9698 6.31456 58.4569 6.24772C58.944 6.18088 59.3757 6.31456 59.4975 6.63762C59.6635 7.08322 58.8775 7.51768 58.4348 8.0524C57.7927 8.8322 57.6045 9.03272 57.1285 9.09956C56.7964 9.14412 56.6304 8.86562 56.6304 8.45344C56.6304 8.04126 56.7854 7.51768 57.0842 7.09436Z" fill="#00A452"/>
<path d="M57.0951 7.0945C57.4383 6.60434 57.9697 6.32584 58.4457 6.259C58.9217 6.19216 59.3534 6.32584 59.4752 6.63776C59.6412 7.07222 58.8663 7.50668 58.4346 8.03026C57.8036 8.79892 57.6043 8.9883 57.1394 9.06628C56.8073 9.11084 56.6523 8.83234 56.6523 8.4313C56.6523 8.03026 56.8073 7.51782 57.0951 7.0945Z" fill="#00A553"/>
<path d="M57.1065 7.09459C57.4386 6.60443 57.97 6.33707 58.446 6.27023C58.922 6.20339 59.3316 6.33707 59.4533 6.64899C59.6194 7.07231 58.8556 7.49563 58.4238 8.01921C57.8039 8.77673 57.6047 8.96611 57.1508 9.03295C56.8298 9.07751 56.6748 8.79901 56.6748 8.40911C56.6748 8.01921 56.8187 7.50677 57.1065 7.09459Z" fill="#00A755"/>
<path d="M57.1065 7.09425C57.4386 6.61523 57.9589 6.34787 58.4238 6.28103C58.8888 6.21419 59.2984 6.34787 59.4201 6.64865C59.5862 7.07197 58.8334 7.48415 58.4128 7.99659C57.8039 8.73183 57.6047 8.93235 57.1508 8.99919C56.8298 9.04375 56.6748 8.77639 56.6748 8.38649C56.6748 7.99659 56.8187 7.49529 57.1065 7.08311V7.09425Z" fill="#00A856"/>
<path d="M57.1174 7.09419C57.4495 6.62631 57.9587 6.35895 58.4126 6.29211C58.8665 6.22527 59.276 6.34781 59.3978 6.65973C59.5528 7.07191 58.8222 7.48409 58.4015 7.99653C57.7927 8.72063 57.5934 8.92115 57.1617 8.98799C56.8518 9.03255 56.6968 8.76519 56.6968 8.38643C56.6968 8.00767 56.8407 7.50637 57.1174 7.10533V7.09419Z" fill="#00A958"/>
<path d="M57.1287 7.09434C57.4498 6.62646 57.959 6.37024 58.4018 6.3034C58.8446 6.23656 59.2541 6.3591 59.3648 6.65988C59.5198 7.06092 58.8003 7.4731 58.3907 7.9744C57.7929 8.68736 57.5937 8.88788 57.173 8.94358C56.8631 8.98814 56.7191 8.72078 56.7081 8.34202C56.697 7.96326 56.852 7.4731 57.1287 7.0832V7.09434Z" fill="#00AA59"/>
<path d="M57.1396 7.09443C57.4606 6.63769 57.9477 6.38147 58.4015 6.31463C58.8554 6.24779 59.2428 6.37033 59.3535 6.67111C59.5085 7.06101 58.8 7.47319 58.3905 7.96335C57.8038 8.66517 57.6045 8.86569 57.1838 8.92139C56.8739 8.96595 56.73 8.70973 56.73 8.33097C56.73 7.95221 56.8739 7.48433 57.1396 7.09443Z" fill="#00AB5A"/>
<path d="M57.1506 7.09458C57.4606 6.63784 57.9477 6.39276 58.3904 6.32592C58.8332 6.25908 59.2096 6.38162 59.3314 6.67126C59.4753 7.05002 58.8 7.4622 58.3904 7.94122C57.8148 8.62076 57.6156 8.82128 57.206 8.88812C56.9071 8.93268 56.7632 8.67646 56.7632 8.30884C56.7632 7.94122 56.896 7.47334 57.1728 7.08344L57.1506 7.09458Z" fill="#09AC5C"/>
<path d="M57.1616 7.09424C57.4716 6.64864 57.9476 6.40356 58.3793 6.34786C58.811 6.29216 59.1874 6.40356 59.2981 6.6932C59.442 7.07196 58.7778 7.46186 58.3683 7.94088C57.8037 8.60928 57.5934 8.8098 57.1949 8.87664C56.896 8.9212 56.7631 8.66498 56.7521 8.3085C56.741 7.95202 56.8849 7.48414 57.1506 7.10538L57.1616 7.09424Z" fill="#1FAE5D"/>
<path d="M57.1726 7.09438C57.4715 6.65992 57.9475 6.41484 58.3681 6.35914C58.7888 6.30344 59.1652 6.41484 59.2759 6.69334C59.4198 7.06096 58.7667 7.45086 58.3681 7.91874C57.8147 8.576 57.6043 8.77652 57.2169 8.83222C56.9291 8.87678 56.7852 8.6317 56.7852 8.27522C56.7852 7.91874 56.918 7.462 57.1726 7.09438Z" fill="#2CAF5F"/>
<path d="M57.1838 7.09447C57.4827 6.66001 57.9476 6.42607 58.3572 6.37037C58.7668 6.31467 59.1432 6.42607 59.2539 6.70457C59.3867 7.06105 58.7557 7.45095 58.3572 7.91883C57.8148 8.56495 57.6045 8.76547 57.217 8.82117C56.9292 8.86573 56.7964 8.62065 56.7964 8.27531C56.7964 7.92997 56.9292 7.47323 57.1838 7.11675V7.09447Z" fill="#34B060"/>
<path d="M57.1947 7.09461C57.4825 6.67129 57.9475 6.43735 58.3571 6.38165C58.7667 6.32595 59.132 6.43735 59.2316 6.70471C59.3644 7.05005 58.7445 7.43995 58.3571 7.89669C57.8257 8.52053 57.6043 8.73219 57.239 8.78789C56.9623 8.83245 56.8184 8.58737 56.8184 8.24203C56.8184 7.89669 56.9512 7.46223 57.1947 7.09461Z" fill="#3CB162"/>
<path d="M57.206 7.09421C57.4938 6.68203 57.9476 6.44809 58.3462 6.39239C58.7447 6.3367 59.11 6.44809 59.2096 6.71545C59.3424 7.06079 58.7336 7.43955 58.3462 7.88515C57.8259 8.49785 57.6045 8.69837 57.2392 8.75407C56.9624 8.79863 56.8296 8.55355 56.8296 8.21935C56.8296 7.88515 56.9514 7.45069 57.206 7.09421Z" fill="#43B363"/>
<path d="M57.217 7.09436C57.5048 6.68218 57.9366 6.45938 58.3351 6.40368C58.7336 6.34798 59.0768 6.45938 59.1875 6.7156C59.3092 7.0498 58.7225 7.42856 58.3462 7.86302C57.8369 8.46458 57.6155 8.6651 57.2613 8.7208C56.9846 8.76536 56.8628 8.53142 56.8628 8.19722C56.8628 7.86302 56.9846 7.4397 57.2281 7.09436H57.217Z" fill="#4AB465"/>
<path d="M57.2279 7.09445C57.5047 6.69341 57.9364 6.47061 58.3239 6.41491C58.7113 6.35921 59.0545 6.47061 59.1541 6.72683C59.2759 7.04989 58.7002 7.41751 58.3239 7.85197C57.8257 8.44239 57.5932 8.64291 57.2501 8.69861C56.9844 8.74317 56.8516 8.50923 56.8516 8.18617C56.8516 7.86311 56.9733 7.43979 57.2058 7.09445H57.2279Z" fill="#50B567"/>
<path d="M57.2284 7.09459C57.5052 6.70469 57.9258 6.48189 58.3133 6.42619C58.7007 6.37049 59.0328 6.48189 59.1324 6.72697C59.2542 7.03889 58.6896 7.40651 58.3243 7.82983C57.8262 8.39797 57.6048 8.60963 57.2727 8.65419C57.007 8.69875 56.8853 8.46481 56.8853 8.15289C56.8853 7.84097 57.007 7.41765 57.2395 7.08345L57.2284 7.09459Z" fill="#55B768"/>
<path d="M57.2393 7.09454C57.505 6.70464 57.9256 6.49298 58.302 6.43728C58.6784 6.38158 59.0105 6.48184 59.1101 6.73806C59.2319 7.03884 58.6784 7.40646 58.3131 7.81864C57.826 8.37564 57.6046 8.5873 57.2836 8.63186C57.029 8.66528 56.9072 8.45362 56.8961 8.1417C56.8851 7.82978 57.0179 7.4176 57.2393 7.09454Z" fill="#5BB86A"/>
<path d="M57.2504 7.09421C57.5161 6.71545 57.9257 6.50379 58.291 6.44809C58.6563 6.39239 58.9884 6.49265 59.0769 6.73773C59.1876 7.03851 58.6563 7.39499 58.302 7.80717C57.826 8.35303 57.6046 8.56469 57.2836 8.60925C57.029 8.64267 56.9072 8.43101 56.9072 8.11909C56.9072 7.80717 57.0179 7.41727 57.2504 7.09421Z" fill="#60B96C"/>
<path d="M57.2613 7.0943C57.5159 6.72668 57.9255 6.51502 58.2797 6.45932C58.634 6.40362 58.966 6.50388 59.0546 6.74896C59.1653 7.0386 58.645 7.39508 58.2908 7.79612C57.8259 8.33084 57.5934 8.53136 57.2945 8.57592C57.051 8.60934 56.9292 8.39768 56.9292 8.0969C56.9292 7.79612 57.0399 7.40622 57.2613 7.08316V7.0943Z" fill="#65BA6D"/>
<path d="M57.2722 7.09446C57.5268 6.72684 57.9254 6.52632 58.2796 6.47062C58.6338 6.41492 58.9438 6.51518 59.0323 6.74912C59.143 7.02762 58.6338 7.37295 58.2907 7.77399C57.8368 8.28643 57.6043 8.49809 57.3055 8.54265C57.0619 8.57607 56.9512 8.37555 56.9401 8.07477C56.9291 7.77399 57.0508 7.39523 57.2722 7.08332V7.09446Z" fill="#69BC6F"/>
<path d="M57.2834 7.09458C57.527 6.7381 57.9144 6.53758 58.2686 6.49302C58.6229 6.44846 58.9218 6.53758 59.0103 6.77152C59.1099 7.03888 58.6229 7.38422 58.2797 7.77412C57.8369 8.27542 57.6045 8.48708 57.3166 8.53164C57.0731 8.56506 56.9624 8.36454 56.9624 8.0749C56.9624 7.78526 57.0731 7.4065 57.2834 7.10572V7.09458Z" fill="#6DBD71"/>
<path d="M57.2948 7.09424C57.5384 6.73776 57.9147 6.54838 58.2579 6.50382C58.6011 6.45926 58.8999 6.54838 58.9885 6.77118C59.0881 7.03854 58.6121 7.37274 58.28 7.75149C57.8483 8.24165 57.6048 8.45331 57.328 8.49787C57.0956 8.53129 56.9849 8.33077 56.9849 8.05227C56.9849 7.77377 57.0956 7.39502 57.2948 7.10538V7.09424Z" fill="#72BE73"/>
<path d="M57.3059 7.09433C57.5494 6.74899 57.9147 6.55961 58.2468 6.51505C58.5789 6.47049 58.8778 6.55961 58.9553 6.78241C59.0549 7.03863 58.59 7.37283 58.2579 7.74045C57.8372 8.21947 57.5937 8.43112 57.328 8.46454C57.0956 8.49796 56.9849 8.29745 56.9849 8.01895C56.9849 7.74045 57.0956 7.38397 57.2948 7.08319L57.3059 7.09433Z" fill="#76C075"/>
<path d="M57.3168 7.09447C57.5493 6.76027 57.9146 6.57089 58.2356 6.52633C58.5566 6.48177 58.8555 6.57089 58.933 6.78255C59.0215 7.02763 58.5788 7.36183 58.2577 7.72945C57.8481 8.18619 57.6046 8.39785 57.3389 8.44241C57.1175 8.47583 57.0068 8.28645 57.0068 8.00795C57.0068 7.72945 57.1065 7.38411 57.3057 7.09447H57.3168Z" fill="#7AC177"/>
<path d="M57.3279 7.09456C57.5603 6.76036 57.9146 6.58212 58.2356 6.53756C58.5566 6.493 58.8334 6.58212 58.9219 6.79378C59.0105 7.02772 58.5787 7.36192 58.2577 7.7184C57.8592 8.164 57.6157 8.37566 57.3611 8.42022C57.1397 8.45364 57.04 8.26426 57.04 7.9969C57.04 7.72954 57.1397 7.3842 57.3389 7.1057L57.3279 7.09456Z" fill="#7EC379"/>
<path d="M57.3391 7.09421C57.5605 6.77115 57.9147 6.59291 58.2247 6.54835C58.5346 6.50379 58.8114 6.59291 58.8889 6.79343C58.9774 7.01623 58.5568 7.33929 58.2468 7.69577C57.8594 8.13023 57.6048 8.34189 57.3723 8.37531C57.162 8.40873 57.0513 8.21935 57.0513 7.96313C57.0513 7.70691 57.1509 7.36157 57.3391 7.09421Z" fill="#82C47B"/>
<path d="M57.3498 7.0943C57.5712 6.78239 57.9144 6.60415 58.2133 6.55959C58.5122 6.51503 58.7889 6.60415 58.8664 6.80467C58.955 7.02746 58.5454 7.33938 58.2354 7.68472C57.859 8.10804 57.6044 8.3197 57.372 8.35312C57.1616 8.38654 57.062 8.2083 57.062 7.95208C57.062 7.69586 57.1616 7.36166 57.3498 7.0943Z" fill="#86C57C"/>
<path d="M57.3501 7.09445C57.5605 6.78253 57.8926 6.61543 58.1915 6.57087C58.4903 6.52631 58.756 6.61543 58.8335 6.80481C58.911 7.01647 58.5235 7.32839 58.2247 7.66259C57.8594 8.07477 57.6048 8.28643 57.3834 8.31985C57.173 8.35327 57.0845 8.17503 57.0845 7.92995C57.0845 7.68487 57.1841 7.36181 57.3612 7.09445H57.3501Z" fill="#8AC77E"/>
<path d="M57.3612 7.09442C57.5715 6.79364 57.8926 6.62654 58.1915 6.58198C58.4903 6.53742 58.7449 6.6154 58.8114 6.81592C58.8889 7.01644 58.5125 7.32836 58.2136 7.65142C57.8483 8.04132 57.5937 8.26412 57.3834 8.2864C57.1841 8.31982 57.0845 8.14158 57.0845 7.8965C57.0845 7.65142 57.173 7.3395 57.3501 7.08328L57.3612 7.09442Z" fill="#8EC881"/>
<path d="M57.3723 7.09457C57.5715 6.80494 57.8926 6.63784 58.1804 6.59328C58.4682 6.54872 58.7228 6.6267 58.7892 6.81608C58.8667 7.00545 58.5014 7.31737 58.2136 7.62929C57.8594 8.00805 57.6047 8.21971 57.4055 8.25313C57.2062 8.28655 57.1177 8.11945 57.1177 7.87437C57.1177 7.62929 57.2062 7.32851 57.3834 7.08343L57.3723 7.09457Z" fill="#91CA83"/>
<path d="M57.3832 7.09418C57.5825 6.80454 57.8924 6.64858 58.1692 6.60402C58.4459 6.55946 58.6895 6.63744 58.7669 6.82682C58.8334 7.00506 58.4902 7.31698 58.2024 7.6289C57.8592 7.99652 57.6046 8.20818 57.4054 8.2416C57.2061 8.27502 57.1286 8.10792 57.1175 7.87398C57.1065 7.64004 57.2061 7.33926 57.3721 7.09418H57.3832Z" fill="#95CB85"/>
<path d="M57.3943 7.09434C57.5935 6.81584 57.8924 6.65988 58.1581 6.61532C58.4237 6.57076 58.6673 6.64874 58.7337 6.82698C58.8001 7.00522 58.468 7.29486 58.1913 7.60678C57.8592 7.96326 57.6046 8.17492 57.4164 8.20834C57.2282 8.24176 57.1396 8.07466 57.1396 7.85186C57.1396 7.62906 57.2282 7.32828 57.3943 7.09434Z" fill="#99CD87"/>
<path d="M57.4052 7.09444C57.5933 6.81594 57.8922 6.67112 58.1579 6.6377C58.4236 6.60428 58.656 6.67112 58.7225 6.84936C58.7889 7.01646 58.4679 7.3061 58.1911 7.60688C57.8701 7.94108 57.6044 8.16388 57.4273 8.18616C57.2502 8.20844 57.1616 8.05248 57.1616 7.84082C57.1616 7.62916 57.2502 7.33952 57.4052 7.10558V7.09444Z" fill="#9CCE89"/>
<path d="M57.4165 7.09458C57.6047 6.82722 57.8926 6.6824 58.1472 6.64898C58.4018 6.61556 58.6342 6.6824 58.7006 6.8495C58.756 7.00546 58.4682 7.2951 58.1914 7.58474C57.8815 7.9078 57.6158 8.1306 57.4498 8.15288C57.2726 8.17516 57.1841 8.03034 57.1841 7.81868C57.1841 7.60702 57.2616 7.32852 57.4165 7.09458Z" fill="#A0CF8B"/>
<path d="M57.4276 7.09418C57.6047 6.83796 57.8815 6.69314 58.1361 6.65972C58.3907 6.6263 58.6121 6.69314 58.6674 6.86024C58.7228 7.00506 58.446 7.2947 58.1693 7.5732C57.8704 7.88512 57.6047 8.10792 57.4387 8.1302C57.2616 8.15248 57.1841 8.00766 57.1841 7.796C57.1841 7.58434 57.2616 7.31698 57.4165 7.09418H57.4276Z" fill="#A3D18D"/>
<path d="M57.4387 7.09432C57.6158 6.8381 57.8815 6.70442 58.125 6.671C58.3685 6.63758 58.5789 6.70442 58.6453 6.86038C58.7006 7.0052 58.435 7.2837 58.1693 7.55106C57.8815 7.85184 57.6047 8.0635 57.4608 8.08578C57.2948 8.10806 57.2173 7.96324 57.2173 7.76272C57.2173 7.5622 57.2948 7.29484 57.4387 7.08318V7.09432Z" fill="#A7D28F"/>
<path d="M57.4494 7.09442C57.6155 6.84934 57.8811 6.71566 58.1136 6.68224C58.3461 6.64882 58.5564 6.71566 58.6228 6.87162C58.6782 7.0053 58.4236 7.28379 58.1579 7.55115C57.8811 7.82965 57.6044 8.05245 57.4716 8.07473C57.3055 8.09701 57.228 7.96333 57.228 7.76281C57.228 7.56229 57.3055 7.30608 57.4494 7.10556V7.09442Z" fill="#AAD491"/>
<path d="M57.4608 7.09456C57.6269 6.86062 57.8815 6.72694 58.1139 6.69352C58.3464 6.6601 58.5457 6.72694 58.601 6.87176C58.6453 6.9943 58.4128 7.2728 58.1582 7.52902C57.9036 7.78524 57.6158 8.01918 57.483 8.04146C57.328 8.06374 57.2505 7.93006 57.2505 7.74068C57.2505 7.5513 57.328 7.29508 57.4608 7.09456Z" fill="#ADD593"/>
<path d="M57.4717 7.09465C57.6267 6.86071 57.8813 6.73817 58.1027 6.70475C58.3241 6.67133 58.5234 6.73817 58.5787 6.88299C58.623 6.99439 58.4016 7.26175 58.147 7.51797C57.8924 7.77419 57.6156 7.99699 57.4939 8.00813C57.3389 8.03041 57.2725 7.89673 57.2725 7.71849C57.2725 7.54025 57.3389 7.29517 57.4828 7.09465H57.4717Z" fill="#B1D696"/>
<path d="M57.4939 7.97428C57.3499 7.99656 57.2725 7.87402 57.2725 7.68464C57.2725 7.49526 57.3389 7.27246 57.4717 7.08308C57.6267 6.86028 57.8702 6.73774 58.0806 6.70432C58.2909 6.6709 58.4901 6.73774 58.5455 6.87142C58.5898 6.97168 58.3794 7.23904 58.1359 7.48412C57.8924 7.7292 57.6046 7.952 57.4939 7.96314V7.97428Z" fill="#B4D898"/>
<path d="M59.4865 14.6696C59.4865 17.5103 57.195 19.8052 54.3833 19.8052C51.5716 19.8052 49.269 17.4992 49.269 14.6696C49.269 11.8401 51.5605 9.52295 54.3833 9.52295C57.2061 9.52295 59.4865 11.8289 59.4865 14.6696Z" fill="#005083"/>
<path d="M58.5786 14.6697C58.5786 17.0091 56.6967 18.8918 54.3721 18.8918C52.0474 18.8918 50.1655 16.998 50.1655 14.6697C50.1655 12.3415 52.0474 10.4365 54.3721 10.4365C56.6967 10.4365 58.5786 12.3303 58.5786 14.6697Z" fill="#E60012"/>
<path d="M53.2874 13.6447C52.2468 14.9369 52.0143 15.1931 51.2173 15.3157C50.6859 15.3936 50.4313 14.9369 50.4203 14.2908C50.4092 13.6447 50.6638 12.798 51.1398 12.1185C51.6933 11.3164 52.5567 10.8708 53.3427 10.7594C54.1287 10.648 54.8039 10.8597 55.0032 11.3721C55.291 12.1296 53.9737 12.7869 53.2874 13.6447Z" fill="#E60012"/>
<path d="M51.1512 12.1187C51.7047 11.3277 52.557 10.8933 53.3209 10.7819C54.0847 10.6705 54.771 10.8821 54.9592 11.3946C55.247 12.1409 53.9518 12.7982 53.2655 13.6337C52.236 14.9148 52.0036 15.171 51.2176 15.2824C50.6862 15.3604 50.4316 14.9037 50.4316 14.2687C50.4316 13.6337 50.6752 12.7982 51.1401 12.1187H51.1512Z" fill="#E60813"/>
<path d="M51.173 12.1183C51.7154 11.3385 52.5567 10.9041 53.3205 10.7927C54.0844 10.6813 54.7485 10.8929 54.9478 11.3942C55.2245 12.1183 53.9515 12.7756 53.2763 13.6111C52.2578 14.8699 52.0254 15.1261 51.2505 15.2375C50.7302 15.3155 50.4756 14.8699 50.4756 14.2349C50.4756 13.5999 50.7081 12.7867 51.173 12.1183Z" fill="#E61114"/>
<path d="M51.1842 12.1186C51.7156 11.3499 52.5569 10.9266 53.2986 10.8152C54.0402 10.7038 54.7044 10.9154 54.9037 11.4056C55.1804 12.1186 53.9185 12.7647 53.2543 13.589C52.2469 14.8256 52.0145 15.0818 51.2506 15.2043C50.7414 15.2823 50.4868 14.8367 50.4868 14.2129C50.4868 13.589 50.7193 12.7758 51.1842 12.1186Z" fill="#E61815"/>
<path d="M51.1953 12.1186C51.7266 11.3611 52.5458 10.9378 53.2875 10.8264C54.0292 10.715 54.6823 10.9267 54.8705 11.4168C55.1472 12.1186 53.9074 12.7648 53.2432 13.578C52.258 14.7922 52.0144 15.0596 51.2728 15.171C50.7636 15.249 50.52 14.8145 50.52 14.1907C50.52 13.5668 50.7525 12.7759 51.2063 12.1298L51.1953 12.1186Z" fill="#E71E17"/>
<path d="M51.2062 12.1184C51.7265 11.3609 52.5456 10.9487 53.2762 10.8484C54.0069 10.7482 54.6489 10.9487 54.8371 11.4277C55.1028 12.1184 53.8851 12.7533 53.232 13.5554C52.2578 14.7585 52.0143 15.0148 51.2837 15.1262C50.7855 15.2041 50.542 14.7697 50.542 14.157C50.542 13.5443 50.7745 12.7533 51.2173 12.1184H51.2062Z" fill="#E72418"/>
<path d="M51.2284 12.1185C51.7487 11.3722 52.5457 10.9711 53.2652 10.8597C53.9848 10.7483 54.6268 10.96 54.8039 11.4279C55.0696 12.1074 53.8741 12.7312 53.2209 13.5333C52.2579 14.7142 52.0143 14.9704 51.2948 15.0818C50.7966 15.1598 50.5642 14.7253 50.5531 14.1237C50.542 13.5222 50.7745 12.7424 51.2173 12.1074L51.2284 12.1185Z" fill="#E7281A"/>
<path d="M51.2394 12.1185C51.7486 11.3833 52.5457 10.9822 53.2541 10.882C53.9626 10.7817 54.5936 10.9711 54.7818 11.4501C55.0364 12.1185 53.863 12.7424 53.2209 13.5222C52.2689 14.6807 52.0254 14.9481 51.3169 15.0483C50.8299 15.1263 50.5974 14.703 50.5863 14.1126C50.5752 13.5222 50.8077 12.7535 51.2394 12.1297V12.1185Z" fill="#E72D1B"/>
<path d="M51.2507 12.1187C51.7488 11.3946 52.5348 10.9935 53.2322 10.8933C53.9296 10.793 54.5495 10.9824 54.7377 11.4503C54.9923 12.1075 53.8299 12.7202 53.199 13.5C52.2691 14.6475 52.0145 14.9037 51.3171 15.0151C50.83 15.0931 50.6086 14.6697 50.5975 14.0905C50.5865 13.5112 50.8189 12.7425 51.2507 12.1298V12.1187Z" fill="#E7311D"/>
<path d="M51.2617 12.1184C51.7598 11.4055 52.5236 11.0156 53.221 10.9153C53.9184 10.815 54.5273 11.0044 54.7044 11.4612C54.9479 12.1073 53.8188 12.72 53.1878 13.4775C52.269 14.6026 52.0144 14.87 51.3281 14.9703C50.8521 15.0371 50.6196 14.6361 50.6196 14.0568C50.6196 13.4775 50.841 12.7311 51.2617 12.1184Z" fill="#E8341E"/>
<path d="M51.2837 12.1185C51.7707 11.4167 52.5345 11.0268 53.2098 10.9265C53.8851 10.8263 54.4939 11.0157 54.671 11.4724C54.9146 12.1074 53.7965 12.7089 53.1766 13.4665C52.2689 14.5693 52.0143 14.8367 51.339 14.9369C50.8741 15.0038 50.6416 14.6027 50.6416 14.0346C50.6416 13.4665 50.8519 12.7312 51.2726 12.1297L51.2837 12.1185Z" fill="#E83820"/>
<path d="M51.2946 12.1182C51.7706 11.4276 52.5233 11.0377 53.1986 10.9485C53.8738 10.8594 54.4716 11.0377 54.6376 11.4833C54.8812 12.1071 53.7853 12.6975 53.1654 13.4439C52.2687 14.5356 52.0141 14.7918 51.3499 14.8921C50.885 14.9589 50.6636 14.569 50.6636 14.0009C50.6636 13.4328 50.8739 12.7087 51.2835 12.1182H51.2946Z" fill="#E83B21"/>
<path d="M51.3056 12.1184C51.7816 11.4389 52.5233 11.0601 53.1875 10.9599C53.8517 10.8596 54.4384 11.049 54.6044 11.4834C54.8369 12.0961 53.7631 12.6866 53.1543 13.4218C52.2798 14.4912 52.0141 14.7586 51.372 14.8477C50.9182 14.9146 50.6968 14.5247 50.6968 13.9677C50.6968 13.4107 50.9071 12.6977 51.3167 12.1073L51.3056 12.1184Z" fill="#E83E23"/>
<path d="M51.317 12.1186C51.7819 11.439 52.5126 11.0714 53.1657 10.9823C53.8188 10.8932 54.3944 11.0714 54.5715 11.5059C54.804 12.1074 53.7413 12.6867 53.1435 13.4108C52.2801 14.458 52.0144 14.7253 51.3834 14.8256C50.9296 14.8924 50.7192 14.5025 50.7192 13.9567C50.7192 13.4108 50.9296 12.6979 51.3281 12.1297L51.317 12.1186Z" fill="#E84125"/>
<path d="M51.3389 12.1187C51.8038 11.4503 52.5234 11.0827 53.1654 10.9936C53.8075 10.9045 54.3831 11.0827 54.5492 11.506C54.7706 12.0964 53.7411 12.6757 53.1433 13.3887C52.2909 14.4136 52.0252 14.6921 51.4053 14.7812C50.9625 14.848 50.7522 14.4693 50.7411 13.9234C50.7301 13.3775 50.9404 12.6869 51.3389 12.1187Z" fill="#E94426"/>
<path d="M51.3501 12.1185C51.804 11.4612 52.5125 11.1047 53.1435 11.0156C53.7744 10.9265 54.339 11.1047 54.505 11.5169C54.7264 12.0962 53.708 12.6643 53.1213 13.3661C52.28 14.3799 52.0143 14.6472 51.4055 14.7364C50.9738 14.8032 50.7634 14.4244 50.7524 13.9009C50.7413 13.3773 50.9516 12.6866 51.3391 12.1296L51.3501 12.1185Z" fill="#E94728"/>
<path d="M51.361 12.1184C51.8038 11.4723 52.5012 11.1158 53.1322 11.0267C53.7632 10.9375 54.3167 11.1046 54.4717 11.528C54.6931 12.085 53.6968 12.6531 53.1101 13.3549C52.2798 14.3464 52.0142 14.6137 51.4164 14.7029C50.9847 14.7697 50.7854 14.4021 50.7743 13.8785C50.7633 13.3549 50.9736 12.6754 51.35 12.1295L51.361 12.1184Z" fill="#E9492A"/>
<path d="M51.3725 12.1187C51.8153 11.4837 52.5016 11.1383 53.1215 11.0381C53.7415 10.9378 54.2839 11.1161 54.4388 11.5282C54.6492 12.0741 53.675 12.6422 53.0994 13.3218C52.2913 14.291 52.0146 14.5695 51.4279 14.6586C51.0072 14.7254 50.7969 14.3578 50.7969 13.8454C50.7969 13.3329 50.9851 12.6645 51.3725 12.1187Z" fill="#E94C2C"/>
<path d="M51.3946 12.1183C51.8264 11.4944 52.5016 11.1491 53.1105 11.06C53.7193 10.9709 54.2507 11.138 54.4056 11.539C54.616 12.0737 53.6529 12.6307 53.0994 13.2991C52.3024 14.2572 52.0256 14.5245 51.45 14.6136C51.0293 14.6805 50.8301 14.3129 50.8301 13.8116C50.8301 13.3103 51.0183 12.653 51.3946 12.1183Z" fill="#EA4F2D"/>
<path d="M51.4057 12.1184C51.8374 11.5057 52.5016 11.1603 53.0994 11.0712C53.6972 10.9821 54.2285 11.1492 54.3835 11.5502C54.5827 12.0738 53.6529 12.6197 53.0994 13.2881C52.3134 14.2238 52.0367 14.5023 51.4721 14.5803C51.0625 14.6472 50.8633 14.2907 50.8633 13.7894C50.8633 13.2881 51.0515 12.642 51.4168 12.1184H51.4057Z" fill="#EA512F"/>
<path d="M51.4164 12.1074C51.8371 11.5058 52.4902 11.1716 53.0769 11.0825C53.6636 10.9934 54.1839 11.1605 54.3389 11.5504C54.5381 12.0628 53.6193 12.6087 53.0769 13.2548C52.302 14.1683 52.0253 14.4468 51.4718 14.5248C51.0733 14.5805 50.874 14.2351 50.874 13.745C50.874 13.2548 51.0622 12.6198 51.4164 12.0962V12.1074Z" fill="#EA5431"/>
<path d="M51.4275 12.1075C51.8371 11.506 52.4902 11.1829 53.0658 11.0938C53.6415 11.0047 54.1507 11.1718 54.3057 11.5505C54.4939 12.0518 53.6083 12.5866 53.0658 13.2327C52.3131 14.1239 52.0253 14.4024 51.4939 14.4804C51.0954 14.5361 50.9072 14.2019 50.9072 13.7117C50.9072 13.2215 51.0843 12.5977 51.4386 12.0964L51.4275 12.1075Z" fill="#EA5633"/>
<path d="M51.4498 12.1072C51.8594 11.5168 52.4903 11.1937 53.0549 11.1157C53.6195 11.0378 54.1287 11.1937 54.2726 11.5725C54.4608 12.0626 53.5863 12.5974 53.0549 13.2212C52.3132 14.1013 52.0254 14.3798 51.5051 14.4577C51.1177 14.5134 50.9295 14.1792 50.9184 13.7002C50.9074 13.2212 51.0955 12.6085 51.4498 12.1072Z" fill="#EA5934"/>
<path d="M51.4607 12.1074C51.8592 11.5281 52.4791 11.2162 53.0437 11.1271C53.6082 11.0379 54.0953 11.205 54.2392 11.5727C54.4274 12.0517 53.564 12.5753 53.0437 13.1991C52.3131 14.0569 52.0252 14.3354 51.516 14.4134C51.1286 14.4691 50.9515 14.146 50.9404 13.6781C50.9293 13.2102 51.1175 12.6087 51.4607 12.1185V12.1074Z" fill="#EB5B36"/>
<path d="M51.4721 12.1074C51.8706 11.5393 52.4795 11.2274 53.0329 11.1494C53.5864 11.0714 54.0735 11.2162 54.2064 11.5838C54.3835 12.0517 53.5532 12.5642 53.0329 13.1769C52.3134 14.0124 52.0256 14.2909 51.5275 14.3688C51.1511 14.4245 50.9629 14.1015 50.9629 13.6447C50.9629 13.188 51.14 12.5864 51.4721 12.1074Z" fill="#EB5D38"/>
<path d="M51.483 12.1076C51.8704 11.5506 52.4682 11.2386 53.0106 11.1607C53.5531 11.0827 54.0291 11.2275 54.173 11.584C54.3501 12.0407 53.5309 12.5532 53.0217 13.1547C52.3243 13.9791 52.0254 14.2576 51.5384 14.3244C51.162 14.3801 50.9849 14.0571 50.9849 13.6115C50.9849 13.1659 51.1509 12.5754 51.483 12.0964V12.1076Z" fill="#EB603A"/>
<path d="M51.5051 12.1073C51.8815 11.5614 52.4793 11.2606 53.0106 11.1826C53.542 11.1047 54.0069 11.2495 54.1508 11.606C54.3169 12.0516 53.5309 12.5529 53.0217 13.1433C52.3354 13.9454 52.0254 14.2239 51.5605 14.3018C51.1952 14.3575 51.0181 14.0456 51.0181 13.6C51.0181 13.1544 51.1841 12.5863 51.5051 12.1184V12.1073Z" fill="#EB623C"/>
<path d="M51.5164 12.1074C51.8927 11.5727 52.4684 11.2719 52.9887 11.1939C53.5089 11.116 53.9739 11.2608 54.1067 11.6061C54.2728 12.0406 53.4979 12.5419 52.9997 13.1211C52.3245 13.9009 52.0145 14.1906 51.5606 14.2574C51.2064 14.3131 51.0293 14.0012 51.0293 13.5667C51.0293 13.1323 51.1953 12.5641 51.5164 12.1074Z" fill="#EC653E"/>
<path d="M51.5273 12.1071C51.8926 11.5835 52.4682 11.2828 52.9774 11.2159C53.4866 11.1491 53.9405 11.2828 54.0733 11.617C54.2394 12.0403 53.4756 12.5304 52.9885 13.0986C52.3243 13.8672 52.0143 14.1457 51.5716 14.2126C51.2173 14.2683 51.0513 13.9675 51.0513 13.533C51.0513 13.0986 51.2173 12.5527 51.5273 12.096V12.1071Z" fill="#EC6740"/>
<path d="M51.5382 12.1073C51.8924 11.5948 52.457 11.3052 52.9551 11.2272C53.4533 11.1492 53.9071 11.294 54.0289 11.6282C54.1839 12.0293 53.4533 12.5194 52.9662 13.0876C52.3241 13.834 52.0031 14.1125 51.5825 14.1793C51.2393 14.235 51.0732 13.9342 51.0732 13.5109C51.0732 13.0876 51.2282 12.5417 51.5382 12.1073Z" fill="#EC6942"/>
<path d="M51.5607 12.1075C51.9149 11.595 52.4573 11.3165 52.9555 11.2497C53.4536 11.1828 53.8853 11.3165 54.0071 11.6396C54.1621 12.0295 53.4425 12.5196 52.9665 13.0655C52.3356 13.7896 52.0145 14.0792 51.6049 14.1349C51.2618 14.1906 51.1068 13.8899 51.0957 13.4777C51.0847 13.0655 51.2507 12.5308 51.5496 12.0963L51.5607 12.1075Z" fill="#EC6C44"/>
<path d="M51.5717 12.1072C51.9149 11.6059 52.4573 11.3385 52.9444 11.2605C53.4315 11.1825 53.8521 11.3274 53.985 11.6393C54.1289 12.018 53.4425 12.4971 52.9665 13.0429C52.3466 13.7447 52.0256 14.0344 51.6271 14.1012C51.295 14.1569 51.14 13.8673 51.1289 13.4662C51.1179 13.0652 51.2839 12.5416 51.5828 12.1072H51.5717Z" fill="#ED6E46"/>
<path d="M51.5824 12.1073C51.9256 11.6171 52.4459 11.3498 52.9219 11.2829C53.3979 11.2161 53.8185 11.3498 53.9403 11.6617C54.0842 12.0293 53.409 12.5083 52.944 13.0319C52.3352 13.7226 52.0142 14.0122 51.6267 14.0679C51.3057 14.1125 51.1396 13.834 51.1396 13.4441C51.1396 13.0542 51.2836 12.5306 51.5824 12.1184V12.1073Z" fill="#ED7048"/>
<path d="M51.5938 12.1073C51.9259 11.6283 52.4462 11.3609 52.9111 11.2941C53.3761 11.2272 53.7857 11.3498 53.9074 11.6617C54.0403 12.0182 53.3982 12.486 52.9333 13.0096C52.3466 13.678 52.0145 13.9677 51.6381 14.0234C51.3171 14.0679 51.1621 13.8006 51.1621 13.4107C51.1621 13.0208 51.306 12.5195 51.5938 12.1073Z" fill="#ED724A"/>
<path d="M51.6158 12.1075C51.9368 11.6396 52.446 11.3834 52.8999 11.3166C53.3538 11.2497 53.7634 11.3723 53.874 11.6731C54.0069 12.0184 53.3759 12.4751 52.922 12.9876C52.3464 13.6337 52.0143 13.9233 51.649 13.979C51.3391 14.0236 51.1841 13.7562 51.1841 13.3775C51.1841 12.9987 51.328 12.5086 51.6047 12.1075H51.6158Z" fill="#ED754D"/>
<path d="M51.6267 12.1071C51.9477 11.6504 52.4459 11.3942 52.8887 11.3273C53.3315 11.2605 53.73 11.383 53.8407 11.6838C53.9735 12.018 53.3536 12.4747 52.9108 12.976C52.3462 13.611 52.0142 13.9007 51.6599 13.9452C51.35 13.9898 51.2061 13.7336 51.2061 13.3548C51.2061 12.976 51.35 12.497 51.6156 12.1071H51.6267Z" fill="#EE774F"/>
<path d="M51.6378 12.1073C51.9477 11.6617 52.4348 11.4055 52.8776 11.3498C53.3204 11.2941 53.6968 11.4055 53.8185 11.6952C53.9403 12.0182 53.3536 12.4638 52.9108 12.954C52.3684 13.5667 52.0252 13.8563 51.6821 13.912C51.3832 13.9566 51.2393 13.7003 51.2393 13.3327C51.2393 12.9651 51.3721 12.4972 51.6488 12.1073H51.6378Z" fill="#EE7951"/>
<path d="M51.6602 12.1075C51.9702 11.6731 52.4462 11.428 52.8668 11.3611C53.2875 11.2943 53.6749 11.4168 53.7856 11.6953C53.9074 12.0073 53.3318 12.4529 52.9001 12.9207C52.3687 13.5112 52.0255 13.8119 51.6934 13.8565C51.4056 13.9011 51.2617 13.6448 51.2617 13.2884C51.2617 12.9319 51.3946 12.464 51.6602 12.0964V12.1075Z" fill="#EE7B53"/>
<path d="M51.6712 12.1072C51.9701 11.6727 52.4351 11.4388 52.8557 11.3831C53.2764 11.3274 53.6417 11.4388 53.7524 11.7173C53.8631 12.018 53.3206 12.4525 52.8889 12.9204C52.3686 13.4997 52.0255 13.7893 51.7155 13.8339C51.4277 13.8784 51.2949 13.6333 51.2838 13.2769C51.2727 12.9204 51.4166 12.4748 51.6712 12.1072Z" fill="#EE7E55"/>
<path d="M51.682 12.1073C51.9698 11.684 52.4237 11.45 52.8332 11.3943C53.2428 11.3386 53.6081 11.45 53.7078 11.7174C53.8185 12.007 53.2871 12.4304 52.8665 12.8871C52.3572 13.4441 52.0141 13.7337 51.7152 13.7783C51.4384 13.8229 51.3056 13.5778 51.2945 13.2436C51.2835 12.9094 51.4274 12.4638 51.6709 12.0962L51.682 12.1073Z" fill="#EF8058"/>
<path d="M51.6933 12.1075C51.9811 11.6954 52.4239 11.4726 52.8224 11.4169C53.2209 11.3612 53.5751 11.4726 53.6748 11.7288C53.7744 11.985 53.2652 12.4306 52.8556 12.8762C52.3685 13.4109 52.0143 13.7117 51.7265 13.7563C51.4497 13.8008 51.3169 13.5669 51.3169 13.2327C51.3169 12.8985 51.4387 12.464 51.6822 12.1187L51.6933 12.1075Z" fill="#EF825A"/>
<path d="M51.7152 12.1071C51.992 11.7061 52.4237 11.4833 52.8112 11.4276C53.1986 11.3719 53.5418 11.4833 53.6414 11.7395C53.741 11.9957 53.2539 12.4191 52.8444 12.8535C52.3684 13.3771 52.0141 13.6667 51.7374 13.7113C51.4717 13.7559 51.3389 13.5219 51.3389 13.1989C51.3389 12.8758 51.4606 12.4525 51.7042 12.1071H51.7152Z" fill="#EF845C"/>
<path d="M51.7265 12.1072C52.0032 11.7173 52.4239 11.4945 52.8002 11.45C53.1766 11.4054 53.5198 11.4945 53.6194 11.7507C53.719 12.007 53.243 12.4191 52.8556 12.8425C52.3907 13.3438 52.0364 13.6334 51.7707 13.678C51.5051 13.7225 51.3833 13.4886 51.3833 13.1767C51.3833 12.8647 51.5051 12.4526 51.7375 12.1184L51.7265 12.1072Z" fill="#F0865F"/>
<path d="M51.7374 12.1074C52.003 11.7286 52.4126 11.517 52.789 11.4613C53.1654 11.4056 53.4864 11.5058 53.586 11.7509C53.6857 11.996 53.2318 12.397 52.8444 12.8092C52.3905 13.2882 52.0363 13.589 51.7816 13.6224C51.527 13.667 51.4053 13.4442 51.4053 13.1323C51.4053 12.8204 51.527 12.4193 51.7484 12.0963L51.7374 12.1074Z" fill="#F08961"/>
<path d="M51.7486 12.1075C52.0032 11.7399 52.4128 11.5282 52.767 11.4725C53.1213 11.4168 53.4534 11.5171 53.5419 11.7621C53.6305 11.9849 53.1987 12.386 52.8224 12.7982C52.3906 13.2549 52.0253 13.5557 51.7818 13.5891C51.5383 13.6225 51.4165 13.4109 51.4165 13.1101C51.4165 12.8093 51.5272 12.4194 51.7486 12.0963V12.1075Z" fill="#F08B64"/>
<path d="M51.7707 12.1072C52.0253 11.7508 52.4128 11.5502 52.767 11.4945C53.1212 11.4388 53.4312 11.5391 53.5198 11.773C53.5973 11.9847 53.1987 12.3857 52.8224 12.7756C52.4017 13.2212 52.0364 13.522 51.8039 13.5554C51.5604 13.5889 51.4497 13.3883 51.4497 13.0876C51.4497 12.7868 51.5604 12.408 51.7818 12.1072H51.7707Z" fill="#F08D66"/>
<path d="M51.7817 12.1074C52.0252 11.7509 52.4016 11.5615 52.7448 11.5058C53.0879 11.4501 53.3868 11.5504 53.4754 11.7732C53.5529 11.9737 53.1654 12.3636 52.8001 12.7535C52.3905 13.1768 52.0252 13.4776 51.8149 13.511C51.5824 13.5445 51.4717 13.3439 51.4607 13.0543C51.4496 12.7647 51.5714 12.397 51.7817 12.0963V12.1074Z" fill="#F18F68"/>
<path d="M51.7929 12.1075C52.0253 11.7622 52.4017 11.5728 52.7338 11.5282C53.0659 11.4837 53.3648 11.5728 53.4423 11.7956C53.5198 11.985 53.1434 12.3749 52.7892 12.7425C52.4017 13.1435 52.0253 13.4443 51.8261 13.4777C51.5936 13.5111 51.4829 13.3218 51.4829 13.0433C51.4829 12.7648 51.5825 12.4083 51.7929 12.1075Z" fill="#F1916B"/>
<path d="M51.8039 12.1072C52.0364 11.773 52.3906 11.5948 52.7227 11.5391C53.0548 11.4834 53.3316 11.5837 53.4201 11.7953C53.4865 11.9736 53.1434 12.3523 52.7891 12.7199C52.4128 13.1098 52.0364 13.4106 51.8482 13.4329C51.6268 13.4663 51.5161 13.2769 51.5161 13.0096C51.5161 12.7422 51.6157 12.3857 51.815 12.1072H51.8039Z" fill="#F1946D"/>
<path d="M51.8259 12.1074C52.0473 11.7843 52.4015 11.6061 52.7115 11.5615C53.0214 11.517 53.3093 11.6061 53.3867 11.8066C53.4532 11.9737 53.1211 12.3413 52.7779 12.6978C52.4347 13.0543 52.0362 13.3662 51.8591 13.3996C51.6488 13.4331 51.5381 13.2437 51.5381 12.9875C51.5381 12.7312 51.6377 12.3859 51.8259 12.1074Z" fill="#F19670"/>
<path d="M51.8373 12.1075C52.0587 11.7956 52.3908 11.6173 52.7007 11.5728C53.0107 11.5282 53.2764 11.6173 53.3539 11.8178C53.4092 11.9738 53.1103 12.3414 52.7672 12.6868C52.4129 13.0432 52.0366 13.344 51.8705 13.3663C51.6602 13.3997 51.5605 13.2215 51.5605 12.9653C51.5605 12.709 51.6602 12.386 51.8484 12.1186L51.8373 12.1075Z" fill="#F29872"/>
<path d="M51.8702 13.3214C51.6709 13.3548 51.5713 13.1766 51.5713 12.9315C51.5713 12.6864 51.6598 12.3633 51.848 12.1071C52.0584 11.8063 52.3905 11.6392 52.6783 11.5947C52.9661 11.5501 53.2318 11.6281 53.3093 11.8286C53.3646 11.9734 53.0768 12.3299 52.7447 12.6641C52.4126 12.9983 52.0252 13.2991 51.8702 13.3214Z" fill="#F29A75"/>
<path d="M59.8077 8.50929C59.5974 8.28649 59.3428 8.17509 59.0439 8.17509C59.0217 8.17509 58.9996 8.17509 58.9664 8.17509C58.9332 8.17509 58.8889 8.17509 58.8446 8.18623L59.852 6.82715H59.2321L58.0476 8.42017C57.8151 8.74323 57.6934 9.04401 57.6934 9.33365C57.6934 9.65671 57.8151 9.93521 58.0587 10.1691C58.3022 10.4031 58.59 10.5145 58.9221 10.5145C59.2542 10.5145 59.531 10.3919 59.7745 10.158C60.007 9.92407 60.1287 9.63443 60.1287 9.30023C60.1287 8.98831 60.018 8.72095 59.8077 8.49815V8.50929ZM59.387 9.82381C59.2542 9.95749 59.0992 10.0243 58.911 10.0243C58.7229 10.0243 58.5568 9.95749 58.424 9.82381C58.2911 9.69013 58.2247 9.53417 58.2247 9.34479C58.2247 9.15541 58.2911 8.98831 58.424 8.85463C58.5568 8.72095 58.7118 8.65411 58.911 8.65411C59.1103 8.65411 59.2542 8.72095 59.3981 8.85463C59.531 8.98831 59.5974 9.14427 59.5974 9.34479C59.5974 9.54531 59.531 9.69013 59.3981 9.82381H59.387Z" fill="white"/>
<path d="M56.4754 13.9233C56.2318 13.6671 55.9219 13.5445 55.5566 13.5445C55.5344 13.5445 55.5123 13.5445 55.4791 13.5445C55.457 13.5445 55.4237 13.5445 55.4016 13.5445L55.5898 12.8984H56.7853V12.3525H55.1913L54.5824 14.3912H54.7706C54.9588 14.1572 55.1913 14.0458 55.4459 14.0458C55.6783 14.0458 55.8776 14.1238 56.0326 14.2909C56.1876 14.4469 56.265 14.6474 56.265 14.9036C56.265 15.1598 56.1876 15.3492 56.0215 15.5163C55.8665 15.6834 55.6673 15.7614 55.4348 15.7614C55.2577 15.7614 55.1027 15.7168 54.9809 15.6388C54.8592 15.5497 54.7374 15.4049 54.6156 15.2044L54.1729 15.5831C54.4717 16.0622 54.8703 16.3072 55.3905 16.3072C55.8001 16.3072 56.1433 16.1736 56.42 15.9062C56.6857 15.6388 56.8296 15.3046 56.8296 14.8925C56.8296 14.4803 56.7078 14.1684 56.4643 13.9233H56.4754Z" fill="white"/>
<path d="M53.5089 12.3524H53.044L51.2617 15.3491V15.6833H52.9333V16.2403H53.52V15.6833H53.9295V15.1486H53.52V12.3413L53.5089 12.3524ZM52.9222 15.1597H52.0366L52.9222 13.6335V15.1597Z" fill="white"/>
</g>
<defs>
<linearGradient id="paint0_linear_819_10564" x1="41.6198" y1="8.83223" x2="47.5665" y2="9.86663" gradientUnits="userSpaceOnUse">
<stop stop-color="#FCCE00"/>
<stop offset="0.23" stop-color="#F6A900"/>
<stop offset="0.43" stop-color="#F18E00"/>
<stop offset="0.61" stop-color="#EE7D00"/>
<stop offset="0.75" stop-color="#EE7800"/>
<stop offset="1" stop-color="#A84200"/>
</linearGradient>
<linearGradient id="paint1_linear_819_10564" x1="35.4538" y1="10.2693" x2="41.9224" y2="8.83843" gradientUnits="userSpaceOnUse">
<stop stop-color="#AACE36"/>
<stop offset="0.8" stop-color="#00A33A"/>
<stop offset="1" stop-color="#306C30"/>
</linearGradient>
<linearGradient id="paint2_linear_819_10564" x1="47.4644" y1="8.65408" x2="52.1084" y2="10.174" gradientUnits="userSpaceOnUse">
<stop stop-color="#00A0E9"/>
<stop offset="0.03" stop-color="#0098E2"/>
<stop offset="0.19" stop-color="#0076C4"/>
<stop offset="0.31" stop-color="#0062B2"/>
<stop offset="0.4" stop-color="#005BAC"/>
</linearGradient>
<linearGradient id="paint3_linear_819_10564" x1="30.0187" y1="21.7771" x2="39.9204" y2="23.8572" gradientUnits="userSpaceOnUse">
<stop stop-color="#AACE36"/>
<stop offset="0.8" stop-color="#00A33A"/>
<stop offset="1" stop-color="#306C30"/>
</linearGradient>
<linearGradient id="paint4_linear_819_10564" x1="49.7785" y1="23.7935" x2="58.2986" y2="21.4815" gradientUnits="userSpaceOnUse">
<stop stop-color="#00A0E9"/>
<stop offset="0.08" stop-color="#008CD7"/>
<stop offset="0.2" stop-color="#0071BF"/>
<stop offset="0.31" stop-color="#0060B1"/>
<stop offset="0.4" stop-color="#005BAC"/>
</linearGradient>
<linearGradient id="paint5_linear_819_10564" x1="38.9521" y1="24.9298" x2="49.714" y2="23.6206" gradientUnits="userSpaceOnUse">
<stop stop-color="#FCCE00"/>
<stop offset="0.23" stop-color="#F6A900"/>
<stop offset="0.43" stop-color="#F18E00"/>
<stop offset="0.61" stop-color="#EE7D00"/>
<stop offset="0.75" stop-color="#EE7800"/>
<stop offset="1" stop-color="#A84200"/>
</linearGradient>
<linearGradient id="paint6_linear_819_10564" x1="44.642" y1="34.5214" x2="44.642" y2="29.9206" gradientUnits="userSpaceOnUse">
<stop stop-color="white" stop-opacity="0.67"/>
<stop offset="1" stop-color="white" stop-opacity="0"/>
</linearGradient>
<linearGradient id="paint7_linear_819_10564" x1="28.646" y1="28.3493" x2="38.5477" y2="30.4294" gradientUnits="userSpaceOnUse">
<stop stop-color="#AACE36"/>
<stop offset="0.8" stop-color="#00A33A"/>
<stop offset="1" stop-color="#306C30"/>
</linearGradient>
<linearGradient id="paint8_linear_819_10564" x1="51.5714" y1="30.4102" x2="60.0915" y2="28.0982" gradientUnits="userSpaceOnUse">
<stop stop-color="#00A0E9"/>
<stop offset="0.08" stop-color="#008CD7"/>
<stop offset="0.2" stop-color="#0071BF"/>
<stop offset="0.31" stop-color="#0060B1"/>
<stop offset="0.4" stop-color="#005BAC"/>
</linearGradient>
<linearGradient id="paint9_linear_819_10564" x1="39.6383" y1="30.5216" x2="50.4002" y2="29.2013" gradientUnits="userSpaceOnUse">
<stop stop-color="#FCCE00"/>
<stop offset="0.23" stop-color="#F6A900"/>
<stop offset="0.43" stop-color="#F18E00"/>
<stop offset="0.61" stop-color="#EE7D00"/>
<stop offset="0.75" stop-color="#EE7800"/>
<stop offset="1" stop-color="#A84200"/>
</linearGradient>
<clipPath id="clip0_819_10564">
<rect width="146" height="30" fill="white" transform="translate(29 5)"/>
</clipPath>
</defs>
</svg>
