<svg width="895" height="258" viewBox="0 0 895 258" fill="none" xmlns="http://www.w3.org/2000/svg">
<path d="M870.16 121.231C870.16 120.551 870.712 120 871.392 120C872.072 120 872.623 120.551 872.623 121.231V131.08C872.623 131.76 872.072 132.311 871.392 132.311C870.712 132.311 870.16 131.76 870.16 131.08V121.231Z" fill="white"/>
<path d="M893.552 142.16C894.232 142.16 894.783 142.712 894.783 143.392C894.783 144.072 894.232 144.623 893.552 144.623H883.703C883.023 144.623 882.472 144.072 882.472 143.392C882.472 142.712 883.023 142.16 883.703 142.16H893.552Z" fill="white"/>
<path d="M885.268 127.039C885.742 126.551 886.522 126.54 887.009 127.014C887.497 127.487 887.508 128.267 887.034 128.754L880.171 135.819C879.698 136.307 878.918 136.318 878.431 135.844C877.943 135.37 877.932 134.591 878.405 134.103L885.268 127.039Z" fill="white"/>
<path d="M881.402 151.661C880.929 151.174 880.149 151.162 879.662 151.636C879.174 152.11 879.163 152.889 879.636 153.377L886.499 160.442C886.973 160.929 887.752 160.941 888.24 160.467C888.728 159.993 888.739 159.214 888.265 158.726L881.402 151.661Z" fill="white"/>
<path d="M872.623 165.739C872.623 166.419 872.072 166.971 871.392 166.971C870.712 166.971 870.16 166.419 870.16 165.739V155.89C870.16 155.21 870.712 154.659 871.392 154.659C872.072 154.659 872.623 155.21 872.623 155.89V165.739Z" fill="white"/>
<path d="M849.231 144.81C848.551 144.81 848 144.259 848 143.579C848 142.899 848.551 142.348 849.231 142.348H859.08C859.76 142.348 860.311 142.899 860.311 143.579C860.311 144.259 859.76 144.81 859.08 144.81H849.231Z" fill="white"/>
<path d="M857.515 159.932C857.041 160.419 856.262 160.431 855.774 159.957C855.286 159.483 855.275 158.704 855.749 158.216L862.612 151.152C863.085 150.664 863.865 150.653 864.353 151.127C864.84 151.6 864.852 152.38 864.378 152.867L857.515 159.932Z" fill="white"/>
<path d="M861.381 135.309C861.855 135.797 862.634 135.808 863.122 135.334C863.609 134.86 863.621 134.081 863.147 133.593L856.284 126.529C855.81 126.041 855.031 126.03 854.543 126.504C854.055 126.978 854.044 127.757 854.518 128.245L861.381 135.309Z" fill="white"/>
<circle cx="625.322" cy="165.693" r="3.69341" fill="white"/>
<path d="M568.709 170.617C568.613 178.251 564.938 194.223 551 197.042C557.093 196.601 569.223 201.534 568.994 224.787C568.423 215.245 571.165 196.337 586.703 197.042C581.276 196.454 570.08 190.347 568.709 170.617Z" stroke="white" stroke-width="3" stroke-linecap="round"/>
<path d="M606.578 199.574C608.776 205.001 612.201 210.099 617.606 212.769C621.818 214.849 627.395 214.845 631.967 214.296C636.812 213.716 641.278 211.718 645.967 210.505C650.886 209.232 656.484 208.128 661.578 208.908C667.931 209.879 672.096 213.911 675.078 219.269C675.625 220.251 676.078 220.728 676.078 221.824" stroke="white" stroke-width="3" stroke-linecap="round"/>
<path d="M735.797 68.3009L764.839 76.0089L731.488 183.248L709.513 175.696L735.797 68.3009Z" fill="#444444"/>
<path d="M731.187 29.7041L744.422 8.13157C744.422 8.13157 748.272 -1.70892 757.263 0.260597C763.979 1.73179 781.082 6.44846 781.082 6.44846C781.082 6.44846 785.048 7.69233 786.24 22.1378C787.432 36.5833 786.405 46.5088 786.405 46.5088L765.909 79.7001C765.909 79.7001 764.308 83.1928 758.031 81.6554C750.089 79.7072 736.465 75.0951 736.465 75.0951C736.465 75.0951 731.726 76.9796 731.331 69.9446C730.936 62.9096 728.178 35.1947 729.586 34.8546C730.993 34.5146 731.194 29.7112 731.194 29.7112L731.187 29.7041Z" fill="#444444"/>
<path d="M787.63 43.9981L731.072 28.8701C728.993 28.3141 726.851 29.5257 726.288 31.5763C725.724 33.6268 726.952 35.7399 729.031 36.2958L785.589 51.4238C787.668 51.9798 789.809 50.7682 790.373 48.7176C790.937 46.6671 789.708 44.5541 787.63 43.9981Z" fill="#FFE554"/>
<path d="M720.882 68.0853L715.05 88.6306L769.054 104.883L774.886 83.8627L720.882 68.0853Z" fill="#79BE13"/>
<path d="M744.379 104.999C744.379 104.999 743.014 107.323 743.883 111.361C744.752 115.399 748.717 120.047 750.21 121.882C751.704 123.716 748.846 127.507 748.724 127.875C748.602 128.244 743.022 137.786 741.535 144.269C740.049 150.751 735.086 160.294 735.086 160.294C735.086 160.294 731.488 165.431 732.357 170.326C733.226 175.221 734.659 182.615 734.659 182.615L761.995 176.192L758.397 163.107C758.397 163.107 758.024 163.716 759.884 156.504C761.744 149.292 766.455 138.275 766.455 138.275C766.455 138.275 768.932 129.101 764.595 121.882C760.257 114.662 755.417 109.158 755.417 109.158C755.417 109.158 748.228 102.186 744.379 104.999Z" fill="#F1CFB5"/>
<path d="M716.357 119.919C716.357 119.919 727.761 126.65 734.34 127.259C740.918 127.868 743.639 123.957 738.677 119.919C733.715 115.881 725.657 113.678 720.573 113.557C715.488 113.437 713.506 115.64 716.357 119.919Z" fill="#F1CFB5"/>
<path d="M713.628 122.002C713.628 122.002 709.161 122.611 709.535 125.551C709.908 128.492 714.497 130.079 717.966 131.665C721.434 133.252 730.368 136.802 733.837 137.05C737.305 137.298 740.242 132.494 735.575 129.526C730.907 126.557 721.686 122.123 713.628 122.002Z" fill="#F1CFB5"/>
<path d="M719.704 132.446C719.251 132.248 713.255 131.22 710.526 132.446C707.797 133.672 708.917 137.462 712.386 139.176C715.855 140.891 724.537 144.072 729.004 144.802C733.47 145.531 736.171 142.719 732.214 139.297C728.257 135.875 723.919 134.281 719.704 132.446Z" fill="#F1CFB5"/>
<path d="M717.348 141.523C716.759 141.431 711.108 140.453 709.513 142.897C707.919 145.341 711.395 148.154 715.732 149.38C720.07 150.605 726.145 152.313 729.621 151.951C733.097 151.59 733.593 149.38 730.986 147.304C728.379 145.228 723.424 142.479 717.348 141.523Z" fill="#F1CFB5"/>
<path d="M733.097 120.528L731.489 124.935C731.489 124.935 735.704 127.627 737.686 124.935C739.668 122.243 735.079 120.656 733.097 120.528Z" fill="#EAE0CC"/>
<path d="M731.488 130.071L729.628 134.967C729.628 134.967 733.722 136.802 735.33 135.456C736.939 134.11 734.088 131.177 731.488 130.071Z" fill="#EAE0CC"/>
<path d="M728.264 138.56L726.153 143.087C726.153 143.087 731.833 145.17 732.709 143.087C733.585 141.004 729.995 138.808 728.257 138.56H728.264Z" fill="#EAE0CC"/>
<path d="M726.77 145.83C726.77 145.83 725.779 148.763 726.153 149.621C726.526 150.478 731.481 152.065 731.481 150.109C731.481 148.154 729.37 145.83 726.77 145.83Z" fill="#EAE0CC"/>
<path d="M747.977 104.871C747.977 104.871 745.004 104.383 745.995 106.827C746.986 109.271 751.826 109.76 751.826 109.76L754.059 109.271L747.984 104.864L747.977 104.871Z" fill="#EAE0CC"/>
<path d="M729.628 183.773C729.88 183.404 764.473 175.696 764.473 175.696L769.061 188.052L732.982 195.639L729.636 183.773H729.628Z" fill="white"/>
<path d="M730.49 195.811C730.49 195.811 770.167 187.735 770.663 187.494C771.158 187.253 799 258 799 258H754.205L730.483 195.804L730.49 195.811Z" fill="#5A5A5A"/>
<path d="M741.191 207.081C742.956 207.081 744.386 205.669 744.386 203.928C744.386 202.187 742.956 200.776 741.191 200.776C739.426 200.776 737.995 202.187 737.995 203.928C737.995 205.669 739.426 207.081 741.191 207.081Z" fill="white"/>
<path d="M744.379 216.071C746.144 216.071 747.575 214.66 747.575 212.919C747.575 211.177 746.144 209.766 744.379 209.766C742.614 209.766 741.183 211.177 741.183 212.919C741.183 214.66 742.614 216.071 744.379 216.071Z" fill="white"/>
<path d="M747.575 225.062C749.34 225.062 750.77 223.65 750.77 221.909C750.77 220.168 749.34 218.756 747.575 218.756C745.81 218.756 744.379 220.168 744.379 221.909C744.379 223.65 745.81 225.062 747.575 225.062Z" fill="white"/>
<path d="M769.77 88.6392L766.222 94.5037L765.342 94.262L765.376 88.6837L762.474 93.4735L761.577 93.2269L761.608 86.3958L762.532 86.6496L762.391 92.1986L765.276 87.4039L766.129 87.6383L766.104 93.219L768.891 88.3975L769.77 88.6392Z" fill="white"/>
<path d="M760.767 86.1647L760.557 86.9133L757.449 86.0589L756.895 88.0318L759.817 88.835L759.608 89.5836L756.686 88.7805L756.088 90.9119L759.258 91.7834L759.048 92.5321L754.998 91.4189L756.78 85.0686L760.767 86.1647Z" fill="white"/>
<path d="M755.326 84.669L753.545 91.0193L752.665 90.7777L754.447 84.4274L755.326 84.669Z" fill="white"/>
<path d="M748.879 82.8972L749.263 88.6567L752.636 83.9298L753.542 84.1788L749.345 89.8651L748.519 89.6381L747.92 82.6335L748.879 82.8972Z" fill="white"/>
<path d="M742.018 87.8511L741.139 87.6094L742.92 81.2592L745.238 81.8963C745.563 81.9858 745.841 82.1096 746.071 82.2676C746.301 82.4257 746.48 82.6047 746.609 82.8045C746.738 83.0044 746.817 83.2222 746.847 83.458C746.882 83.6954 746.865 83.9404 746.794 84.1929L746.73 84.4219C746.629 84.78 746.445 85.0711 746.179 85.295C745.918 85.5205 745.597 85.6536 745.215 85.6942L745.695 88.8618L744.744 88.6006L744.333 85.6321L742.761 85.2L742.018 87.8511ZM742.969 84.4602L744.195 84.7971C744.692 84.9338 745.07 84.9396 745.328 84.8145C745.594 84.6852 745.77 84.465 745.858 84.1538L745.907 83.9776C745.994 83.6664 745.96 83.3913 745.804 83.1523C745.648 82.9133 745.348 82.7328 744.903 82.6108L743.589 82.2495L742.969 84.4602Z" fill="white"/>
<path d="M741.599 80.8962L741.389 81.6449L738.281 80.7905L737.728 82.7634L740.65 83.5665L740.44 84.3152L737.518 83.512L736.92 85.6435L740.09 86.515L739.88 87.2636L735.83 86.1505L737.612 79.8002L741.599 80.8962Z" fill="white"/>
<path d="M732.124 85.1317L733.695 79.5301L731.741 78.993L731.951 78.2444L736.739 79.5602L736.529 80.3088L734.575 79.7718L733.004 85.3734L732.124 85.1317Z" fill="white"/>
<path d="M727.323 76.9721L728.609 81.9362C728.645 82.0598 728.678 82.2143 728.709 82.3999C728.747 82.5812 728.778 82.7764 728.803 82.9855L730.263 77.7802L731.08 78.0047L729.299 84.355L728.286 84.0767L726.995 79.1303C726.963 78.995 726.927 78.8367 726.889 78.6554C726.856 78.4757 726.828 78.2813 726.804 78.0722L725.346 83.2687L724.529 83.0441L726.31 76.6938L727.323 76.9721Z" fill="white"/>
<path d="M724.856 76.2943L723.075 82.6446L722.196 82.4029L723.977 76.0526L724.856 76.2943Z" fill="white"/>
</svg>
