<svg width="204" height="40" viewBox="0 0 204 40" fill="none" xmlns="http://www.w3.org/2000/svg">
<g clip-path="url(#clip0_819_10569)">
<path d="M61.7199 9.53779C60.7772 11.4396 58.4783 12.209 56.5881 11.2557C54.698 10.3072 53.9333 7.99412 54.8808 6.09235C55.8282 4.19058 58.1224 3.42117 60.0125 4.37447C61.9027 5.32293 62.6674 7.63602 61.7199 9.53779Z" fill="#FFCF1B"/>
<path d="M58.4638 17.0629C57.7183 18.5631 55.9051 19.168 54.4142 18.4179C52.9232 17.6678 52.322 15.8435 53.0675 14.3434C53.813 12.8432 55.6262 12.2384 57.1171 12.9884C58.6081 13.7385 59.2093 15.5628 58.4638 17.0629Z" fill="#FFCF1B"/>
<path d="M54.27 4.394C53.5245 5.89412 51.7113 6.499 50.2203 5.74894C48.7294 4.99888 48.1282 3.17454 48.8737 1.67442C49.6191 0.174302 51.4323 -0.430586 52.9233 0.319475C54.4142 1.06954 55.0154 2.89388 54.27 4.394Z" fill="#FFCF1B"/>
<path d="M53.3802 9.46523C53.8756 10.9702 53.0676 12.5913 51.5767 13.0946C50.0809 13.593 48.4697 12.7848 47.9695 11.2799C47.4741 9.77493 48.2821 8.15383 49.7731 7.65057C51.2689 7.15214 52.88 7.96027 53.3802 9.46523Z" fill="#F6A322"/>
<path d="M46.8343 11.6577C47.1565 12.6304 46.6323 13.6853 45.6656 14.0095C44.6989 14.3337 43.6504 13.8063 43.3282 12.8336C43.0059 11.8561 43.5302 10.806 44.4969 10.4818C45.4636 10.1576 46.5121 10.6851 46.8343 11.6577Z" fill="#F07E25"/>
<path d="M47.6712 5.37649C48.0608 6.55723 47.4259 7.82992 46.2572 8.22188C45.0837 8.61385 43.8188 7.97509 43.4292 6.79919C43.0396 5.61845 43.6745 4.34576 44.8432 3.9538C46.0167 3.56183 47.2816 4.19575 47.6712 5.37649Z" fill="#F6A322"/>
<path d="M51.2447 16.1822C51.6343 17.3629 50.9994 18.6356 49.8307 19.0275C48.6572 19.4195 47.3922 18.7808 47.0027 17.6049C46.6131 16.4241 47.248 15.1514 48.4167 14.7595C49.5902 14.3675 50.8551 15.0014 51.2447 16.1822Z" fill="#F6A322"/>
<path d="M42.4481 13.1284C42.6693 13.8059 42.3086 14.5317 41.6353 14.7592C40.9667 14.9818 40.2405 14.6188 40.0145 13.9414C39.7884 13.2639 40.1539 12.538 40.8225 12.3106C41.491 12.088 42.2172 12.4509 42.4433 13.1284H42.4481Z" fill="#EA5622"/>
<path d="M43.0782 8.70567C43.3619 9.56219 42.9002 10.4913 42.0489 10.7768C41.1977 11.0623 40.279 10.5978 39.9953 9.74123C39.7115 8.88471 40.1732 7.95561 41.0245 7.6701C41.8758 7.38459 42.7992 7.84915 43.083 8.70567H43.0782Z" fill="#F07E25"/>
<path d="M45.6705 16.5401C45.9542 17.3967 45.4925 18.3258 44.6412 18.6113C43.7899 18.8968 42.8713 18.4322 42.5876 17.5757C42.3038 16.7192 42.7655 15.7901 43.6168 15.5046C44.4681 15.2191 45.3915 15.6836 45.6753 16.5401H45.6705Z" fill="#F07E25"/>
<path d="M39.2161 14.2127C39.346 14.6095 39.1343 15.0451 38.7352 15.1757C38.3408 15.3064 37.9079 15.0935 37.7781 14.6918C37.6434 14.2902 37.8598 13.8595 38.259 13.7288C38.6534 13.5982 39.0862 13.8111 39.2161 14.2127Z" fill="#E41C1A"/>
<path d="M35.9408 15.3109C36.0707 15.7077 35.8591 16.1432 35.4599 16.2739C35.0655 16.4045 34.6326 16.1916 34.5028 15.79C34.3729 15.3883 34.5845 14.9576 34.9837 14.827C35.3781 14.6963 35.811 14.9092 35.9408 15.3109Z" fill="#E41C1A"/>
<path d="M38.0426 16.1625C38.1725 16.5593 37.9609 16.99 37.5617 17.1255C37.1673 17.2561 36.7344 17.0432 36.6046 16.6464C36.4747 16.2448 36.6863 15.8141 37.0855 15.6834C37.4799 15.5528 37.9128 15.7657 38.0426 16.1673V16.1625Z" fill="#E41C1A"/>
<path d="M37.1144 13.3559C37.2443 13.7527 37.0326 14.1833 36.6334 14.3188C36.2391 14.4495 35.8062 14.2366 35.6764 13.8398C35.5465 13.4381 35.7581 13.0074 36.1573 12.8768C36.5517 12.7461 36.9845 12.959 37.1144 13.3607V13.3559Z" fill="#E41C1A"/>
<path d="M39.4903 11.4637C39.6539 11.9525 39.3893 12.4848 38.9036 12.6445C38.4178 12.809 37.8888 12.5429 37.73 12.0541C37.5665 11.5654 37.831 11.0331 38.3168 10.8685C38.8026 10.704 39.3316 10.9701 39.4903 11.4589V11.4637Z" fill="#EA5622"/>
<path d="M41.1014 16.327C41.2649 16.8158 41.0004 17.3481 40.5147 17.5078C40.0289 17.6723 39.4998 17.4061 39.3411 16.9174C39.1776 16.4286 39.4421 15.8963 39.9279 15.7318C40.4137 15.5673 40.9427 15.8334 41.1014 16.3222V16.327Z" fill="#EA5622"/>
<path d="M92.5201 24.026C92.5201 23.0582 91.9959 22.5259 91.4139 22.5259H78.4042V23.4937C78.4042 24.205 78.938 24.6502 79.6402 24.6502H90.3029V28.5022H77.322V29.4651C77.322 30.1765 77.8559 30.6265 78.5581 30.6265H93.5013V28.5022H92.5201V24.0308V24.026Z" fill="#004F9F"/>
<path d="M91.3226 31.8217H78.332V38.4174C78.332 39.4965 79.1737 39.632 79.746 39.632H92.525V32.8331C92.525 32.0782 91.919 31.8169 91.3274 31.8169L91.3226 31.8217ZM90.3655 37.6045H80.4867V33.8396H90.3655V37.6045Z" fill="#004F9F"/>
<path d="M118.025 31.6523V33.6218C118.025 34.3332 118.473 34.8655 119.175 34.8655H120.132V31.6475H124.321V29.5231H122.806V23.6775C122.806 22.971 122.267 22.5161 121.57 22.5161H114.216V23.4839C114.216 24.1953 114.745 24.6405 115.452 24.6405H120.603V29.5231H113.144V30.4909C113.144 31.1975 113.673 31.6475 114.38 31.6475H118.025V31.6523Z" fill="#004F9F"/>
<path d="M124.831 27.8391H126.278V32.3782C126.278 33.0847 126.725 33.6219 127.428 33.6219H128.39V28.8892V23.7598C128.39 23.0533 127.942 22.5161 127.235 22.5161H126.278V25.7099H123.594V26.6729C123.594 27.3842 124.124 27.8343 124.831 27.8343V27.8391Z" fill="#004F9F"/>
<path d="M127.154 37.5126H116.337V34.5656C116.327 33.8688 115.88 33.3413 115.187 33.3413H114.226V38.3885C114.226 39.095 114.673 39.6321 115.38 39.6321H128.39V38.6692C128.39 37.9578 127.856 37.5126 127.154 37.5126Z" fill="#004F9F"/>
<path d="M110.291 29.9974H104.433V28.7683H109.272C109.95 28.7683 110.503 28.2167 110.503 27.5343V22.5259H108.271V23.7163H98.5658V22.5259H96.3342V27.5343C96.3342 28.2167 96.8825 28.7683 97.5606 28.7683H102.284V29.9974H95.2905V30.9604C95.2905 31.6718 95.8244 32.1218 96.5266 32.1218H111.537V31.154C111.537 30.4426 110.998 29.9926 110.296 29.9926L110.291 29.9974ZM98.561 26.6827V25.6084H108.267V26.6827H98.561Z" fill="#004F9F"/>
<path d="M109.363 33.3413H96.3582V34.3043C96.3582 35.0156 96.892 35.4657 97.5942 35.4657H108.406V38.4127C108.416 39.1095 108.863 39.637 109.56 39.637H110.517V34.5898C110.517 33.8784 110.07 33.3413 109.363 33.3413Z" fill="#004F9F"/>
<path d="M71.945 30.52H73.4407V32.3395C73.4407 33.0702 73.9024 33.6219 74.6287 33.6219H75.6194V23.8082C75.6194 23.0727 75.1577 22.521 74.4315 22.521H73.4407V24.8341H70.7522V25.768C70.7522 26.4503 71.2716 26.8859 71.9498 26.8859H73.4455V28.4634H70.757V29.3974C70.757 30.0845 71.2764 30.52 71.9546 30.52H71.945Z" fill="#004F9F"/>
<path d="M74.3788 37.5126H63.5621V34.5656C63.5525 33.8688 63.1052 33.3413 62.4127 33.3413H61.4556V38.3885C61.4556 39.095 61.9029 39.6321 62.6099 39.6321H75.6148V38.6692C75.6148 37.9578 75.081 37.5126 74.3788 37.5126Z" fill="#004F9F"/>
<path d="M68.7275 30.3845C67.8041 31.391 66.6161 31.8943 65.1684 31.8943C63.7208 31.8943 62.5761 31.391 61.6527 30.3845C60.7773 29.4409 60.3445 28.3327 60.3445 27.0697C60.3445 25.8067 60.7773 24.6356 61.6527 23.7017C62.5617 22.6952 63.7352 22.1919 65.1684 22.1919C66.6017 22.1919 67.8041 22.6952 68.7275 23.7017C69.598 24.6453 70.0357 25.7728 70.0357 27.0745C70.0357 28.3763 69.598 29.4409 68.7275 30.3845ZM67.1019 25.2115C66.5776 24.6598 65.938 24.384 65.1684 24.384C64.3989 24.384 63.7977 24.6598 63.2783 25.2115C62.7685 25.7486 62.5136 26.3729 62.5136 27.0697C62.5136 27.723 62.7685 28.3085 63.2783 28.836C63.7977 29.3876 64.4278 29.6635 65.1684 29.6635C65.9091 29.6635 66.5632 29.3876 67.1019 28.836C67.6117 28.3085 67.8666 27.723 67.8666 27.0697C67.8666 26.368 67.6117 25.7486 67.1019 25.2067V25.2115Z" fill="#004F9F"/>
<path d="M152.12 31.7157C154.145 29.4026 154.049 28.1251 154.049 27.2105C154.049 23.8909 151.115 22.2407 148.941 22.2407C145.175 22.2407 143.049 25.241 143.049 27.9509H144.641C144.641 26.2039 145.911 23.7941 148.917 23.7941C151.923 23.7941 152.485 26.6733 152.485 27.3121C152.485 27.9509 152.995 28.6187 149.845 31.9867C146.69 35.3595 142.655 39.6421 142.655 39.6421H154.294V38.113H146.349L152.12 31.7157Z" fill="#E94290"/>
<path d="M161.33 22.1777C160.147 22.1777 158.964 22.4826 157.81 23.4552C155.285 25.8699 155.285 30.2929 155.751 34.4932C156.218 38.6935 160.301 41.205 163.542 39.4146C166.784 37.6289 167.126 34.4932 167.126 30.0074C167.126 25.5215 164.692 22.1729 161.33 22.1729V22.1777ZM162.961 38.0257C160.57 39.5113 157.555 37.4305 157.208 33.9512C156.862 30.4719 156.862 26.8135 158.728 24.815C159.579 24.0069 160.45 23.7552 161.325 23.7552C163.807 23.7552 165.606 26.4458 165.606 30.2348C165.606 34.0238 165.351 36.5401 162.961 38.0209V38.0257Z" fill="#E94290"/>
<path d="M142.453 22.521V24.0356L135.118 39.4724H133.142L140.447 24.4808V24.0453H131.824V22.5258H142.448L142.453 22.521Z" fill="#E94290"/>
<path d="M41.3613 15.9689L40.3032 15.5431C40.1589 15.485 39.9425 15.485 39.803 15.5431L38.7449 15.9689L37.682 16.3996L37.4319 16.506L38.1774 21.8871H42.025L42.6695 16.506L42.429 16.3996L41.3661 15.9689H41.3613Z" fill="url(#paint0_linear_819_10569)"/>
<path d="M36.1286 15.9689L35.0657 15.5431C34.931 15.485 34.705 15.485 34.5703 15.5431L33.5122 15.9689L32.4493 16.3996C32.3146 16.4577 32.2521 16.6125 32.3146 16.7528L34.705 21.8823H38.1726L37.4272 16.5012L37.1819 16.3947L36.1238 15.9641L36.1286 15.9689Z" fill="url(#paint1_linear_819_10569)"/>
<path d="M47.657 16.3996L46.5941 15.9689L45.5408 15.5431C45.3966 15.485 45.1705 15.485 45.0406 15.5431L43.9826 15.9689L42.9148 16.3996L42.6647 16.506L42.0203 21.8871H45.4927L47.7869 16.7577C47.8494 16.6125 47.7869 16.4625 47.6522 16.4044L47.657 16.3996Z" fill="url(#paint2_linear_819_10569)"/>
<path d="M38.1775 22.0566H34.6232L27.8851 28.7491C26.5865 30.0218 26.8366 31.7445 27.8851 32.8865L33.5218 39.5451C33.6084 39.6613 33.7479 39.7532 33.9018 39.8258L38.1823 22.2696V22.0566H38.1775Z" fill="url(#paint3_linear_819_10569)"/>
<path d="M52.2262 32.8866C53.2794 31.7446 53.5295 30.0267 52.2262 28.7492L45.4832 22.0615H42.0732L46.2142 39.8307C46.3585 39.7533 46.5028 39.6662 46.5942 39.55L52.2262 32.8914V32.8866Z" fill="url(#paint4_linear_819_10569)"/>
<path d="M46.2143 39.8258L42.0732 22.0566H38.2352L33.9019 39.8258C34.075 39.9032 34.253 39.9613 34.4069 39.9613H45.7093C45.868 39.9613 46.0507 39.9032 46.2191 39.8258H46.2143Z" fill="url(#paint5_linear_819_10569)"/>
<path d="M49.6145 35.9741H30.4966L33.517 39.5454C33.6035 39.6615 33.743 39.7535 33.8969 39.826C34.0701 39.9035 34.248 39.9615 34.4019 39.9615H45.7043C45.863 39.9615 46.0458 39.9035 46.2141 39.826C46.3584 39.7486 46.5027 39.6615 46.5941 39.5454L49.6145 35.9741Z" fill="url(#paint6_linear_819_10569)"/>
<path d="M47.2673 21.147H34.8346C34.3825 21.147 34.0122 21.5196 34.0122 21.9696C34.0122 22.4197 34.3825 22.7971 34.8346 22.7971H47.2673" fill="white"/>
<path d="M47.2673 23.1891H34.8346C34.1709 23.1891 33.6274 22.6471 33.6274 21.9745C33.6274 21.3019 34.1709 20.7744 34.8346 20.7744H47.2673V21.5342H34.8346C34.5893 21.5342 34.3873 21.7326 34.3873 21.9745C34.3873 22.2165 34.5893 22.4245 34.8346 22.4245H47.2673V23.1891Z" fill="#005081"/>
<path d="M34.8635 35.8628H30.405L30.6022 36.0951H34.8009L34.8635 35.8628Z" fill="url(#paint7_linear_819_10569)"/>
<path d="M45.3434 36.0951H49.5132L49.7104 35.8628H45.2856L45.3434 36.0951Z" fill="url(#paint8_linear_819_10569)"/>
<path d="M34.8635 35.8628L34.8154 36.0951H45.3435L45.2858 35.8628H34.8635Z" fill="url(#paint9_linear_819_10569)"/>
<path d="M50.985 20.1356H49.749V18.8919C49.749 17.929 48.9698 17.145 48.0127 17.145C47.0556 17.145 46.2765 17.929 46.2765 18.8919V20.1356H45.0404C44.0833 20.1356 43.3042 20.9195 43.3042 21.8825C43.3042 22.8455 44.0833 23.6294 45.0404 23.6294H46.2765V24.8731C46.2765 25.836 47.0556 26.62 48.0127 26.62C48.9698 26.62 49.749 25.836 49.749 24.8731V23.6294H50.985C51.9421 23.6294 52.7213 22.8455 52.7213 21.8825C52.7213 20.9195 51.9421 20.1356 50.985 20.1356Z" fill="#005081"/>
<path d="M176.831 24.0456H174.422V21.6212C174.422 20.9728 173.898 20.4453 173.253 20.4453C172.609 20.4453 172.084 20.9728 172.084 21.6212V24.0456H169.675C169.03 24.0456 168.506 24.5731 168.506 25.2215C168.506 25.8699 169.03 26.3974 169.675 26.3974H172.084V28.8218C172.084 29.4702 172.609 29.9977 173.253 29.9977C173.898 29.9977 174.422 29.4702 174.422 28.8218V26.3974H176.831C177.476 26.3974 178 25.8699 178 25.2215C178 24.5731 177.476 24.0456 176.831 24.0456Z" fill="#E94290"/>
<path d="M50.9899 20.9002H48.9844V18.8823C48.9844 18.3451 48.5467 17.9048 48.0128 17.9048C47.479 17.9048 47.0413 18.3451 47.0413 18.8823V20.9002H45.0357C44.5019 20.9002 44.0642 21.3405 44.0642 21.8777C44.0642 22.4148 44.5019 22.8552 45.0357 22.8552H47.0413V24.8731C47.0413 25.4102 47.479 25.8506 48.0128 25.8506C48.5467 25.8506 48.9844 25.4102 48.9844 24.8731V22.8552H50.9899C51.5238 22.8552 51.9615 22.4148 51.9615 21.8777C51.9615 21.3405 51.5238 20.9002 50.9899 20.9002Z" fill="white"/>
</g>
<defs>
<linearGradient id="paint0_linear_819_10569" x1="37.5329" y1="18.403" x2="42.4933" y2="19.2733" gradientUnits="userSpaceOnUse">
<stop stop-color="#FFCC00"/>
<stop offset="0.02" stop-color="#FEC800"/>
<stop offset="0.23" stop-color="#F7A300"/>
<stop offset="0.44" stop-color="#F28800"/>
<stop offset="0.61" stop-color="#EF7700"/>
<stop offset="0.75" stop-color="#EE7201"/>
<stop offset="1" stop-color="#A14101"/>
</linearGradient>
<linearGradient id="paint1_linear_819_10569" x1="32.3868" y1="19.6079" x2="37.7766" y2="18.4074" gradientUnits="userSpaceOnUse">
<stop stop-color="#AFCB37"/>
<stop offset="0.8" stop-color="#13A036"/>
<stop offset="1" stop-color="#3D6A2E"/>
</linearGradient>
<linearGradient id="paint2_linear_819_10569" x1="42.4098" y1="18.2578" x2="46.2813" y2="19.5213" gradientUnits="userSpaceOnUse">
<stop stop-color="#009FE3"/>
<stop offset="0.02" stop-color="#0099DE"/>
<stop offset="0.18" stop-color="#0077C1"/>
<stop offset="0.31" stop-color="#0063AF"/>
<stop offset="0.4" stop-color="#005CA9"/>
</linearGradient>
<linearGradient id="paint3_linear_819_10569" x1="27.8562" y1="29.204" x2="36.1137" y2="30.9401" gradientUnits="userSpaceOnUse">
<stop stop-color="#AFCB37"/>
<stop offset="0.8" stop-color="#13A036"/>
<stop offset="1" stop-color="#3D6A2E"/>
</linearGradient>
<linearGradient id="paint4_linear_819_10569" x1="44.3385" y1="30.888" x2="51.453" y2="28.96" gradientUnits="userSpaceOnUse">
<stop stop-color="#009FE3"/>
<stop offset="0.07" stop-color="#008DD3"/>
<stop offset="0.2" stop-color="#0072BC"/>
<stop offset="0.31" stop-color="#0061AD"/>
<stop offset="0.4" stop-color="#005CA9"/>
</linearGradient>
<linearGradient id="paint5_linear_819_10569" x1="35.3062" y1="31.8413" x2="44.2873" y2="30.7369" gradientUnits="userSpaceOnUse">
<stop stop-color="#FFCC00"/>
<stop offset="0.02" stop-color="#FEC800"/>
<stop offset="0.23" stop-color="#F7A300"/>
<stop offset="0.44" stop-color="#F28800"/>
<stop offset="0.61" stop-color="#EF7700"/>
<stop offset="0.75" stop-color="#EE7201"/>
<stop offset="1" stop-color="#A14101"/>
</linearGradient>
<linearGradient id="paint6_linear_819_10569" x1="40.0531" y1="39.8406" x2="40.0531" y2="35.9983" gradientUnits="userSpaceOnUse">
<stop stop-color="white" stop-opacity="0.86"/>
<stop offset="1" stop-color="white" stop-opacity="0"/>
</linearGradient>
<linearGradient id="paint7_linear_819_10569" x1="26.6969" y1="34.6917" x2="34.964" y2="36.4326" gradientUnits="userSpaceOnUse">
<stop stop-color="#AFCB37"/>
<stop offset="0.8" stop-color="#13A036"/>
<stop offset="1" stop-color="#3D6A2E"/>
</linearGradient>
<linearGradient id="paint8_linear_819_10569" x1="45.8339" y1="36.4096" x2="52.9484" y2="34.4768" gradientUnits="userSpaceOnUse">
<stop stop-color="#009FE3"/>
<stop offset="0.07" stop-color="#008DD3"/>
<stop offset="0.2" stop-color="#0072BC"/>
<stop offset="0.31" stop-color="#0061AD"/>
<stop offset="0.4" stop-color="#005CA9"/>
</linearGradient>
<linearGradient id="paint9_linear_819_10569" x1="35.8783" y1="36.5015" x2="44.8594" y2="35.4019" gradientUnits="userSpaceOnUse">
<stop stop-color="#FFCC00"/>
<stop offset="0.02" stop-color="#FEC800"/>
<stop offset="0.23" stop-color="#F7A300"/>
<stop offset="0.44" stop-color="#F28800"/>
<stop offset="0.61" stop-color="#EF7700"/>
<stop offset="0.75" stop-color="#EE7201"/>
<stop offset="1" stop-color="#A14101"/>
</linearGradient>
<clipPath id="clip0_819_10569">
<rect width="151" height="40" fill="white" transform="translate(27)"/>
</clipPath>
</defs>
</svg>
