<svg width="356" height="70" viewBox="0 0 356 70" fill="none" xmlns="http://www.w3.org/2000/svg">
<path d="M356 34.9362C356 15.6415 340.597 0 321.597 0H38.3352C19.3347 0 3.93179 15.6415 3.93179 34.9362C3.93179 54.231 19.3347 69.8724 38.3352 69.8724H321.597C340.597 69.8724 356 54.231 356 34.9362Z" fill="#ECF9EF"/>
<path d="M0 69.8724C10.2227 66.279 10.1572 57.0625 8.84659 52.9034L21.6249 62.8852C16.1204 69.6728 4.91473 70.3715 0 69.8724Z" fill="#ECF9EF"/>
<path d="M83.658 34.852C82.29 34.852 81.09 34.69 80.058 34.366C79.026 34.03 78.228 33.556 77.664 32.944C77.1 32.32 76.818 31.588 76.818 30.748C76.818 29.908 77.1 29.182 77.664 28.57C78.228 27.946 79.026 27.472 80.058 27.148C81.09 26.812 82.29 26.644 83.658 26.644C85.026 26.644 86.226 26.812 87.258 27.148C88.29 27.472 89.088 27.946 89.652 28.57C90.216 29.182 90.498 29.908 90.498 30.748C90.498 31.588 90.216 32.32 89.652 32.944C89.088 33.556 88.29 34.03 87.258 34.366C86.226 34.69 85.026 34.852 83.658 34.852ZM83.658 28.246C82.17 28.246 80.964 28.468 80.04 28.912C79.128 29.356 78.672 29.968 78.672 30.748C78.672 31.528 79.128 32.14 80.04 32.584C80.964 33.028 82.17 33.25 83.658 33.25C85.146 33.25 86.346 33.028 87.258 32.584C88.182 32.14 88.644 31.528 88.644 30.748C88.644 29.968 88.182 29.356 87.258 28.912C86.346 28.468 85.146 28.246 83.658 28.246ZM91.344 37.93H84.558V42.232H82.74V37.93H75.99V36.274H91.344V37.93ZM105.868 26.5H107.65V41.872H105.868V26.5ZM94.1865 33.07H101.062V28.696H94.1505V27.058H102.844V34.708H95.9685V39.316H100.468C101.2 39.316 101.926 39.25 102.646 39.118C103.378 38.986 103.978 38.806 104.446 38.578V40.216C103.99 40.444 103.396 40.624 102.664 40.756C101.932 40.888 101.182 40.954 100.414 40.954H94.1865V33.07ZM125.973 33.574V35.014H110.619V33.574H117.405V31.99H111.717V26.68H124.875V28.12H113.499V30.55H125.055V31.99H119.169V33.574H125.973ZM118.287 36.292C120.315 36.292 121.947 36.514 123.183 36.958C124.431 37.402 125.055 38.116 125.055 39.1C125.055 40.084 124.431 40.798 123.183 41.242C121.935 41.698 120.303 41.926 118.287 41.926C116.271 41.926 114.639 41.698 113.391 41.242C112.143 40.798 111.519 40.084 111.519 39.1C111.519 38.116 112.137 37.402 113.373 36.958C114.621 36.514 116.259 36.292 118.287 36.292ZM118.287 40.522C119.691 40.522 120.855 40.408 121.779 40.18C122.715 39.952 123.183 39.592 123.183 39.1C123.183 38.62 122.715 38.266 121.779 38.038C120.855 37.81 119.691 37.696 118.287 37.696C116.883 37.696 115.713 37.81 114.777 38.038C113.853 38.266 113.391 38.62 113.391 39.1C113.391 39.592 113.853 39.952 114.777 40.18C115.713 40.408 116.883 40.522 118.287 40.522ZM142.711 26.5V41.872H141.019V26.5H142.711ZM137.311 26.59H138.985V41.602H137.311V33.808H133.261V32.152H137.311V26.59ZM132.307 39.37C132.967 39.37 133.609 39.322 134.233 39.226C134.869 39.118 135.421 38.968 135.889 38.776V40.342C135.445 40.546 134.881 40.696 134.197 40.792C133.525 40.9 132.829 40.954 132.109 40.954H128.401V27.022H130.147V39.37H132.307ZM165.647 34.492V35.968H150.293V34.492H157.079V32.908H151.391V26.59H153.155V28.354H162.785V26.59H164.531V32.908H158.843V34.492H165.647ZM153.155 31.504H162.785V29.704H153.155V31.504ZM151.229 37.408H164.567V41.89H162.767V38.866H151.229V37.408ZM180.297 35.734V26.5H182.079V38.488H180.297V37.21H175.653V35.734H180.297ZM175.581 28.318H168.723V26.806H177.363V31.702H175.581V28.318ZM171.819 34.15H167.607V32.656H173.961C176.349 32.656 178.029 32.458 179.001 32.062V33.538C178.533 33.742 177.843 33.898 176.931 34.006C176.031 34.102 174.999 34.15 173.835 34.15H173.601V37.426H171.819V34.15ZM182.475 40.126V41.674H169.029V36.544H170.811V40.126H182.475ZM200.996 30.208V31.918H198.836V37.912H197.054V26.5H198.836V30.208H200.996ZM195.92 34.69C195.428 34.906 194.738 35.08 193.85 35.212C192.962 35.332 191.972 35.392 190.88 35.392H184.94V33.88H186.866V28.39H184.994V26.878H195.254V28.39H193.382V33.772C194.426 33.664 195.272 33.472 195.92 33.196V34.69ZM188.594 33.88H191.096H191.654V28.39H188.594V33.88ZM187.784 40.054H199.25V41.674H185.984V36.76H187.784V40.054ZM217.014 26.5V41.872H215.322V34.384H212.82V41.602H211.128V26.59H212.82V32.692H215.322V26.5H217.014ZM202.704 27.058H209.292V40.954H202.704V27.058ZM204.396 39.334H207.618V28.678H204.396V39.334ZM234.023 26.5V34.996H232.241V30.946H229.253V29.398H232.241V26.5H234.023ZM224.969 31.648C224.441 32.512 223.733 33.208 222.845 33.736C221.969 34.264 220.973 34.582 219.857 34.69V33.088C221.117 32.92 222.125 32.422 222.881 31.594C223.649 30.754 224.087 29.698 224.195 28.426H220.055V26.896H229.865V28.426H225.977C225.941 29.086 225.827 29.686 225.635 30.226L230.369 33.214L229.487 34.546L224.969 31.648ZM220.937 35.842H234.023V41.674H220.937V35.842ZM222.719 40.162H232.241V37.336H222.719V40.162ZM256.382 26.5V41.872H254.6V34.546H251.648C251.576 36.73 251.126 38.38 250.298 39.496C249.482 40.6 248.408 41.152 247.076 41.152C245.672 41.152 244.556 40.552 243.728 39.352C242.9 38.152 242.486 36.37 242.486 34.006C242.486 31.642 242.9 29.86 243.728 28.66C244.556 27.46 245.672 26.86 247.076 26.86C248.36 26.86 249.404 27.364 250.208 28.372C251.012 29.38 251.48 30.88 251.612 32.872H254.6V26.5H256.382ZM247.076 39.514C247.916 39.514 248.588 39.064 249.092 38.164C249.608 37.252 249.866 35.866 249.866 34.006C249.866 32.146 249.608 30.766 249.092 29.866C248.588 28.954 247.916 28.498 247.076 28.498C246.224 28.498 245.54 28.954 245.024 29.866C244.52 30.766 244.268 32.146 244.268 34.006C244.268 35.866 244.52 37.252 245.024 38.164C245.54 39.064 246.224 39.514 247.076 39.514ZM271.788 26.5H273.57V41.872L271.788 41.89V26.5ZM260.124 27.058H269.16V28.696H261.924V39.316H266.388C267.12 39.316 267.846 39.25 268.566 39.118C269.298 38.986 269.898 38.806 270.366 38.578V40.216C269.898 40.444 269.292 40.624 268.548 40.756C267.816 40.888 267.078 40.954 266.334 40.954H260.124V27.058ZM295.93 35.05H294.148V26.5H295.93V35.05ZM291.43 30.658C291.43 31.45 291.232 32.146 290.836 32.746C290.44 33.346 289.876 33.814 289.144 34.15C288.424 34.486 287.584 34.654 286.624 34.654C285.652 34.654 284.8 34.486 284.068 34.15C283.348 33.814 282.79 33.346 282.394 32.746C281.998 32.146 281.8 31.45 281.8 30.658C281.8 29.878 281.998 29.188 282.394 28.588C282.79 27.976 283.348 27.502 284.068 27.166C284.8 26.83 285.652 26.662 286.624 26.662C287.584 26.662 288.424 26.83 289.144 27.166C289.876 27.502 290.44 27.976 290.836 28.588C291.232 29.188 291.43 29.878 291.43 30.658ZM283.582 30.658C283.582 31.438 283.858 32.056 284.41 32.512C284.974 32.956 285.712 33.178 286.624 33.178C287.524 33.178 288.25 32.956 288.802 32.512C289.366 32.056 289.648 31.438 289.648 30.658C289.648 29.878 289.366 29.266 288.802 28.822C288.25 28.366 287.524 28.138 286.624 28.138C285.712 28.138 284.974 28.366 284.41 28.822C283.858 29.266 283.582 29.878 283.582 30.658ZM296.11 41.746L293.158 39.28C292.69 40 292.12 40.564 291.448 40.972C290.788 41.392 290.08 41.626 289.324 41.674L286.714 39.37C286.234 40.054 285.664 40.594 285.004 40.99C284.344 41.398 283.648 41.626 282.916 41.674V40.054C283.468 40.006 283.99 39.772 284.482 39.352C284.986 38.92 285.4 38.368 285.724 37.696C286.048 37.024 286.24 36.298 286.3 35.518L288.028 35.752C287.944 36.556 287.752 37.312 287.452 38.02L289.81 39.964C290.29 39.82 290.734 39.532 291.142 39.1C291.55 38.668 291.886 38.14 292.15 37.516C292.414 36.892 292.57 36.226 292.618 35.518L294.346 35.77C294.274 36.526 294.112 37.24 293.86 37.912L297.172 40.486L296.11 41.746ZM313.244 26.5V41.872H311.462V26.5H313.244ZM305.468 28.696C305.456 30.4 305.294 32.02 304.982 33.556L310.004 39.766L308.6 40.828L304.46 35.554C303.932 37.162 303.218 38.434 302.318 39.37C301.43 40.294 300.404 40.822 299.24 40.954V39.19C300.14 39.022 300.914 38.47 301.562 37.534C302.222 36.598 302.732 35.368 303.092 33.844C303.452 32.32 303.644 30.604 303.668 28.696H299.6V27.058H309.41V28.696H305.468ZM319.921 37.498C319.921 36.418 320.059 35.56 320.335 34.924C320.623 34.276 321.145 33.694 321.901 33.178C322.537 32.722 322.993 32.308 323.269 31.936C323.557 31.564 323.701 31.138 323.701 30.658C323.701 29.962 323.455 29.404 322.963 28.984C322.483 28.564 321.817 28.354 320.965 28.354C320.377 28.354 319.867 28.48 319.435 28.732C319.015 28.984 318.691 29.308 318.463 29.704C318.247 30.1 318.127 30.514 318.103 30.946H316.267C316.291 30.178 316.501 29.47 316.897 28.822C317.293 28.174 317.839 27.664 318.535 27.292C319.243 26.908 320.047 26.716 320.947 26.716C321.895 26.716 322.711 26.89 323.395 27.238C324.091 27.574 324.619 28.042 324.979 28.642C325.339 29.23 325.519 29.902 325.519 30.658C325.519 31.906 324.853 33.004 323.521 33.952C323.005 34.3 322.615 34.654 322.351 35.014C322.087 35.374 321.907 35.746 321.811 36.13C321.727 36.514 321.685 36.97 321.685 37.498H319.921ZM320.839 41.782C320.467 41.782 320.155 41.65 319.903 41.386C319.651 41.134 319.525 40.822 319.525 40.45C319.525 40.078 319.651 39.766 319.903 39.514C320.155 39.262 320.467 39.136 320.839 39.136C321.211 39.136 321.523 39.262 321.775 39.514C322.039 39.766 322.171 40.078 322.171 40.45C322.171 40.834 322.045 41.152 321.793 41.404C321.541 41.656 321.223 41.782 320.839 41.782Z" fill="#111111"/>
<circle cx="51.5714" cy="31.5714" r="12.5714" fill="#11957D"/>
<path d="M50.2623 50.5912L41.2856 38.8096H61.8571C59.3636 42.1033 53.4041 48.9949 52.5064 50.2111C51.6088 51.4273 50.6363 50.9712 50.2623 50.5912Z" fill="#11957D"/>
<circle cx="51.9526" cy="30.4287" r="3.80952" fill="white"/>
</svg>
