<svg width="122" height="144" viewBox="0 0 122 144" fill="none" xmlns="http://www.w3.org/2000/svg">
<path d="M115.644 24.8297C121.356 36.5072 114.298 51.6125 105.306 59.4677C100.985 63.2425 96.9671 63.7452 91.5026 63.7967" stroke="#FFE555" stroke-width="3" stroke-linecap="round"/>
<path d="M99.9473 39.1185C103.871 45.9083 99.2356 52.8019 93.2476 55.6909C90.3701 57.0792 87.6725 56.8138 83.9993 56.1258" stroke="#FFE555" stroke-width="3" stroke-linecap="round"/>
<path d="M2.54079 36.8923C2.54079 36.8923 38.435 51.6986 66.2813 20.4426C66.2813 20.4426 55.5218 -5.05766 25.9469 2.34947C-3.62791 9.75661 2.53286 36.8923 2.53286 36.8923H2.54079Z" fill="#444444"/>
<path d="M4.99865 49.6424C4.99865 49.6424 34.5894 59.9235 68.4617 31.1365C68.4617 31.1365 69.6431 48.8167 58.8835 57.0416L75.0362 143.731H51.5803L29.2215 67.7355C29.2215 67.7355 8.6856 57.8673 4.99072 49.6424H4.99865Z" fill="#444444"/>
<path d="M15.2666 72.2608L68.4696 61.1541L73.5283 89.941L21.1023 100.635L15.2666 72.2608Z" fill="#EE5C65"/>
<path d="M69.4223 70.6805L68.8888 78.1425L67.9183 78.3379L65.1919 72.8786L64.7518 78.9753L63.7617 79.1747L60.4131 72.4941L61.4326 72.2889L64.0414 77.7719L64.4619 71.6791L65.403 71.4896L68.1392 76.9469L68.4518 70.8758L69.4223 70.6805Z" fill="white"/>
<path d="M59.4852 72.681L59.6523 73.5144L56.2211 74.2052L56.6615 76.4015L59.8868 75.7522L60.0539 76.5856L56.8286 77.2349L57.3043 79.6077L60.8041 78.9031L60.9712 79.7365L56.5009 80.6365L55.0835 73.5671L59.4852 72.681Z" fill="white"/>
<path d="M53.4788 73.8901L54.8962 80.9594L53.9257 81.1548L52.5083 74.0854L53.4788 73.8901Z" fill="white"/>
<path d="M46.363 75.3225L49.5835 80.7537L50.5098 74.4877L51.5097 74.2864L50.2606 81.8925L49.3489 82.076L45.3042 75.5356L46.363 75.3225Z" fill="white"/>
<path d="M42.173 83.5207L41.2025 83.716L39.7852 76.6467L42.3438 76.1316C42.7033 76.0593 43.0333 76.0438 43.334 76.0853C43.6347 76.1268 43.8969 76.2134 44.1205 76.3452C44.3441 76.477 44.5285 76.6507 44.6737 76.8663C44.8255 77.0805 44.9295 77.3282 44.9859 77.6093L45.037 77.8642C45.1169 78.2629 45.0831 78.637 44.9356 78.9863C44.7946 79.3343 44.5496 79.6216 44.2007 79.8483L46.2316 82.7036L45.1827 82.9148L43.3165 80.2201L41.5813 80.5694L42.173 83.5207ZM41.4162 79.7458L42.7691 79.4734C43.3181 79.3629 43.6866 79.1833 43.8747 78.9346C44.0681 78.6781 44.13 78.3766 44.0605 78.0302L44.0212 77.8341C43.9518 77.4876 43.7824 77.2361 43.513 77.0795C43.2436 76.923 42.8638 76.894 42.3737 76.9927L40.9228 77.2848L41.4162 79.7458Z" fill="white"/>
<path d="M38.328 76.9403L38.4951 77.7737L35.0639 78.4644L35.5042 80.6607L38.7295 80.0114L38.8966 80.8449L35.6713 81.4942L36.1471 83.8669L39.6469 83.1624L39.814 83.9958L35.3436 84.8957L33.9263 77.8264L38.328 76.9403Z" fill="white"/>
<path d="M31.2528 85.7191L30.0025 79.4832L27.8458 79.9174L27.6787 79.084L32.9627 78.0202L33.1298 78.8537L30.9731 79.2878L32.2233 85.5237L31.2528 85.7191Z" fill="white"/>
<path d="M22.5692 80.1127L26.2696 84.3252C26.365 84.4284 26.4736 84.563 26.5953 84.7289C26.7222 84.887 26.849 85.062 26.9759 85.2541L25.8141 79.4594L26.716 79.2779L28.1334 86.3472L27.0158 86.5722L23.3194 82.3792C23.2213 82.2629 23.1088 82.1258 22.982 81.9677C22.8616 81.8083 22.738 81.6326 22.6111 81.4405L23.7709 87.2254L22.869 87.407L21.4517 80.3376L22.5692 80.1127Z" fill="white"/>
<path d="M19.847 80.6606L21.2644 87.7299L20.2938 87.9253L18.8765 80.856L19.847 80.6606Z" fill="white"/>
<path d="M52.0067 143.731H26.4184C26.4184 141.595 26.3331 136.552 25.992 133.475C25.5655 129.629 28.9772 123.646 31.5361 120.655C34.0949 117.664 39.2125 108.262 43.4772 106.125C47.742 103.989 49.8743 103.989 51.1537 108.689C52.4331 113.39 48.5949 120.228 46.4625 122.364C44.3302 124.501 43.4772 127.065 45.1831 130.484C46.5478 133.219 50.3008 140.455 52.0067 143.731Z" fill="#F1CFB5"/>
<path d="M79.2848 122.785C79.2848 122.785 66.6937 130.327 59.4308 131.01C52.1759 131.693 49.1629 127.31 54.6418 122.785C60.1206 118.26 69.0169 115.791 74.6305 115.656C80.2442 115.521 82.4326 117.99 79.2848 122.785Z" fill="#F1CFB5"/>
<path d="M82.2975 125.119C82.2975 125.119 87.2293 125.802 86.817 129.096C86.4046 132.391 81.3381 134.169 77.5084 135.948C73.6787 137.726 63.8152 141.704 59.9855 141.981C56.1558 142.259 52.9129 136.877 58.0667 133.55C63.2205 130.224 73.4012 125.254 82.2975 125.119Z" fill="#F1CFB5"/>
<path d="M85.6978 143.731H63.9478C71.6242 138.176 80.5801 136.466 84.8448 137.749C88.2566 138.774 86.835 142.164 85.6978 143.731Z" fill="#F1CFB5"/>
<path d="M60.8022 123.476L62.5783 128.414C62.5783 128.414 57.924 131.431 55.7356 128.414C53.5472 125.397 58.6138 123.618 60.8022 123.476Z" fill="#EAE0CC"/>
<path d="M62.5782 134.161L64.6318 139.647C64.6318 139.647 60.1123 141.703 58.3363 140.195C56.5602 138.687 59.708 135.4 62.5782 134.161Z" fill="#EAE0CC"/>
<path d="M46.0796 105.93C46.0796 105.93 49.3621 105.382 48.2679 108.121C47.1738 110.86 41.8297 111.408 41.8297 111.408L39.3638 110.86L46.0716 105.922L46.0796 105.93Z" fill="#EAE0CC"/>
</svg>
