<svg width="180" height="180" viewBox="0 0 180 180" fill="none" xmlns="http://www.w3.org/2000/svg">
<path d="M106.11 34.8972C112.11 49.6972 155.943 101.397 177.11 125.397C179.11 125.397 177.277 129.731 176.11 131.897C167.11 158.231 161.5 179.5 160.5 179.5H152.5H143H134C134.938 171.992 140.61 158.897 142.61 151.897C144.61 144.897 144.11 146.897 135.61 143.397C127.11 139.897 85.6101 134.397 74.6101 134.397C63.6101 134.397 61.6101 125.397 61.6101 111.897C63.6101 84.8972 86.1101 34.8972 92.1101 27.3972C98.1101 19.8972 103.11 25.8972 106.11 34.8972Z" fill="#FFF564"/>
<path d="M102.61 44.8972C104.61 34.0972 102.11 30.3972 100.61 29.8972C92.61 23.3972 85.6104 46.3972 82.1104 55.3972C78.6104 64.3972 65.6104 98.8972 64.6104 109.397C63.6104 119.897 64.6104 122.897 68.1104 125.397C71.6104 127.897 74.1104 124.897 76.6104 122.397C78.6104 120.397 84.4437 106.897 87.1104 100.397C91.4436 86.3972 100.61 55.6972 102.61 44.8972Z" fill="#FFE14B"/>
<path d="M54.8604 54.6472C53 53 51.1931 50.4757 49.2492 48.4944C47.4512 46.6617 45.8001 44.7447 44.2631 42.6889C41.6262 39.1616 38.653 35.5171 36 32M50.8604 70.2722C38.7377 66.1682 26.9351 61.214 14.8395 57.0431M52.1104 87.0222C46.6142 88.8159 41.0042 90.2064 35.4576 91.8277C32.0946 92.8108 28.7873 94.1266 25.3951 94.9944" stroke="#E6E6E6" stroke-width="4" stroke-linecap="round"/>
<path d="M84.6102 61.3971C93.6276 61.7512 95.6102 68.2304 95.6102 70.3971C97.1102 71.897 89.1102 94.8972 88.1102 97.8972C87.1102 100.897 73.6102 96.8972 69.6102 93.8972C65.6102 90.8972 60 84 64.5 73C69 62 74.5 61 84.6102 61.3971Z" fill="#8BC24A"/>
<path d="M161.11 144.522C157.086 144.61 153.121 145.123 149.124 145.522C148.665 145.568 148.173 145.772 147.735 145.772" stroke="#FFE14B" stroke-width="2" stroke-linecap="round"/>
<path d="M153.61 156.272C153.028 154.203 151.36 152.667 149.888 151.175C149.366 150.646 148.834 149.957 148.138 149.647C148.008 149.589 147.485 149.425 147.485 149.522" stroke="#FFE14B" stroke-width="2" stroke-linecap="round"/>
</svg>
