<svg width="24" height="24" viewBox="0 0 24 24" fill="none" xmlns="http://www.w3.org/2000/svg">
<path d="M21 13.5C21 15.9853 18.9853 18 16.5 18C14.0147 18 12 15.9853 12 13.5C12 11.0147 14.0147 9 16.5 9C18.9853 9 21 11.0147 21 13.5Z" fill="#D2D2D2"/>
<path d="M20.5 6C15.7 6.4 13 9.83333 12.5 11.5L17 12.5C16.6 9.3 18.8333 6.5 20.5 6Z" fill="#D2D2D2"/>
<path d="M11 13.5C11 15.9853 8.98528 18 6.5 18C4.01472 18 2 15.9853 2 13.5C2 11.0147 4.01472 9 6.5 9C8.98528 9 11 11.0147 11 13.5Z" fill="#D2D2D2"/>
<path d="M10.5 6C5.7 6.4 3 9.83333 2.5 11.5L7 12.5C6.6 9.3 8.83333 6.5 10.5 6Z" fill="#D2D2D2"/>
</svg>
