<svg width="161" height="38" viewBox="0 0 161 38" fill="none" xmlns="http://www.w3.org/2000/svg">
<g clip-path="url(#clip0_1008_11241)">
<path d="M124.075 16.077H131.677V12.4881V9.89067V6.63022V3.99023H128.022V6.63022H115.811V3.99023H112.155V16.0831H119.757V18.0418H109.12V21.6307H134.707V18.0418H124.069V16.0831L124.075 16.077ZM115.811 12.4881V9.89067H128.022V12.4881H115.811Z" fill="#333333"/>
<path d="M144.91 26.4603H149.235V19.6657H157.345V21.6244H152.605V25.2133H157.345V27.762H161V3.98389H157.345V16.0767H137.488V19.6657H144.91V26.4603Z" fill="#333333"/>
<path d="M112.149 27.1719H128.016V36.4605H131.677V27.1719V23.583H112.149V27.1719Z" fill="#333333"/>
<path d="M142.47 32.8719V27.0566H138.814V33.8878V36.4608H161V32.8719H142.47Z" fill="#333333"/>
<path d="M150.901 14.118H154.557V7.57281V3.98389H150.901H138.919V7.57281H150.901V14.118Z" fill="#333333"/>
<path d="M69.2523 15.42H76.1911V11.831H61.6505V7.23235H76.1911V3.96582H57.9952V3.98407V15.42H64.9341V18.0356H54.7612V21.6245H79.4313V18.0356H69.2523V15.42Z" fill="#333333"/>
<path d="M103.104 10.9792H99.8203V3.98389H96.165V10.9792V14.5682V21.5635H99.8203V14.5682H103.104V21.5635H106.759V3.98389H103.104V10.9792Z" fill="#333333"/>
<path d="M92.7393 3.96582H82.0894V7.22627H92.7393V3.96582Z" fill="#333333"/>
<path d="M67.0963 23.583C63.2923 23.583 60.207 26.6123 60.207 30.3472C60.207 34.0821 63.2923 37.1114 67.0963 37.1114C70.9003 37.1114 73.9856 34.0821 73.9856 30.3472C73.9856 26.6123 70.9003 23.583 67.0963 23.583ZM67.0963 33.4678C65.343 33.4678 63.9181 32.0687 63.9181 30.3472C63.9181 28.6257 65.343 27.2267 67.0963 27.2267C68.8496 27.2267 70.2746 28.6257 70.2746 30.3472C70.2746 32.0687 68.8496 33.4678 67.0963 33.4678Z" fill="#333333"/>
<path d="M97.7511 23.583C93.9471 23.583 90.8618 26.6123 90.8618 30.3472C90.8618 34.0821 93.9471 37.1114 97.7511 37.1114C101.555 37.1114 104.64 34.0821 104.64 30.3472C104.64 26.6123 101.555 23.583 97.7511 23.583ZM97.7511 33.4678C95.9978 33.4678 94.5729 32.0687 94.5729 30.3472C94.5729 28.6257 95.9978 27.2267 97.7511 27.2267C99.5044 27.2267 100.929 28.6257 100.929 30.3472C100.929 32.0687 99.5044 33.4678 97.7511 33.4678Z" fill="#333333"/>
<path d="M93.6128 16.515C93.6128 14.9882 93.0366 13.5891 92.0887 12.5246H94.5731V9.26416H80.2617V12.5246H82.7461C81.7982 13.5952 81.222 14.9882 81.222 16.515C81.222 19.8789 83.9975 22.604 87.4236 22.604C90.8497 22.604 93.6252 19.8789 93.6252 16.515H93.6128ZM87.4112 18.9543C86.042 18.9543 84.9269 17.8593 84.9269 16.515C84.9269 15.1707 86.042 14.0757 87.4112 14.0757C88.7804 14.0757 89.8956 15.1707 89.8956 16.515C89.8956 17.8593 88.7804 18.9543 87.4112 18.9543Z" fill="#333333"/>
<path d="M39.1426 13.6867C39.1984 11.2049 38.1761 8.8508 36.175 6.8921C36.0821 6.80086 35.9891 6.7157 35.89 6.62446C32.1356 3.17544 27.5448 2.75572 23.4434 5.30446C23.8152 6.2899 24.1187 7.31791 24.3604 8.37634C27.4828 6.02833 30.8593 6.16824 33.7712 8.84472C33.8393 8.91163 33.9137 8.97855 33.9818 9.04546C35.3882 10.4263 36.0821 11.9653 36.0449 13.6198C35.9953 15.7123 34.781 17.9265 32.6188 19.867C32.2967 20.1529 32.117 20.5604 32.117 20.9923C32.117 21.4242 32.2967 21.8257 32.6188 22.1177C34.781 24.0581 35.9953 26.2723 36.0449 28.3648C36.0821 30.0194 35.3882 31.5583 33.9818 32.9392C33.9137 33.0061 33.8455 33.073 33.7712 33.1338C29.738 36.8444 25.5437 34.0402 23.4001 32.045C23.177 31.8321 22.9602 31.607 22.7557 31.3759C22.6009 31.163 22.3902 30.9805 22.13 30.8649C21.4919 30.579 20.7422 30.7493 20.2962 31.2785C20.0731 31.5462 19.8315 31.8017 19.5713 32.0389C17.4339 34.0402 13.2396 36.8383 9.2002 33.1277C9.13205 33.0669 9.0639 33 8.99575 32.9331C7.60798 31.5705 6.89551 29.8734 6.93888 28.0363C6.96985 26.6251 7.4407 25.1895 8.26469 23.8513C7.20528 23.6262 6.18304 23.3464 5.20416 22.9936C4.36159 24.5873 3.88454 26.2845 3.84737 27.9694C3.78542 30.6581 4.81385 33.1217 6.80877 35.0804C6.9017 35.1716 6.99464 35.2628 7.09376 35.348C11.2695 39.1863 16.6347 38.8396 21.4919 34.4477C24.1063 36.814 26.8633 38.0123 29.5087 38.0123C31.7763 38.0123 33.9632 37.1303 35.8962 35.3602C35.9891 35.275 36.0883 35.1838 36.1812 35.0925C38.1761 33.1338 39.2045 30.7797 39.1488 28.2979C39.093 25.7978 37.9345 23.2491 35.859 20.9984C37.9345 18.7477 39.093 16.199 39.1488 13.6989L39.1426 13.6867Z" fill="#479332"/>
<path d="M16.9013 22.2748C12.0379 22.2748 5.83628 21.7821 2.3049 18.3513C-0.278582 15.8513 -0.743238 12.2502 1.17734 9.59801C2.28632 8.06512 4.42993 6.75729 7.27981 7.21351C6.78418 4.42145 8.09761 2.29851 9.64646 1.1975C12.3291 -0.712536 15.9967 -0.298897 18.5802 2.20727C22.9108 6.41665 22.7931 14.5495 22.7188 19.4037C22.7126 19.9755 22.7002 20.5108 22.7002 20.9852V22.1897L21.4735 22.2018C21.015 22.2018 20.4884 22.2201 19.9122 22.2322C19.0077 22.2566 17.9855 22.2809 16.9075 22.2809L16.9013 22.2748ZM6.15844 9.56152C4.78926 9.56152 3.77941 10.2063 3.19704 11.0093C2.21817 12.3657 2.06328 14.7016 4.04581 16.6299C7.61437 20.0971 15.2781 19.9146 19.8503 19.8052C19.9804 19.8052 20.1105 19.7991 20.2344 19.793C20.2344 19.6531 20.2344 19.5132 20.2406 19.3672C20.3088 14.8962 20.4141 7.41425 16.8393 3.93481C14.8568 2.00653 12.4778 2.18293 11.1086 3.16228C9.94384 3.98956 9.12604 5.6867 10.1049 8.0347C12.0503 8.43009 16.6968 9.65276 17.5456 12.3353C17.8244 13.2234 17.812 14.6225 16.1392 16.2223C14.7701 17.5301 13.5248 17.5119 12.7194 17.2747C10.0492 16.4778 8.649 11.873 8.17815 9.97515C7.44089 9.68926 6.77179 9.56152 6.17084 9.56152H6.15844ZM10.9599 10.7538C11.629 12.822 12.6079 14.7016 13.4319 14.9449C13.6735 15.0179 14.0018 14.8597 14.4045 14.4765C14.7515 14.142 15.3153 13.5154 15.1728 13.0531C14.9002 12.1772 12.9176 11.3073 10.9599 10.7538Z" fill="#084A3D"/>
</g>
<defs>
<clipPath id="clip0_1008_11241">
<rect width="161" height="38" fill="white"/>
</clipPath>
</defs>
</svg>
